FiraMono-Regular.sfdir
StartChar: exclam
Encoding: 33 33 984
Width: 600
Flags: W
LayerCount: 2
Fore
SplineSet
336 227 m 1,0,-1
 261 227 l 1,1,-1
 251 689 l 1,2,-1
 345 689 l 1,3,-1
 336 227 l 1,0,-1
347 103.5 m 128,-1,5
 366 84 366 84 366 56 c 0,6,7
 366 27 366 27 347 8 c 128,-1,8
 328 -11 328 -11 299 -11 c 0,9,10
 271 -11 271 -11 251.5 8.5 c 128,-1,11
 232 28 232 28 232 56 c 256,12,13
 232 84 232 84 251.5 103.5 c 128,-1,14
 271 123 271 123 299 123 c 0,15,4
 328 123 328 123 347 103.5 c 128,-1,5
EndSplineSet
EndChar
StartChar: quotedbl
Encoding: 34 34 990
Width: 600
Flags: W
LayerCount: 2
Fore
SplineSet
164 739 m 1,0,-1
 269 739 l 1,1,-1
 253 479 l 1,2,-1
 179 479 l 1,3,-1
 164 739 l 1,0,-1
331 739 m 1,4,-1
 436 739 l 1,5,-1
 421 479 l 1,6,-1
 347 479 l 1,7,-1
 331 739 l 1,4,-1
EndSplineSet
EndChar
StartChar: parenright
Encoding: 41 41 1007
Width: 600
Flags: W
LayerCount: 2
Fore
SplineSet
364.5 528.5 m 128,-1,1
 342 604 342 604 296.5 665 c 128,-1,2
 251 726 251 726 174 794 c 1,3,-1
 217 840 l 1,4,5
 305 769 305 769 360.5 700 c 128,-1,6
 416 631 416 631 445.5 546 c 128,-1,7
 475 461 475 461 475 350 c 256,8,9
 475 239 475 239 445.5 154 c 128,-1,10
 416 69 416 69 360.5 0 c 128,-1,11
 305 -69 305 -69 217 -140 c 1,12,-1
 174 -94 l 1,13,14
 250 -26 250 -26 295.5 35.5 c 128,-1,15
 341 97 341 97 364 172.5 c 128,-1,16
 387 248 387 248 387 350 c 0,17,0
 387 453 387 453 364.5 528.5 c 128,-1,1
EndSplineSet
EndChar
StartChar: asterisk
Encoding: 42 42 977
Width: 600
Flags: W
LayerCount: 2
Fore
SplineSet
327 362 m 1,0,-1
 479 425 l 1,1,-1
 504 345 l 1,2,-1
 346 309 l 1,3,-1
 456 189 l 1,4,-1
 388 137 l 1,5,-1
 301 277 l 1,6,-1
 220 134 l 1,7,-1
 149 182 l 1,8,-1
 255 309 l 1,9,-1
 96 345 l 1,10,-1
 121 425 l 1,11,-1
 272 362 l 1,12,-1
 258 527 l 1,13,-1
 342 527 l 1,14,-1
 327 362 l 1,0,-1
EndSplineSet
EndChar
StartChar: comma
Encoding: 44 44 982
Width: 600
Flags: W
LayerCount: 2
Fore
SplineSet
357.5 141.5 m 128,-1,1
 381 118 381 118 381 85 c 0,2,3
 381 48 381 48 362 6 c 2,4,-1
 281 -179 l 1,5,-1
 205 -179 l 1,6,-1
 252 18 l 1,7,8
 238 29 238 29 229 47 c 128,-1,9
 220 65 220 65 220 84 c 0,10,11
 220 118 220 118 243 141.5 c 128,-1,12
 266 165 266 165 300 165 c 256,13,0
 334 165 334 165 357.5 141.5 c 128,-1,1
EndSplineSet
EndChar
StartChar: period
Encoding: 46 46 987
Width: 600
Flags: W
LayerCount: 2
Fore
SplineSet
236.5 139.5 m 128,-1,1
 262 165 262 165 299 165 c 0,2,3
 337 165 337 165 362 139.5 c 128,-1,4
 387 114 387 114 387 77 c 0,5,6
 387 39 387 39 362 14 c 128,-1,7
 337 -11 337 -11 299 -11 c 0,8,9
 262 -11 262 -11 236.5 14.5 c 128,-1,10
 211 40 211 40 211 77 c 256,11,0
 211 114 211 114 236.5 139.5 c 128,-1,1
EndSplineSet
EndChar
StartChar: four
Encoding: 52 52 902
Width: 600
Flags: W
LayerCount: 2
Fore
SplineSet
528 167 m 1,0,-1
 439 167 l 1,1,-1
 439 0 l 1,2,-1
 358 0 l 1,3,-1
 358 167 l 1,4,-1
 72 167 l 1,5,-1
 72 229 l 1,6,-1
 274 700 l 1,7,-1
 344 670 l 1,8,-1
 161 235 l 1,9,-1
 359 235 l 1,10,-1
 366 430 l 1,11,-1
 439 430 l 1,12,-1
 439 235 l 1,13,-1
 528 235 l 1,14,-1
 528 167 l 1,0,-1
EndSplineSet
EndChar
StartChar: five
Encoding: 53 53 903
Width: 600
Flags: W
LayerCount: 2
Fore
SplineSet
475 621 m 1,0,-1
 203 621 l 1,1,-1
 203 404 l 1,2,3
 232 421 232 421 260.5 427.5 c 128,-1,4
 289 434 289 434 321 434 c 0,5,6
 407 434 407 434 458.5 377 c 128,-1,7
 510 320 510 320 510 218 c 0,8,9
 510 150 510 150 481.5 98 c 128,-1,10
 453 46 453 46 400 17.5 c 128,-1,11
 347 -11 347 -11 277 -11 c 0,12,13
 162 -11 162 -11 77 71 c 1,14,-1
 129 122 l 1,15,16
 192 58 192 58 277 58 c 0,17,18
 346 58 346 58 384 100 c 128,-1,19
 422 142 422 142 422 221 c 0,20,21
 422 299 422 299 388 333.5 c 128,-1,22
 354 368 354 368 297 368 c 0,23,24
 270 368 270 368 248 363 c 128,-1,25
 226 358 226 358 190 345 c 1,26,-1
 122 345 l 1,27,-1
 122 689 l 1,28,-1
 487 689 l 1,29,-1
 475 621 l 1,0,-1
EndSplineSet
EndChar
StartChar: nine
Encoding: 57 57 907
Width: 600
Flags: W
LayerCount: 2
Fore
SplineSet
458 629 m 128,-1,1
 514 559 514 559 514 433 c 0,2,3
 514 288 514 288 476.5 202 c 128,-1,4
 439 116 439 116 361.5 66.5 c 128,-1,5
 284 17 284 17 147 -21 c 1,6,-1
 127 43 l 1,7,8
 274 82 274 82 349 150 c 128,-1,9
 424 218 424 218 425 337 c 1,10,11
 399 300 399 300 357.5 276 c 128,-1,12
 316 252 316 252 262 252 c 0,13,14
 205 252 205 252 160.5 279 c 128,-1,15
 116 306 116 306 91 355.5 c 128,-1,16
 66 405 66 405 66 472 c 0,17,18
 66 544 66 544 95.5 595 c 128,-1,19
 125 646 125 646 175.5 672.5 c 128,-1,20
 226 699 226 699 289 699 c 0,21,0
 402 699 402 699 458 629 c 128,-1,1
361 344 m 128,-1,23
 398 368 398 368 427 412 c 1,24,25
 429 532 429 532 396 581.5 c 128,-1,26
 363 631 363 631 289 631 c 0,27,28
 222 631 222 631 188 590 c 128,-1,29
 154 549 154 549 154 469 c 0,30,31
 154 393 154 393 185.5 356.5 c 128,-1,32
 217 320 217 320 276 320 c 0,33,22
 324 320 324 320 361 344 c 128,-1,23
EndSplineSet
EndChar
StartChar: colon
Encoding: 58 58 981
Width: 600
Flags: W
LayerCount: 2
Fore
SplineSet
242 487.5 m 128,-1,1
 265 511 265 511 299 511 c 0,2,3
 334 511 334 511 357 487.5 c 128,-1,4
 380 464 380 464 380 431 c 0,5,6
 380 397 380 397 357 373 c 128,-1,7
 334 349 334 349 299 349 c 0,8,9
 265 349 265 349 242 373 c 128,-1,10
 219 397 219 397 219 431 c 0,11,0
 219 464 219 464 242 487.5 c 128,-1,1
242 127 m 128,-1,13
 265 151 265 151 299 151 c 0,14,15
 334 151 334 151 357 127.5 c 128,-1,16
 380 104 380 104 380 70 c 0,17,18
 380 35 380 35 357 12 c 128,-1,19
 334 -11 334 -11 299 -11 c 0,20,21
 265 -11 265 -11 242 12 c 128,-1,22
 219 35 219 35 219 70 c 0,23,12
 219 103 219 103 242 127 c 128,-1,13
EndSplineSet
EndChar
StartChar: semicolon
Encoding: 59 59 992
Width: 600
Flags: W
LayerCount: 2
Fore
SplineSet
357 487.5 m 128,-1,1
 380 464 380 464 380 431 c 0,2,3
 380 397 380 397 357 373 c 128,-1,4
 334 349 334 349 299 349 c 0,5,6
 265 349 265 349 242 373 c 128,-1,7
 219 397 219 397 219 431 c 0,8,9
 219 464 219 464 242 487.5 c 128,-1,10
 265 511 265 511 299 511 c 0,11,0
 334 511 334 511 357 487.5 c 128,-1,1
356.5 142.5 m 128,-1,13
 380 119 380 119 380 85 c 0,14,15
 380 49 380 49 361 6 c 2,16,-1
 279 -180 l 1,17,-1
 203 -180 l 1,18,-1
 251 18 l 1,19,20
 236 29 236 29 227.5 47 c 128,-1,21
 219 65 219 65 219 85 c 0,22,23
 219 119 219 119 242 142.5 c 128,-1,24
 265 166 265 166 299 166 c 256,25,12
 333 166 333 166 356.5 142.5 c 128,-1,13
EndSplineSet
EndChar
StartChar: at
Encoding: 64 64 1377
Width: 600
Flags: W
LayerCount: 2
Fore
SplineSet
522.5 585.5 m 128,-1,1
 586 471 586 471 586 285 c 0,2,3
 586 151 586 151 574 70.5 c 128,-1,4
 562 -10 562 -10 530 -50.5 c 128,-1,5
 498 -91 498 -91 439 -91 c 0,6,7
 400 -91 400 -91 373 -67 c 128,-1,8
 346 -43 346 -43 333 -9.5 c 128,-1,9
 320 24 320 24 321 52 c 1,10,-1
 317 52 l 1,11,12
 277 -46 277 -46 180 -46 c 0,13,14
 102 -46 102 -46 66 15.5 c 128,-1,15
 30 77 30 77 30 183 c 0,16,17
 30 312 30 312 80.5 376.5 c 128,-1,18
 131 441 131 441 226 441 c 0,19,20
 263 441 263 441 295 433 c 128,-1,21
 327 425 327 425 367 404 c 1,22,-1
 367 108 l 2,23,24
 367 34 367 34 385.5 5.5 c 128,-1,25
 404 -23 404 -23 437 -23 c 0,26,27
 466 -23 466 -23 479.5 13.5 c 128,-1,28
 493 50 493 50 496 107.5 c 128,-1,29
 499 165 499 165 499 268 c 0,30,31
 499 382 499 382 483.5 458.5 c 128,-1,32
 468 535 468 535 421 580.5 c 128,-1,33
 374 626 374 626 285 626 c 0,34,35
 228 626 228 626 172 606 c 128,-1,36
 116 586 116 586 58 534 c 1,37,-1
 9 591 l 1,38,39
 74 647 74 647 144 673.5 c 128,-1,40
 214 700 214 700 284 700 c 0,41,0
 459 700 459 700 522.5 585.5 c 128,-1,1
137 332 m 128,-1,43
 111 285 111 285 111 183 c 0,44,45
 111 104 111 104 129 60.5 c 128,-1,46
 147 17 147 17 190 17 c 0,47,48
 222 17 222 17 242.5 31.5 c 128,-1,49
 263 46 263 46 272.5 62.5 c 128,-1,50
 282 79 282 79 293 105 c 1,51,-1
 293 365 l 1,52,53
 264 379 264 379 229 379 c 0,54,42
 163 379 163 379 137 332 c 128,-1,43
EndSplineSet
EndChar
StartChar: A
Encoding: 65 65 4
Width: 600
Flags: W
LayerCount: 2
Fore
SplineSet
161 176 m 1,0,-1
 106 0 l 1,1,-1
 20 0 l 1,2,-1
 245 689 l 1,3,-1
 355 689 l 1,4,-1
 579 0 l 1,5,-1
 489 0 l 1,6,-1
 434 176 l 1,7,-1
 161 176 l 1,0,-1
411 248 m 1,8,-1
 298 615 l 1,9,-1
 184 248 l 1,10,-1
 411 248 l 1,8,-1
EndSplineSet
EndChar
StartChar: C
Encoding: 67 67 17
Width: 600
Flags: W
LayerCount: 2
Fore
SplineSet
468 683.5 m 128,-1,1
 514 667 514 667 558 633 c 1,2,-1
 509 576 l 1,3,4
 448 627 448 627 364 627 c 0,5,6
 271 627 271 627 212.5 559.5 c 128,-1,7
 154 492 154 492 154 345 c 0,8,9
 154 199 154 199 211 131 c 128,-1,10
 268 63 268 63 363 63 c 0,11,12
 415 63 415 63 452 78 c 128,-1,13
 489 93 489 93 523 120 c 1,14,-1
 568 64 l 1,15,16
 491 -11 491 -11 362 -11 c 0,17,18
 277 -11 277 -11 209 30.5 c 128,-1,19
 141 72 141 72 102 152 c 128,-1,20
 63 232 63 232 63 345 c 0,21,22
 63 457 63 457 102.5 537.5 c 128,-1,23
 142 618 142 618 209.5 659 c 128,-1,24
 277 700 277 700 358 700 c 0,25,0
 422 700 422 700 468 683.5 c 128,-1,1
EndSplineSet
EndChar
StartChar: D
Encoding: 68 68 23
Width: 600
Flags: W
LayerCount: 2
Fore
SplineSet
463 76 m 128,-1,1
 373 0 373 0 241 0 c 2,2,-1
 83 0 l 1,3,-1
 83 689 l 1,4,-1
 230 689 l 2,5,6
 375 689 375 689 464 616 c 128,-1,7
 553 543 553 543 553 348 c 0,8,0
 553 152 553 152 463 76 c 128,-1,1
429.5 519.5 m 128,-1,10
 399 579 399 579 354 598.5 c 128,-1,11
 309 618 309 618 251 618 c 2,12,-1
 170 618 l 1,13,-1
 170 70 l 1,14,-1
 252 70 l 2,15,16
 341 70 341 70 400.5 131.5 c 128,-1,17
 460 193 460 193 460 348 c 0,18,9
 460 460 460 460 429.5 519.5 c 128,-1,10
EndSplineSet
EndChar
StartChar: K
Encoding: 75 75 59
Width: 600
Flags: W
LayerCount: 2
Fore
SplineSet
105 0 m 1,0,-1
 105 689 l 1,1,-1
 192 689 l 1,2,-1
 192 0 l 1,3,-1
 105 0 l 1,0,-1
467 689 m 1,4,-1
 568 689 l 1,5,-1
 299 373 l 1,6,-1
 587 0 l 1,7,-1
 478 0 l 1,8,-1
 197 368 l 1,9,-1
 467 689 l 1,4,-1
EndSplineSet
EndChar
StartChar: P
Encoding: 80 80 86
Width: 600
Flags: W
LayerCount: 2
Fore
SplineSet
486 309 m 128,-1,1
 415 256 415 256 291 256 c 2,2,-1
 202 256 l 1,3,-1
 202 0 l 1,4,-1
 116 0 l 1,5,-1
 116 689 l 1,6,-1
 291 689 l 2,7,8
 418 689 418 689 487.5 636 c 128,-1,9
 557 583 557 583 557 477 c 0,10,0
 557 362 557 362 486 309 c 128,-1,1
420.5 585.5 m 128,-1,12
 377 620 377 620 302 620 c 2,13,-1
 202 620 l 1,14,-1
 202 325 l 1,15,-1
 299 325 l 2,16,17
 377 325 377 325 420.5 359 c 128,-1,18
 464 393 464 393 464 476 c 0,19,11
 464 551 464 551 420.5 585.5 c 128,-1,12
EndSplineSet
EndChar
StartChar: Q
Encoding: 81 81 88
Width: 600
Flags: W
LayerCount: 2
Fore
SplineSet
520.5 148.5 m 128,-1,1
 487 69 487 69 411 27 c 1,2,3
 485 12 485 12 526.5 -25 c 128,-1,4
 568 -62 568 -62 593 -137 c 1,5,-1
 501 -173 l 1,6,7
 467 -88 467 -88 421 -49 c 128,-1,8
 375 -10 375 -10 290 -10 c 0,9,10
 212 -10 212 -10 157 33.5 c 128,-1,11
 102 77 102 77 73.5 156.5 c 128,-1,12
 45 236 45 236 45 343 c 0,13,14
 45 448 45 448 74 529 c 128,-1,15
 103 610 103 610 160.5 655 c 128,-1,16
 218 700 218 700 300 700 c 0,17,18
 422 700 422 700 488 603.5 c 128,-1,19
 554 507 554 507 554 344 c 0,20,0
 554 228 554 228 520.5 148.5 c 128,-1,1
424 556 m 128,-1,22
 385 627 385 627 300 627 c 256,23,24
 215 627 215 627 175.5 555.5 c 128,-1,25
 136 484 136 484 136 343 c 0,26,27
 136 203 136 203 176 132.5 c 128,-1,28
 216 62 216 62 300 62 c 0,29,30
 385 62 385 62 424 132.5 c 128,-1,31
 463 203 463 203 463 344 c 256,32,21
 463 485 463 485 424 556 c 128,-1,22
EndSplineSet
EndChar
StartChar: R
Encoding: 82 82 89
Width: 600
Flags: W
LayerCount: 2
Fore
SplineSet
491 372.5 m 128,-1,1
 445 324 445 324 369 305 c 1,2,-1
 574 0 l 1,3,-1
 470 0 l 1,4,-1
 281 295 l 1,5,-1
 188 295 l 1,6,-1
 188 0 l 1,7,-1
 102 0 l 1,8,-1
 102 689 l 1,9,-1
 278 689 l 2,10,11
 406 689 406 689 471.5 640 c 128,-1,12
 537 591 537 591 537 495 c 0,13,0
 537 421 537 421 491 372.5 c 128,-1,1
407 590 m 128,-1,15
 369 619 369 619 288 619 c 2,16,-1
 188 619 l 1,17,-1
 188 363 l 1,18,-1
 289 363 l 2,19,20
 366 363 366 363 405.5 394.5 c 128,-1,21
 445 426 445 426 445 495 c 0,22,14
 445 561 445 561 407 590 c 128,-1,15
EndSplineSet
EndChar
StartChar: S
Encoding: 83 83 93
Width: 600
Flags: W
LayerCount: 2
Fore
SplineSet
507 85.5 m 128,-1,1
 477 40 477 40 420 14.5 c 128,-1,2
 363 -11 363 -11 285 -11 c 0,3,4
 210 -11 210 -11 148.5 11.5 c 128,-1,5
 87 34 87 34 43 76 c 1,6,-1
 95 135 l 1,7,8
 133 99 133 99 179.5 80 c 128,-1,9
 226 61 226 61 286 61 c 0,10,11
 354 61 354 61 400 94 c 128,-1,12
 446 127 446 127 446 189 c 0,13,14
 446 224 446 224 433 247 c 128,-1,15
 420 270 420 270 387.5 288 c 128,-1,16
 355 306 355 306 296 323 c 0,17,18
 184 356 184 356 129 400.5 c 128,-1,19
 74 445 74 445 74 522 c 0,20,21
 74 573 74 573 102 614 c 128,-1,22
 130 655 130 655 181 677.5 c 128,-1,23
 232 700 232 700 297 700 c 0,24,25
 365 700 365 700 418.5 680 c 128,-1,26
 472 660 472 660 517 621 c 1,27,-1
 465 565 l 1,28,29
 394 627 394 627 300 627 c 0,30,31
 240 627 240 627 201 601 c 128,-1,32
 162 575 162 575 162 525 c 0,33,34
 162 495 162 495 178 474 c 128,-1,35
 194 453 194 453 231 435 c 128,-1,36
 268 417 268 417 335 398 c 0,37,38
 432 370 432 370 484.5 325 c 128,-1,39
 537 280 537 280 537 191 c 0,40,0
 537 131 537 131 507 85.5 c 128,-1,1
EndSplineSet
EndChar
StartChar: T
Encoding: 84 84 99
Width: 600
Flags: W
LayerCount: 2
Fore
SplineSet
342 0 m 1,0,-1
 255 0 l 1,1,-1
 255 614 l 1,2,-1
 40 614 l 1,3,-1
 40 689 l 1,4,-1
 559 689 l 1,5,-1
 550 614 l 1,6,-1
 342 614 l 1,7,-1
 342 0 l 1,0,-1
EndSplineSet
EndChar
StartChar: U
Encoding: 85 85 104
Width: 600
Flags: W
LayerCount: 2
Fore
SplineSet
528 223 m 2,0,1
 528 154 528 154 499.5 100.5 c 128,-1,2
 471 47 471 47 419.5 18 c 128,-1,3
 368 -11 368 -11 299 -11 c 0,4,5
 229 -11 229 -11 178 18.5 c 128,-1,6
 127 48 127 48 99.5 101 c 128,-1,7
 72 154 72 154 72 223 c 2,8,-1
 72 689 l 1,9,-1
 159 689 l 1,10,-1
 159 220 l 2,11,12
 159 142 159 142 195 103 c 128,-1,13
 231 64 231 64 299 64 c 256,14,15
 367 64 367 64 403.5 103 c 128,-1,16
 440 142 440 142 440 220 c 2,17,-1
 440 689 l 1,18,-1
 528 689 l 1,19,-1
 528 223 l 2,0,1
EndSplineSet
EndChar
StartChar: V
Encoding: 86 86 115
Width: 600
Flags: W
LayerCount: 2
Fore
SplineSet
488 689 m 1,0,-1
 575 689 l 1,1,-1
 345 0 l 1,2,-1
 255 0 l 1,3,-1
 25 689 l 1,4,-1
 118 689 l 1,5,-1
 302 99 l 1,6,-1
 488 689 l 1,0,-1
EndSplineSet
EndChar
StartChar: Y
Encoding: 89 89 122
Width: 600
Flags: W
LayerCount: 2
Fore
SplineSet
344 0 m 1,0,-1
 256 0 l 1,1,-1
 256 265 l 1,2,-1
 23 689 l 1,3,-1
 119 689 l 1,4,-1
 302 343 l 1,5,-1
 487 689 l 1,6,-1
 577 689 l 1,7,-1
 344 266 l 1,8,-1
 344 0 l 1,0,-1
EndSplineSet
EndChar
StartChar: Z
Encoding: 90 90 127
Width: 600
Flags: W
LayerCount: 2
Fore
SplineSet
527 75 m 1,0,-1
 517 0 l 1,1,-1
 72 0 l 1,2,-1
 72 70 l 1,3,-1
 435 614 l 1,4,-1
 108 614 l 1,5,-1
 108 689 l 1,6,-1
 528 689 l 1,7,-1
 528 617 l 1,8,-1
 167 75 l 1,9,-1
 527 75 l 1,0,-1
EndSplineSet
EndChar
StartChar: bracketleft
Encoding: 91 91 1004
Width: 600
Flags: W
LayerCount: 2
Fore
SplineSet
184 815 m 1,0,-1
 435 815 l 1,1,-1
 435 743 l 1,2,-1
 264 743 l 1,3,-1
 264 -44 l 1,4,-1
 435 -44 l 1,5,-1
 435 -115 l 1,6,-1
 184 -115 l 1,7,-1
 184 815 l 1,0,-1
EndSplineSet
EndChar
StartChar: backslash
Encoding: 92 92 978
Width: 600
Flags: W
LayerCount: 2
Fore
SplineSet
119 809 m 1,0,-1
 547 -73 l 1,1,-1
 479 -103 l 1,2,-1
 53 777 l 1,3,-1
 119 809 l 1,0,-1
EndSplineSet
EndChar
StartChar: asciicircum
Encoding: 94 94 1388
Width: 600
Flags: W
LayerCount: 2
Fore
SplineSet
526 527 m 1,0,-1
 435 527 l 1,1,-1
 299 764 l 1,2,-1
 164 527 l 1,3,-1
 74 527 l 1,4,-1
 263 840 l 1,5,-1
 337 840 l 1,6,-1
 526 527 l 1,0,-1
EndSplineSet
EndChar
StartChar: grave
Encoding: 96 96 1435
Width: 600
Flags: W
LayerCount: 2
Fore
SplineSet
184 715 m 1,0,-1
 230 787 l 1,1,-1
 414 668 l 1,2,-1
 387 622 l 1,3,-1
 184 715 l 1,0,-1
EndSplineSet
EndChar
StartChar: b
Encoding: 98 98 148
Width: 600
Flags: W
LayerCount: 2
Fore
SplineSet
335 538 m 0,1,2
 436 538 436 538 484 466 c 128,-1,3
 532 394 532 394 532 264 c 0,4,5
 532 140 532 140 477 64.5 c 128,-1,6
 422 -11 422 -11 323 -11 c 0,7,8
 232 -11 232 -11 180 55 c 1,9,-1
 174 0 l 1,10,-1
 100 0 l 1,11,-1
 100 739 l 1,12,-1
 184 749 l 1,13,-1
 184 458 l 1,14,0
 245 538 245 538 335 538 c 0,1,2
405.5 109 m 128,-1,16
 441 161 441 161 441 264 c 0,17,18
 441 366 441 366 409.5 418 c 128,-1,19
 378 470 378 470 316 470 c 0,20,21
 276 470 276 470 242.5 446 c 128,-1,22
 209 422 209 422 184 386 c 1,23,-1
 184 125 l 1,24,25
 205 93 205 93 236 75 c 128,-1,26
 267 57 267 57 304 57 c 0,27,15
 370 57 370 57 405.5 109 c 128,-1,16
EndSplineSet
EndChar
StartChar: d
Encoding: 100 100 155
Width: 600
Flags: W
LayerCount: 2
Fore
SplineSet
500 739 m 1,0,-1
 500 0 l 1,1,-1
 426 0 l 1,2,-1
 418 69 l 1,3,4
 389 29 389 29 351 9 c 128,-1,5
 313 -11 313 -11 269 -11 c 0,6,7
 169 -11 169 -11 118.5 62 c 128,-1,8
 68 135 68 135 68 263 c 0,9,10
 68 342 68 342 93 404.5 c 128,-1,11
 118 467 118 467 164.5 502.5 c 128,-1,12
 211 538 211 538 274 538 c 0,13,14
 361 538 361 538 416 475 c 1,15,-1
 416 749 l 1,16,-1
 500 739 l 1,0,-1
194.5 418 m 128,-1,18
 159 366 159 366 159 263 c 0,19,20
 159 161 159 161 191.5 108.5 c 128,-1,21
 224 56 224 56 286 56 c 0,22,23
 361 56 361 56 416 140 c 1,24,-1
 416 402 l 1,25,26
 394 435 394 435 363 452.5 c 128,-1,27
 332 470 332 470 296 470 c 0,28,17
 230 470 230 470 194.5 418 c 128,-1,18
EndSplineSet
EndChar
StartChar: e
Encoding: 101 101 159
Width: 600
Flags: W
LayerCount: 2
Fore
SplineSet
212.5 103 m 128,-1,1
 255 59 255 59 320 59 c 0,2,3
 359 59 359 59 391.5 70.5 c 128,-1,4
 424 82 424 82 461 106 c 1,5,-1
 500 50 l 1,6,7
 463 21 463 21 415.5 5 c 128,-1,8
 368 -11 368 -11 320 -11 c 0,9,10
 206 -11 206 -11 142.5 63.5 c 128,-1,11
 79 138 79 138 79 263 c 0,12,13
 79 342 79 342 107 404.5 c 128,-1,14
 135 467 135 467 187 502.5 c 128,-1,15
 239 538 239 538 308 538 c 0,16,17
 408 538 408 538 465.5 468.5 c 128,-1,18
 523 399 523 399 523 279 c 0,19,20
 523 256 523 256 521 234 c 1,21,-1
 167 234 l 1,22,0
 170 147 170 147 212.5 103 c 128,-1,1
210 425.5 m 128,-1,24
 172 382 172 382 167 298 c 1,25,-1
 441 298 l 1,26,27
 440 381 440 381 405 425 c 128,-1,28
 370 469 370 469 309 469 c 256,29,23
 248 469 248 469 210 425.5 c 128,-1,24
EndSplineSet
EndChar
StartChar: f
Encoding: 102 102 169
Width: 600
Flags: W
LayerCount: 2
Fore
SplineSet
554 721 m 1,1,-1
 527 658 l 1,2,3
 477 680 477 680 414 680 c 0,4,5
 304 680 304 680 304 593 c 2,6,-1
 304 486 l 1,7,-1
 482 486 l 1,8,-1
 473 419 l 1,9,-1
 304 419 l 1,10,-1
 304 0 l 1,11,-1
 219 0 l 1,12,-1
 219 419 l 1,13,-1
 94 419 l 1,14,-1
 94 486 l 1,15,-1
 219 486 l 1,16,-1
 219 591 l 2,17,18
 219 662 219 662 273.5 705.5 c 128,-1,19
 328 749 328 749 411 749 c 0,20,0
 486 749 486 749 554 721 c 1,1,-1
EndSplineSet
EndChar
StartChar: h
Encoding: 104 104 175
Width: 600
Flags: W
LayerCount: 2
Fore
SplineSet
184 454 m 1,0,1
 215 494 215 494 260 516 c 128,-1,2
 305 538 305 538 353 538 c 0,3,4
 501 538 501 538 501 382 c 2,5,-1
 501 0 l 1,6,-1
 417 0 l 1,7,-1
 417 381 l 2,8,9
 417 428 417 428 395 449.5 c 128,-1,10
 373 471 373 471 325 471 c 0,11,12
 284 471 284 471 246 445 c 128,-1,13
 208 419 208 419 184 384 c 1,14,-1
 184 0 l 1,15,-1
 100 0 l 1,16,-1
 100 738 l 1,17,-1
 184 747 l 1,18,-1
 184 454 l 1,0,1
EndSplineSet
EndChar
StartChar: k
Encoding: 107 107 193
Width: 600
Flags: W
LayerCount: 2
Fore
SplineSet
190 0 m 1,0,-1
 106 0 l 1,1,-1
 106 739 l 1,2,-1
 190 749 l 1,3,-1
 190 0 l 1,0,-1
305 289 m 1,4,-1
 569 0 l 1,5,-1
 458 0 l 1,6,-1
 199 288 l 1,7,-1
 433 527 l 1,8,-1
 541 527 l 1,9,-1
 305 289 l 1,4,-1
EndSplineSet
EndChar
StartChar: r
Encoding: 114 114 225
Width: 600
Flags: W
LayerCount: 2
Fore
SplineSet
530 527 m 1,1,-1
 518 348 l 1,2,-1
 450 348 l 1,3,-1
 450 461 l 1,4,-1
 445 461 l 2,5,6
 323 461 323 461 272 287 c 1,7,-1
 272 65 l 1,8,-1
 379 65 l 1,9,-1
 379 0 l 1,10,-1
 105 0 l 1,11,-1
 105 65 l 1,12,-1
 188 65 l 1,13,-1
 188 462 l 1,14,-1
 105 462 l 1,15,-1
 105 527 l 1,16,-1
 251 527 l 1,17,-1
 267 402 l 1,18,19
 299 470 299 470 343.5 504 c 128,-1,20
 388 538 388 538 456 538 c 0,21,0
 488 538 488 538 530 527 c 1,1,-1
EndSplineSet
EndChar
StartChar: t
Encoding: 116 116 236
Width: 600
Flags: W
LayerCount: 2
Fore
SplineSet
453.5 -1 m 128,-1,1
 415 -11 415 -11 377 -11 c 0,2,3
 294 -11 294 -11 247 32.5 c 128,-1,4
 200 76 200 76 200 147 c 2,5,-1
 200 461 l 1,6,-1
 79 461 l 1,7,-1
 79 527 l 1,8,-1
 200 527 l 1,9,-1
 200 646 l 1,10,-1
 284 656 l 1,11,-1
 284 527 l 1,12,-1
 467 527 l 1,13,-1
 456 461 l 1,14,-1
 284 461 l 1,15,-1
 284 148 l 2,16,17
 284 103 284 103 308 81 c 128,-1,18
 332 59 332 59 385 59 c 0,19,20
 439 59 439 59 486 84 c 1,21,-1
 519 27 l 1,22,0
 492 9 492 9 453.5 -1 c 128,-1,1
EndSplineSet
EndChar
StartChar: v
Encoding: 118 118 252
Width: 600
Flags: W
LayerCount: 2
Fore
SplineSet
348 0 m 1,0,-1
 251 0 l 1,1,-1
 60 527 l 1,2,-1
 150 527 l 1,3,-1
 302 76 l 1,4,-1
 452 527 l 1,5,-1
 540 527 l 1,6,-1
 348 0 l 1,0,-1
EndSplineSet
EndChar
StartChar: w
Encoding: 119 119 253
Width: 600
Flags: W
LayerCount: 2
Fore
SplineSet
372 0 m 1,0,-1
 303 386 l 1,1,-1
 229 0 l 1,2,-1
 113 0 l 1,3,-1
 18 527 l 1,4,-1
 103 527 l 1,5,-1
 171 52 l 1,6,-1
 255 460 l 1,7,-1
 354 460 l 1,8,-1
 433 52 l 1,9,-1
 501 527 l 1,10,-1
 582 527 l 1,11,-1
 491 0 l 1,12,-1
 372 0 l 1,0,-1
EndSplineSet
EndChar
StartChar: z
Encoding: 122 122 264
Width: 600
Flags: W
LayerCount: 2
Fore
SplineSet
498 72 m 1,0,-1
 488 0 l 1,1,-1
 102 0 l 1,2,-1
 102 64 l 1,3,-1
 394 453 l 1,4,-1
 125 453 l 1,5,-1
 125 527 l 1,6,-1
 495 527 l 1,7,-1
 495 461 l 1,8,-1
 205 72 l 1,9,-1
 498 72 l 1,0,-1
EndSplineSet
EndChar
StartChar: braceleft
Encoding: 123 123 1002
Width: 600
Flags: W
LayerCount: 2
Fore
SplineSet
451 769 m 1,0,1
 318 769 318 769 326 689 c 2,2,-1
 346 484 l 2,3,4
 347 475 347 475 347 458 c 0,5,6
 347 410 347 410 324 384.5 c 128,-1,7
 301 359 301 359 253 350 c 1,8,9
 302 341 302 341 324.5 316.5 c 128,-1,10
 347 292 347 292 347 243 c 0,11,12
 347 226 347 226 346 216 c 2,13,-1
 326 11 l 2,14,15
 322 -33 322 -33 356 -51 c 128,-1,16
 390 -69 390 -69 451 -69 c 1,17,-1
 451 -136 l 1,18,19
 361 -136 361 -136 304 -105 c 128,-1,20
 247 -74 247 -74 247 0 c 0,21,22
 247 13 247 13 248 20 c 2,23,-1
 269 210 l 2,24,25
 270 217 270 217 270 230 c 0,26,27
 270 274 270 274 237 295 c 128,-1,28
 204 316 204 316 117 316 c 1,29,-1
 117 384 l 1,30,31
 204 384 204 384 237 404.5 c 128,-1,32
 270 425 270 425 270 469 c 0,33,34
 270 481 270 481 269 488 c 2,35,-1
 248 680 l 2,36,37
 247 687 247 687 247 700 c 0,38,39
 247 774 247 774 304 805 c 128,-1,40
 361 836 361 836 451 836 c 1,41,-1
 451 769 l 1,0,1
EndSplineSet
EndChar
StartChar: bar
Encoding: 124 124 1375
Width: 600
Flags: W
LayerCount: 2
Fore
SplineSet
337 -102 m 1,0,-1
 262 -102 l 1,1,-1
 262 807 l 1,2,-1
 337 807 l 1,3,-1
 337 -102 l 1,0,-1
EndSplineSet
EndChar
StartChar: braceright
Encoding: 125 125 1003
Width: 600
Flags: W
LayerCount: 2
Fore
SplineSet
296 805 m 128,-1,1
 353 774 353 774 353 700 c 0,2,3
 353 687 353 687 352 680 c 2,4,-1
 331 488 l 2,5,6
 330 483 330 483 330 473 c 0,7,8
 330 428 330 428 365.5 406 c 128,-1,9
 401 384 401 384 483 384 c 1,10,-1
 483 316 l 1,11,12
 400 316 400 316 365 294 c 128,-1,13
 330 272 330 272 330 226 c 0,14,15
 330 216 330 216 331 210 c 2,16,-1
 352 20 l 2,17,18
 353 13 353 13 353 0 c 0,19,20
 353 -74 353 -74 296 -105 c 128,-1,21
 239 -136 239 -136 149 -136 c 1,22,-1
 149 -69 l 1,23,24
 210 -69 210 -69 244 -51 c 128,-1,25
 278 -33 278 -33 274 11 c 2,26,-1
 254 216 l 2,27,28
 252 236 252 236 252 243 c 0,29,30
 252 293 252 293 277 317 c 128,-1,31
 302 341 302 341 358 349 c 1,32,33
 304 359 304 359 278.5 384.5 c 128,-1,34
 253 410 253 410 253 459 c 0,35,36
 253 475 253 475 254 484 c 2,37,-1
 274 689 l 2,38,39
 282 769 282 769 149 769 c 1,40,-1
 149 836 l 1,41,0
 239 836 239 836 296 805 c 128,-1,1
EndSplineSet
EndChar
StartChar: asciitilde
Encoding: 126 126 1077
Width: 600
Flags: W
LayerCount: 2
Fore
SplineSet
268 385.5 m 128,-1,1
 294 370 294 370 326 342 c 0,2,3
 349 321 349 321 364.5 311 c 128,-1,4
 380 301 380 301 398 301 c 0,5,6
 451 301 451 301 497 386 c 1,7,-1
 557 354 l 1,8,9
 527 298 527 298 490.5 263 c 128,-1,10
 454 228 454 228 395 228 c 0,11,12
 361 228 361 228 336.5 242.5 c 128,-1,13
 312 257 312 257 279 285 c 1,14,15
 256 307 256 307 239 317.5 c 128,-1,16
 222 328 222 328 202 328 c 0,17,18
 172 328 172 328 148.5 305.5 c 128,-1,19
 125 283 125 283 103 243 c 1,20,-1
 43 273 l 1,21,22
 73 331 73 331 109.5 366 c 128,-1,23
 146 401 146 401 205 401 c 0,24,0
 242 401 242 401 268 385.5 c 128,-1,1
EndSplineSet
EndChar
StartChar: sterling
Encoding: 163 163 1064
Width: 600
Flags: W
LayerCount: 2
Fore
SplineSet
525 613 m 1,1,-1
 469 570 l 1,2,3
 444 601 444 601 415 615 c 128,-1,4
 386 629 386 629 349 629 c 0,5,6
 296 629 296 629 268.5 598.5 c 128,-1,7
 241 568 241 568 241 508 c 2,8,-1
 241 387 l 1,9,-1
 447 387 l 1,10,-1
 447 329 l 1,11,-1
 241 329 l 1,12,-1
 241 205 l 2,13,14
 241 158 241 158 228 125 c 128,-1,15
 215 92 215 92 179 72 c 1,16,-1
 517 72 l 1,17,-1
 507 0 l 1,18,-1
 75 0 l 1,19,-1
 75 68 l 1,20,21
 112 80 112 80 129.5 98.5 c 128,-1,22
 147 117 147 117 151.5 140 c 128,-1,23
 156 163 156 163 156 201 c 2,24,-1
 156 329 l 1,25,-1
 74 329 l 1,26,-1
 74 387 l 1,27,-1
 156 387 l 1,28,-1
 156 515 l 2,29,30
 156 568 156 568 179 610 c 128,-1,31
 202 652 202 652 245 676 c 128,-1,32
 288 700 288 700 346 700 c 0,33,0
 463 700 463 700 525 613 c 1,1,-1
EndSplineSet
EndChar
StartChar: currency
Encoding: 164 164 1056
Width: 600
Flags: W
LayerCount: 2
Fore
SplineSet
177 520 m 1,0,1
 232 553 232 553 301 553 c 0,2,3
 374 553 374 553 422 520 c 1,4,-1
 511 609 l 1,5,-1
 566 555 l 1,6,-1
 479 467 l 1,7,8
 515 413 515 413 515 342 c 0,9,10
 515 274 515 274 478 215 c 1,11,-1
 566 128 l 1,12,-1
 511 74 l 1,13,-1
 421 162 l 1,14,15
 371 130 371 130 301 130 c 0,16,17
 230 130 230 130 178 162 c 1,18,-1
 89 73 l 1,19,-1
 34 127 l 1,20,-1
 123 216 l 1,21,22
 88 272 88 272 88 342 c 256,23,24
 88 412 88 412 122 465 c 1,25,-1
 34 556 l 1,26,-1
 89 610 l 1,27,-1
 177 520 l 1,0,1
206 448 m 128,-1,29
 173 410 173 410 173 342 c 256,30,31
 173 274 173 274 206 236.5 c 128,-1,32
 239 199 239 199 301 199 c 256,33,34
 363 199 363 199 395.5 236.5 c 128,-1,35
 428 274 428 274 428 342 c 256,36,37
 428 410 428 410 395.5 448 c 128,-1,38
 363 486 363 486 301 486 c 256,39,28
 239 486 239 486 206 448 c 128,-1,29
EndSplineSet
EndChar
StartChar: section
Encoding: 167 167 1382
Width: 600
Flags: W
LayerCount: 2
Fore
SplineSet
408.5 686 m 128,-1,1
 448 672 448 672 484 646 c 1,2,-1
 444 589 l 1,3,4
 412 611 412 611 382 621 c 128,-1,5
 352 631 352 631 311 631 c 0,6,7
 268 631 268 631 242 612 c 128,-1,8
 216 593 216 593 216 561 c 0,9,10
 216 537 216 537 226 522 c 128,-1,11
 236 507 236 507 262 493.5 c 128,-1,12
 288 480 288 480 340 462 c 1,13,14
 423 435 423 435 458 401 c 128,-1,15
 493 367 493 367 493 310 c 0,16,17
 493 271 493 271 471 238.5 c 128,-1,18
 449 206 449 206 413 184 c 1,19,20
 472 140 472 140 472 76 c 0,21,22
 472 9 472 9 418.5 -30 c 128,-1,23
 365 -69 365 -69 279 -69 c 0,24,25
 181 -69 181 -69 108 -15 c 1,26,-1
 148 42 l 1,27,28
 179 20 179 20 211 9.5 c 128,-1,29
 243 -1 243 -1 284 -1 c 0,30,31
 327 -1 327 -1 355.5 18.5 c 128,-1,32
 384 38 384 38 384 70 c 0,33,34
 384 93 384 93 374 108.5 c 128,-1,35
 364 124 364 124 338 137 c 128,-1,36
 312 150 312 150 260 167 c 0,37,38
 177 195 177 195 141.5 228.5 c 128,-1,39
 106 262 106 262 106 320 c 0,40,41
 106 358 106 358 128.5 390.5 c 128,-1,42
 151 423 151 423 187 445 c 1,43,44
 128 490 128 490 128 554 c 0,45,46
 128 620 128 620 182.5 660 c 128,-1,47
 237 700 237 700 317 700 c 0,48,0
 369 700 369 700 408.5 686 c 128,-1,1
202.5 375 m 128,-1,50
 190 352 190 352 190 331 c 0,51,52
 190 303 190 303 202.5 287 c 128,-1,53
 215 271 215 271 243 258.5 c 128,-1,54
 271 246 271 246 342 220 c 0,55,56
 346 219 346 219 350.5 217 c 128,-1,57
 355 215 355 215 361 213 c 1,58,59
 384 232 384 232 397 254.5 c 128,-1,60
 410 277 410 277 410 299 c 0,61,62
 410 327 410 327 396.5 343 c 128,-1,63
 383 359 383 359 353 372 c 128,-1,64
 323 385 323 385 239 416 c 1,65,49
 215 398 215 398 202.5 375 c 128,-1,50
EndSplineSet
EndChar
StartChar: copyright
Encoding: 169 169 1380
Width: 600
Flags: W
LayerCount: 2
Fore
SplineSet
446 705.5 m 128,-1,1
 507 664 507 664 539 593 c 128,-1,2
 571 522 571 522 571 435 c 256,3,4
 571 348 571 348 539 277.5 c 128,-1,5
 507 207 507 207 446 166 c 128,-1,6
 385 125 385 125 301 125 c 256,7,8
 217 125 217 125 155.5 166 c 128,-1,9
 94 207 94 207 61.5 278 c 128,-1,10
 29 349 29 349 29 435 c 0,11,12
 29 522 29 522 61.5 593 c 128,-1,13
 94 664 94 664 155.5 705.5 c 128,-1,14
 217 747 217 747 301 747 c 256,15,0
 385 747 385 747 446 705.5 c 128,-1,1
182.5 662.5 m 128,-1,17
 134 628 134 628 109.5 568.5 c 128,-1,18
 85 509 85 509 85 435 c 256,19,20
 85 361 85 361 109.5 302.5 c 128,-1,21
 134 244 134 244 182.5 210 c 128,-1,22
 231 176 231 176 301 176 c 256,23,24
 371 176 371 176 419.5 210 c 128,-1,25
 468 244 468 244 492 302.5 c 128,-1,26
 516 361 516 361 516 435 c 256,27,28
 516 509 516 509 492 568.5 c 128,-1,29
 468 628 468 628 419.5 662.5 c 128,-1,30
 371 697 371 697 301 697 c 256,31,16
 231 697 231 697 182.5 662.5 c 128,-1,17
368 616 m 128,-1,33
 394 607 394 607 422 586 c 1,34,-1
 386 539 l 1,35,36
 347 569 347 569 308 569 c 0,37,38
 266 569 266 569 240 536.5 c 128,-1,39
 214 504 214 504 214 436 c 0,40,41
 214 372 214 372 239 339.5 c 128,-1,42
 264 307 264 307 308 307 c 0,43,44
 356 307 356 307 394 342 c 1,45,-1
 427 294 l 1,46,47
 374 247 374 247 305 247 c 0,48,49
 232 247 232 247 187 297 c 128,-1,50
 142 347 142 347 142 436 c 0,51,52
 142 496 142 496 164 538.5 c 128,-1,53
 186 581 186 581 223 603 c 128,-1,54
 260 625 260 625 304 625 c 0,55,32
 342 625 342 625 368 616 c 128,-1,33
EndSplineSet
EndChar
StartChar: guillemotleft
Encoding: 171 171 1031
Width: 600
Flags: W
LayerCount: 2
Fore
SplineSet
258 55 m 1,0,-1
 82 263 l 1,1,-1
 82 324 l 1,2,-1
 258 532 l 1,3,-1
 309 500 l 1,4,-1
 173 294 l 1,5,-1
 309 87 l 1,6,-1
 258 55 l 1,0,-1
466 55 m 1,7,-1
 289 263 l 1,8,-1
 289 324 l 1,9,-1
 466 532 l 1,10,-1
 517 500 l 1,11,-1
 381 294 l 1,12,-1
 517 87 l 1,13,-1
 466 55 l 1,7,-1
EndSplineSet
EndChar
StartChar: uni00AD
Encoding: 173 173 1025
Width: 600
Flags: W
LayerCount: 2
Fore
SplineSet
144 349 m 1,0,-1
 456 349 l 1,1,-1
 456 277 l 1,2,-1
 144 277 l 1,3,-1
 144 349 l 1,0,-1
EndSplineSet
EndChar
StartChar: registered
Encoding: 174 174 1381
Width: 600
Flags: W
LayerCount: 2
Fore
SplineSet
427 712.5 m 128,-1,1
 485 678 485 678 519 619.5 c 128,-1,2
 553 561 553 561 553 492 c 256,3,4
 553 423 553 423 519 365 c 128,-1,5
 485 307 485 307 427 273 c 128,-1,6
 369 239 369 239 300 239 c 256,7,8
 231 239 231 239 172.5 273 c 128,-1,9
 114 307 114 307 80 365 c 128,-1,10
 46 423 46 423 46 492 c 256,11,12
 46 561 46 561 80 619.5 c 128,-1,13
 114 678 114 678 172.5 712.5 c 128,-1,14
 231 747 231 747 300 747 c 256,15,0
 369 747 369 747 427 712.5 c 128,-1,1
198 672 m 128,-1,17
 152 644 152 644 125.5 596 c 128,-1,18
 99 548 99 548 99 492 c 0,19,20
 99 435 99 435 125.5 388 c 128,-1,21
 152 341 152 341 198 313.5 c 128,-1,22
 244 286 244 286 300 286 c 256,23,24
 356 286 356 286 402 313.5 c 128,-1,25
 448 341 448 341 474 388 c 128,-1,26
 500 435 500 435 500 492 c 256,27,28
 500 549 500 549 474 596.5 c 128,-1,29
 448 644 448 644 402 672 c 128,-1,30
 356 700 356 700 300 700 c 256,31,16
 244 700 244 700 198 672 c 128,-1,17
408 551 m 0,33,34
 408 521 408 521 390 501 c 128,-1,35
 372 481 372 481 341 472 c 1,36,-1
 427 354 l 1,37,-1
 361 354 l 1,38,-1
 286 463 l 1,39,-1
 257 463 l 1,40,-1
 257 354 l 1,41,-1
 201 354 l 1,42,-1
 201 636 l 1,43,-1
 286 636 l 2,44,32
 408 636 408 636 408 551 c 0,33,34
257 592 m 1,45,-1
 257 506 l 1,46,-1
 289 506 l 2,47,48
 350 506 350 506 350 551 c 0,49,50
 350 592 350 592 287 592 c 2,51,-1
 257 592 l 1,45,-1
EndSplineSet
EndChar
StartChar: degree
Encoding: 176 176 1384
Width: 600
Flags: W
LayerCount: 2
Fore
SplineSet
307.5 730.5 m 128,-1,1
 345 712 345 712 367.5 676.5 c 128,-1,2
 390 641 390 641 390 592 c 0,3,4
 390 544 390 544 367.5 508.5 c 128,-1,5
 345 473 345 473 307.5 454.5 c 128,-1,6
 270 436 270 436 228 436 c 0,7,8
 185 436 185 436 148 454.5 c 128,-1,9
 111 473 111 473 88 509 c 128,-1,10
 65 545 65 545 65 593 c 256,11,12
 65 641 65 641 88 676.5 c 128,-1,13
 111 712 111 712 148.5 730.5 c 128,-1,14
 186 749 186 749 228 749 c 256,15,0
 270 749 270 749 307.5 730.5 c 128,-1,1
165 664.5 m 128,-1,17
 139 640 139 640 139 593 c 256,18,19
 139 546 139 546 165 520.5 c 128,-1,20
 191 495 191 495 228 495 c 256,21,22
 265 495 265 495 291 520 c 128,-1,23
 317 545 317 545 317 592 c 256,24,25
 317 639 317 639 291 664 c 128,-1,26
 265 689 265 689 228 689 c 256,27,16
 191 689 191 689 165 664.5 c 128,-1,17
EndSplineSet
EndChar
StartChar: plusminus
Encoding: 177 177 1106
Width: 600
Flags: W
LayerCount: 2
Fore
SplineSet
340 389 m 1,0,-1
 484 389 l 1,1,-1
 484 318 l 1,2,-1
 340 318 l 1,3,-1
 340 163 l 1,4,-1
 260 163 l 1,5,-1
 260 318 l 1,6,-1
 116 318 l 1,7,-1
 116 389 l 1,8,-1
 260 389 l 1,9,-1
 260 538 l 1,10,-1
 340 538 l 1,11,-1
 340 389 l 1,0,-1
484 0 m 1,12,-1
 116 0 l 1,13,-1
 116 73 l 1,14,-1
 484 73 l 1,15,-1
 484 0 l 1,12,-1
EndSplineSet
EndChar
StartChar: uni00B5
Encoding: 181 181 1095
Width: 600
Flags: W
LayerCount: 2
Fore
SplineSet
484 168 m 2,0,1
 484 90 484 90 511 0 c 1,2,-1
 432 -12 l 1,3,4
 425 1 425 1 417.5 27 c 128,-1,5
 410 53 410 53 408 73 c 1,6,7
 385 35 385 35 346 11.5 c 128,-1,8
 307 -12 307 -12 267 -12 c 256,9,10
 227 -12 227 -12 205 -0.5 c 128,-1,11
 183 11 183 11 163 39 c 1,12,13
 172 -26 172 -26 172 -49 c 2,14,-1
 172 -202 l 1,15,-1
 88 -212 l 1,16,-1
 88 527 l 1,17,-1
 172 527 l 1,18,-1
 172 231 l 2,19,20
 172 171 172 171 178 136.5 c 128,-1,21
 184 102 184 102 203.5 82.5 c 128,-1,22
 223 63 223 63 261 63 c 0,23,24
 305 63 305 63 340 85 c 128,-1,25
 375 107 375 107 400 142 c 1,26,-1
 400 527 l 1,27,-1
 484 527 l 1,28,-1
 484 168 l 2,0,1
EndSplineSet
EndChar
StartChar: paragraph
Encoding: 182 182 1379
Width: 600
Flags: W
LayerCount: 2
Fore
SplineSet
556 -201 m 1,0,-1
 479 -212 l 1,1,-1
 479 619 l 1,2,-1
 367 619 l 1,3,-1
 367 -201 l 1,4,-1
 290 -212 l 1,5,-1
 290 289 l 1,6,7
 211 289 211 289 155 315 c 128,-1,8
 99 341 99 341 71 386 c 128,-1,9
 43 431 43 431 43 487 c 0,10,11
 43 545 43 545 72 590.5 c 128,-1,12
 101 636 101 636 158.5 662.5 c 128,-1,13
 216 689 216 689 297 689 c 2,14,-1
 556 689 l 1,15,-1
 556 -201 l 1,0,-1
EndSplineSet
EndChar
StartChar: questiondown
Encoding: 191 191 989
Width: 600
Flags: W
LayerCount: 2
Fore
SplineSet
371.5 479 m 128,-1,1
 391 459 391 459 391 431 c 256,2,3
 391 403 391 403 371.5 384 c 128,-1,4
 352 365 352 365 324 365 c 256,5,6
 296 365 296 365 276.5 384 c 128,-1,7
 257 403 257 403 257 431 c 0,8,9
 257 460 257 460 276.5 479.5 c 128,-1,10
 296 499 296 499 324 499 c 256,11,0
 352 499 352 499 371.5 479 c 128,-1,1
370 222 m 2,12,13
 370 181 370 181 356 150.5 c 128,-1,14
 342 120 342 120 321.5 100.5 c 128,-1,15
 301 81 301 81 269 57 c 0,16,17
 230 28 230 28 211 5 c 128,-1,18
 192 -18 192 -18 192 -52 c 0,19,20
 192 -94 192 -94 225 -118 c 128,-1,21
 258 -142 258 -142 310 -142 c 0,22,23
 348 -142 348 -142 385.5 -123.5 c 128,-1,24
 423 -105 423 -105 452 -68 c 1,25,-1
 512 -113 l 1,26,27
 428 -212 428 -212 302 -212 c 0,28,29
 243 -212 243 -212 198 -190 c 128,-1,30
 153 -168 153 -168 129 -132.5 c 128,-1,31
 105 -97 105 -97 105 -57 c 0,32,33
 105 -19 105 -19 117.5 7.5 c 128,-1,34
 130 34 130 34 148.5 51.5 c 128,-1,35
 167 69 167 69 198 91 c 0,36,37
 241 123 241 123 263 151 c 128,-1,38
 285 179 285 179 285 226 c 2,39,-1
 285 260 l 1,40,-1
 370 260 l 1,41,-1
 370 222 l 2,12,13
EndSplineSet
EndChar
StartChar: AE
Encoding: 198 198 14
Width: 600
Flags: W
LayerCount: 2
Fore
SplineSet
126 175 m 1,0,-1
 77 0 l 1,1,-1
 -12 0 l 1,2,-1
 190 689 l 1,3,-1
 566 689 l 1,4,-1
 556 618 l 1,5,-1
 320 618 l 1,6,-1
 371 385 l 1,7,-1
 557 385 l 1,8,-1
 557 314 l 1,9,-1
 384 314 l 1,10,-1
 436 71 l 1,11,-1
 607 71 l 1,12,-1
 607 0 l 1,13,-1
 366 0 l 1,14,-1
 330 175 l 1,15,-1
 126 175 l 1,0,-1
314 248 m 1,16,-1
 241 620 l 1,17,-1
 148 248 l 1,18,-1
 314 248 l 1,16,-1
EndSplineSet
EndChar
StartChar: Eth
Encoding: 208 208 24
Width: 600
Flags: W
LayerCount: 2
Fore
SplineSet
473 616 m 128,-1,1
 562 543 562 543 562 348 c 0,2,3
 562 152 562 152 472.5 76 c 128,-1,4
 383 0 383 0 251 0 c 2,5,-1
 93 0 l 1,6,-1
 93 320 l 1,7,-1
 20 320 l 1,8,-1
 20 386 l 1,9,-1
 93 386 l 1,10,-1
 93 689 l 1,11,-1
 240 689 l 2,12,0
 384 689 384 689 473 616 c 128,-1,1
410.5 131.5 m 128,-1,14
 470 193 470 193 470 348 c 0,15,16
 470 509 470 509 411 563.5 c 128,-1,17
 352 618 352 618 261 618 c 2,18,-1
 180 618 l 1,19,-1
 180 386 l 1,20,-1
 338 386 l 1,21,-1
 338 320 l 1,22,-1
 180 320 l 1,23,-1
 180 70 l 1,24,-1
 262 70 l 2,25,13
 351 70 351 70 410.5 131.5 c 128,-1,14
EndSplineSet
EndChar
StartChar: multiply
Encoding: 215 215 1099
Width: 600
Flags: W
LayerCount: 2
Fore
SplineSet
475 430 m 1,0,-1
 352 307 l 1,1,-1
 475 184 l 1,2,-1
 423 132 l 1,3,-1
 300 255 l 1,4,-1
 177 132 l 1,5,-1
 125 184 l 1,6,-1
 248 307 l 1,7,-1
 125 430 l 1,8,-1
 177 483 l 1,9,-1
 300 359 l 1,10,-1
 423 483 l 1,11,-1
 475 430 l 1,0,-1
EndSplineSet
EndChar
StartChar: ccedilla
Encoding: 231 231 152
Width: 600
Flags: W
LayerCount: 2
Fore
SplineSet
428.5 -84.5 m 128,-1,1
 452 -108 452 -108 452 -140 c 0,2,3
 452 -187 452 -187 416.5 -212.5 c 128,-1,4
 381 -238 381 -238 330 -238 c 0,5,6
 300 -238 300 -238 272.5 -231.5 c 128,-1,7
 245 -225 245 -225 225 -214 c 1,8,-1
 252 -166 l 1,9,10
 282 -182 282 -182 319 -182 c 0,11,12
 379 -182 379 -182 379 -141 c 0,13,14
 379 -115 379 -115 358 -106 c 128,-1,15
 337 -97 337 -97 293 -97 c 1,16,-1
 299 -9 l 1,17,18
 200 4 200 4 145.5 75.5 c 128,-1,19
 91 147 91 147 91 261 c 0,20,21
 91 340 91 340 120.5 403 c 128,-1,22
 150 466 150 466 206 502 c 128,-1,23
 262 538 262 538 339 538 c 0,24,25
 441 538 441 538 515 476 c 1,26,-1
 474 421 l 1,27,28
 405 467 405 467 338 467 c 0,29,30
 267 467 267 467 224.5 414.5 c 128,-1,31
 182 362 182 362 182 261 c 256,32,33
 182 160 182 160 224.5 110.5 c 128,-1,34
 267 61 267 61 339 61 c 0,35,36
 408 61 408 61 476 107 c 1,37,-1
 516 52 l 1,38,39
 487 26 487 26 444.5 9.5 c 128,-1,40
 402 -7 402 -7 359 -11 c 1,41,-1
 359 -57 l 1,42,0
 405 -61 405 -61 428.5 -84.5 c 128,-1,1
EndSplineSet
EndChar
StartChar: eth
Encoding: 240 240 156
Width: 600
Flags: W
LayerCount: 2
Fore
SplineSet
250 647 m 1,0,1
 201 670 201 670 133 683 c 1,2,-1
 152 749 l 1,3,4
 244 730 244 730 301 700 c 1,5,-1
 371 773 l 1,6,-1
 422 729 l 1,7,-1
 360 665 l 1,8,9
 449 604 449 604 490.5 506 c 128,-1,10
 532 408 532 408 532 264 c 0,11,12
 532 180 532 180 502.5 118 c 128,-1,13
 473 56 473 56 419.5 22.5 c 128,-1,14
 366 -11 366 -11 295 -11 c 0,15,16
 231 -11 231 -11 179 18 c 128,-1,17
 127 47 127 47 97 102.5 c 128,-1,18
 67 158 67 158 67 235 c 0,19,20
 67 307 67 307 96 363 c 128,-1,21
 125 419 125 419 174 450 c 128,-1,22
 223 481 223 481 280 481 c 0,23,24
 377 481 377 481 437 412 c 1,25,26
 424 475 424 475 390.5 526 c 128,-1,27
 357 577 357 577 308 612 c 1,28,-1
 229 532 l 1,29,-1
 170 562 l 1,30,-1
 250 647 l 1,0,1
444 332 m 1,32,33
 419 372 419 372 379 393 c 128,-1,34
 339 414 339 414 290 414 c 0,35,36
 231 414 231 414 192 369.5 c 128,-1,37
 153 325 153 325 153 239 c 0,38,39
 153 152 153 152 191.5 104.5 c 128,-1,40
 230 57 230 57 294 57 c 0,41,42
 365 57 365 57 406.5 111.5 c 128,-1,43
 448 166 448 166 448 267 c 0,44,31
 448 292 448 292 444 332 c 1,32,33
EndSplineSet
EndChar
StartChar: Aogonek
Encoding: 260 260 11
Width: 600
Flags: W
LayerCount: 2
Fore
SplineSet
441 -58 m 128,-1,1
 415 -85 415 -85 415 -114 c 0,2,3
 415 -138 415 -138 428 -150 c 128,-1,4
 441 -162 441 -162 471 -162 c 0,5,6
 498 -162 498 -162 532 -155 c 1,7,-1
 524 -223 l 1,8,9
 482 -229 482 -229 460 -229 c 0,10,11
 404 -229 404 -229 371 -201.5 c 128,-1,12
 338 -174 338 -174 338 -131 c 0,13,14
 338 -37 338 -37 483 17 c 1,15,-1
 434 176 l 1,16,-1
 161 176 l 1,17,-1
 106 0 l 1,18,-1
 20 0 l 1,19,-1
 245 689 l 1,20,-1
 355 689 l 1,21,-1
 579 0 l 1,22,-1
 539 0 l 1,23,0
 467 -31 467 -31 441 -58 c 128,-1,1
411 248 m 1,24,-1
 298 615 l 1,25,-1
 184 248 l 1,26,-1
 411 248 l 1,24,-1
EndSplineSet
Colour: ff0000
EndChar
StartChar: dcroat
Encoding: 273 273 158
Width: 600
Flags: W
LayerCount: 2
Fore
SplineSet
581 597 m 1,0,-1
 502 597 l 1,1,-1
 502 0 l 1,2,-1
 428 0 l 1,3,-1
 420 69 l 1,4,5
 363 -11 363 -11 271 -11 c 0,6,7
 171 -11 171 -11 120.5 62 c 128,-1,8
 70 135 70 135 70 263 c 0,9,10
 70 342 70 342 95 404.5 c 128,-1,11
 120 467 120 467 166.5 502.5 c 128,-1,12
 213 538 213 538 277 538 c 0,13,14
 364 538 364 538 418 475 c 1,15,-1
 418 597 l 1,16,-1
 247 597 l 1,17,-1
 247 665 l 1,18,-1
 418 665 l 1,19,-1
 418 749 l 1,20,-1
 502 739 l 1,21,-1
 502 665 l 1,22,-1
 581 665 l 1,23,-1
 581 597 l 1,0,-1
418 402 m 1,24,25
 396 435 396 435 365 452.5 c 128,-1,26
 334 470 334 470 298 470 c 0,27,28
 232 470 232 470 197 418 c 128,-1,29
 162 366 162 366 162 263 c 0,30,31
 162 161 162 161 194 108.5 c 128,-1,32
 226 56 226 56 288 56 c 0,33,34
 363 56 363 56 418 140 c 1,35,-1
 418 402 l 1,24,25
EndSplineSet
Colour: ff0000
EndChar
StartChar: gcommaaccent
Encoding: 291 291 173
Width: 600
Flags: W
LayerCount: 2
Fore
SplineSet
251 613.5 m 128,-1,1
 235 629 235 629 235 651 c 0,2,3
 235 672 235 672 250 706 c 1,4,-1
 301 813 l 1,5,-1
 351 813 l 1,6,-1
 322 696 l 1,7,8
 344 679 344 679 344 651 c 0,9,10
 344 628 344 628 328.5 613 c 128,-1,11
 313 598 313 598 290 598 c 256,12,0
 267 598 267 598 251 613.5 c 128,-1,1
554 503 m 1,13,14
 524 493 524 493 489 490.5 c 128,-1,15
 454 488 454 488 400 488 c 1,16,17
 492 446 492 446 492 355 c 0,18,19
 492 275 492 275 439 225.5 c 128,-1,20
 386 176 386 176 294 176 c 0,21,22
 247 176 247 176 215 187 c 1,23,24
 203 178 203 178 195.5 164 c 128,-1,25
 188 150 188 150 188 136 c 0,26,27
 188 91 188 91 258 91 c 2,28,-1
 353 91 l 2,29,30
 405 91 405 91 447.5 72.5 c 128,-1,31
 490 54 490 54 514.5 21 c 128,-1,32
 539 -12 539 -12 539 -52 c 0,33,34
 539 -129 539 -129 473.5 -170.5 c 128,-1,35
 408 -212 408 -212 288 -212 c 0,36,37
 166 -212 166 -212 116 -174 c 128,-1,38
 66 -136 66 -136 66 -53 c 1,39,-1
 142 -53 l 1,40,41
 142 -86 142 -86 154.5 -105.5 c 128,-1,42
 167 -125 167 -125 198.5 -134.5 c 128,-1,43
 230 -144 230 -144 288 -144 c 0,44,45
 373 -144 373 -144 413.5 -122 c 128,-1,46
 454 -100 454 -100 454 -57 c 0,47,48
 454 -21 454 -21 421 -1.5 c 128,-1,49
 388 18 388 18 336 18 c 2,50,-1
 242 18 l 2,51,52
 177 18 177 18 143 46.5 c 128,-1,53
 109 75 109 75 109 118 c 0,54,55
 109 143 109 143 124 167.5 c 128,-1,56
 139 192 139 192 167 210 c 1,57,58
 122 233 122 233 100.5 268.5 c 128,-1,59
 79 304 79 304 79 355 c 0,60,61
 79 408 79 408 105.5 449.5 c 128,-1,62
 132 491 132 491 179.5 514.5 c 128,-1,63
 227 538 227 538 289 538 c 0,64,65
 379 538 379 538 426 548 c 128,-1,66
 473 558 473 558 529 582 c 1,67,-1
 554 503 l 1,13,14
196 443.5 m 128,-1,69
 165 411 165 411 165 355 c 256,70,71
 165 299 165 299 196.5 265.5 c 128,-1,72
 228 232 228 232 290 232 c 0,73,74
 346 232 346 232 375.5 264.5 c 128,-1,75
 405 297 405 297 405 356 c 0,76,77
 405 476 405 476 288 476 c 0,78,68
 227 476 227 476 196 443.5 c 128,-1,69
EndSplineSet
Colour: ff0000
EndChar
StartChar: hbar
Encoding: 295 295 176
Width: 600
Flags: W
LayerCount: 2
Fore
SplineSet
501 382 m 2,1,-1
 501 0 l 1,2,-1
 417 0 l 1,3,-1
 417 381 l 2,4,5
 417 428 417 428 395 449.5 c 128,-1,6
 373 471 373 471 325 471 c 0,7,8
 284 471 284 471 246 445 c 128,-1,9
 208 419 208 419 184 384 c 1,10,-1
 184 0 l 1,11,-1
 100 0 l 1,12,-1
 100 597 l 1,13,-1
 19 597 l 1,14,-1
 19 665 l 1,15,-1
 100 665 l 1,16,-1
 100 738 l 1,17,-1
 184 747 l 1,18,-1
 184 665 l 1,19,-1
 353 665 l 1,20,-1
 353 597 l 1,21,-1
 184 597 l 1,22,-1
 184 454 l 1,23,24
 215 494 215 494 260 516 c 128,-1,25
 305 538 305 538 353 538 c 0,26,0
 501 538 501 538 501 382 c 2,1,-1
EndSplineSet
Colour: ff0000
EndChar
StartChar: iogonek
Encoding: 303 303 188
Width: 600
Flags: W
LayerCount: 2
Fore
SplineSet
256.5 671.5 m 128,-1,1
 240 688 240 688 240 714 c 256,2,3
 240 740 240 740 256.5 756.5 c 128,-1,4
 273 773 273 773 300 773 c 256,5,6
 327 773 327 773 344 756.5 c 128,-1,7
 361 740 361 740 361 714 c 256,8,9
 361 688 361 688 344 671.5 c 128,-1,10
 327 655 327 655 300 655 c 256,11,0
 273 655 273 655 256.5 671.5 c 128,-1,1
515 67 m 1,12,-1
 515 0 l 1,13,-1
 367 0 l 1,14,15
 295 -31 295 -31 269 -58 c 128,-1,16
 243 -85 243 -85 243 -114 c 0,17,18
 243 -138 243 -138 256 -150 c 128,-1,19
 269 -162 269 -162 299 -162 c 0,20,21
 326 -162 326 -162 360 -155 c 1,22,-1
 352 -223 l 1,23,24
 310 -229 310 -229 288 -229 c 0,25,26
 232 -229 232 -229 199 -201.5 c 128,-1,27
 166 -174 166 -174 166 -131 c 0,28,29
 166 -51 166 -51 271 0 c 1,30,-1
 121 0 l 1,31,-1
 121 67 l 1,32,-1
 283 67 l 1,33,-1
 283 460 l 1,34,-1
 126 460 l 1,35,-1
 126 527 l 1,36,-1
 367 527 l 1,37,-1
 367 67 l 1,38,-1
 515 67 l 1,12,-1
EndSplineSet
Colour: ff0000
EndChar
StartChar: dotlessi
Encoding: 305 305 179
Width: 600
Flags: W
LayerCount: 2
Fore
SplineSet
367 67 m 1,0,-1
 515 67 l 1,1,-1
 515 0 l 1,2,-1
 121 0 l 1,3,-1
 121 67 l 1,4,-1
 283 67 l 1,5,-1
 283 460 l 1,6,-1
 126 460 l 1,7,-1
 126 527 l 1,8,-1
 367 527 l 1,9,-1
 367 67 l 1,0,-1
EndSplineSet
EndChar
StartChar: IJ
Encoding: 306 306 47
Width: 600
Flags: W
LayerCount: 2
Fore
SplineSet
348 -27.5 m 128,-1,1
 403 6 403 6 424 59.5 c 128,-1,2
 445 113 445 113 445 193 c 2,3,-1
 445 617 l 1,4,-1
 201 617 l 1,5,-1
 201 72 l 1,6,-1
 281 72 l 1,7,-1
 281 0 l 1,8,-1
 11 0 l 1,9,-1
 11 72 l 1,10,-1
 111 72 l 1,11,-1
 111 617 l 1,12,-1
 11 617 l 1,13,-1
 11 689 l 1,14,-1
 532 689 l 1,15,-1
 532 188 l 2,16,17
 532 53 532 53 460 -33 c 128,-1,18
 388 -119 388 -119 204 -136 c 1,19,-1
 194 -71 l 1,20,0
 293 -61 293 -61 348 -27.5 c 128,-1,1
EndSplineSet
Colour: ff0000
EndChar
StartChar: Lslash
Encoding: 321 321 66
Width: 600
Flags: W
LayerCount: 2
Fore
SplineSet
535 77 m 1,0,-1
 525 0 l 1,1,-1
 134 0 l 1,2,-1
 134 268 l 1,3,-1
 77 232 l 1,4,-1
 40 289 l 1,5,-1
 134 346 l 1,6,-1
 134 689 l 1,7,-1
 220 689 l 1,8,-1
 220 399 l 1,9,-1
 385 502 l 1,10,-1
 422 446 l 1,11,-1
 220 321 l 1,12,-1
 220 77 l 1,13,-1
 535 77 l 1,0,-1
EndSplineSet
Colour: ff0000
EndChar
StartChar: lslash
Encoding: 322 322 201
Width: 600
Flags: W
LayerCount: 2
Fore
SplineSet
503 16 m 1,0,1
 453 -11 453 -11 378 -11 c 0,2,3
 307 -11 307 -11 264.5 28 c 128,-1,4
 222 67 222 67 222 134 c 2,5,-1
 222 306 l 1,6,-1
 154 265 l 1,7,-1
 118 319 l 1,8,-1
 222 381 l 1,9,-1
 222 672 l 1,10,-1
 60 672 l 1,11,-1
 60 739 l 1,12,-1
 306 739 l 1,13,-1
 306 433 l 1,14,-1
 395 489 l 1,15,-1
 431 435 l 1,16,-1
 306 357 l 1,17,-1
 306 130 l 2,18,19
 306 59 306 59 393 59 c 0,20,21
 434 59 434 59 481 77 c 1,22,-1
 503 16 l 1,0,1
EndSplineSet
Colour: ff0000
EndChar
StartChar: oe
Encoding: 339 339 221
Width: 600
Flags: W
LayerCount: 2
Fore
SplineSet
574.5 471 m 128,-1,1
 615 404 615 404 615 279 c 0,2,3
 615 257 615 257 613 233 c 1,4,-1
 350 233 l 1,5,6
 357 142 357 142 382.5 100.5 c 128,-1,7
 408 59 408 59 460 59 c 0,8,9
 486 59 486 59 507.5 68.5 c 128,-1,10
 529 78 529 78 556 99 c 1,11,-1
 595 41 l 1,12,13
 563 15 563 15 530.5 2 c 128,-1,14
 498 -11 498 -11 458 -11 c 0,15,16
 404 -11 404 -11 366.5 15 c 128,-1,17
 329 41 329 41 309 90 c 1,18,19
 289 41 289 41 255.5 15 c 128,-1,20
 222 -11 222 -11 167 -11 c 0,21,22
 82 -11 82 -11 40 61.5 c 128,-1,23
 -2 134 -2 134 -2 263 c 0,24,25
 -2 391 -2 391 39.5 464.5 c 128,-1,26
 81 538 81 538 167 538 c 0,27,28
 226 538 226 538 258.5 511.5 c 128,-1,29
 291 485 291 485 309 435 c 1,30,31
 351 538 351 538 449 538 c 0,32,0
 534 538 534 538 574.5 471 c 128,-1,1
108 420 m 128,-1,34
 87 370 87 370 87 263 c 0,35,36
 87 154 87 154 108 106 c 128,-1,37
 129 58 129 58 178 58 c 0,38,39
 211 58 211 58 230 78 c 128,-1,40
 249 98 249 98 257.5 142.5 c 128,-1,41
 266 187 266 187 266 264 c 0,42,43
 266 371 266 371 245.5 420.5 c 128,-1,44
 225 470 225 470 178 470 c 0,45,33
 129 470 129 470 108 420 c 128,-1,34
378.5 430 m 128,-1,47
 356 392 356 392 350 299 c 1,48,-1
 533 299 l 1,49,50
 531 386 531 386 512.5 427 c 128,-1,51
 494 468 494 468 447 468 c 0,52,46
 401 468 401 468 378.5 430 c 128,-1,47
EndSplineSet
EndChar
StartChar: Scedilla
Encoding: 350 350 96
Width: 600
Flags: W
LayerCount: 2
Fore
SplineSet
479 51.5 m 128,-1,1
 421 -3 421 -3 317 -10 c 1,2,-1
 317 -57 l 1,3,4
 363 -61 363 -61 386.5 -84.5 c 128,-1,5
 410 -108 410 -108 410 -140 c 0,6,7
 410 -187 410 -187 374.5 -212.5 c 128,-1,8
 339 -238 339 -238 288 -238 c 0,9,10
 258 -238 258 -238 230.5 -231.5 c 128,-1,11
 203 -225 203 -225 183 -214 c 1,12,-1
 210 -166 l 1,13,14
 240 -182 240 -182 277 -182 c 0,15,16
 337 -182 337 -182 337 -141 c 0,17,18
 337 -115 337 -115 316 -106 c 128,-1,19
 295 -97 295 -97 251 -97 c 1,20,-1
 257 -11 l 1,21,22
 126 -2 126 -2 43 76 c 1,23,-1
 95 135 l 1,24,25
 133 99 133 99 179.5 80 c 128,-1,26
 226 61 226 61 286 61 c 0,27,28
 354 61 354 61 400 94 c 128,-1,29
 446 127 446 127 446 189 c 0,30,31
 446 224 446 224 433 247 c 128,-1,32
 420 270 420 270 387.5 288 c 128,-1,33
 355 306 355 306 296 323 c 0,34,35
 184 356 184 356 129 400.5 c 128,-1,36
 74 445 74 445 74 522 c 0,37,38
 74 573 74 573 102 614 c 128,-1,39
 130 655 130 655 181 677.5 c 128,-1,40
 232 700 232 700 297 700 c 0,41,42
 365 700 365 700 418.5 680 c 128,-1,43
 472 660 472 660 517 621 c 1,44,-1
 465 565 l 1,45,46
 394 627 394 627 300 627 c 0,47,48
 240 627 240 627 201 601 c 128,-1,49
 162 575 162 575 162 525 c 0,50,51
 162 495 162 495 178 474 c 128,-1,52
 194 453 194 453 231 435 c 128,-1,53
 268 417 268 417 335 398 c 0,54,55
 432 370 432 370 484.5 325 c 128,-1,56
 537 280 537 280 537 191 c 0,57,0
 537 106 537 106 479 51.5 c 128,-1,1
EndSplineSet
Colour: ff0000
EndChar
StartChar: scedilla
Encoding: 351 351 232
Width: 600
Flags: W
LayerCount: 2
Fore
SplineSet
449 36 m 128,-1,1
 397 -3 397 -3 317 -10 c 1,2,-1
 317 -57 l 1,3,4
 363 -61 363 -61 386.5 -84.5 c 128,-1,5
 410 -108 410 -108 410 -140 c 0,6,7
 410 -187 410 -187 374.5 -212.5 c 128,-1,8
 339 -238 339 -238 288 -238 c 0,9,10
 258 -238 258 -238 230.5 -231.5 c 128,-1,11
 203 -225 203 -225 183 -214 c 1,12,-1
 210 -166 l 1,13,14
 240 -182 240 -182 277 -182 c 0,15,16
 337 -182 337 -182 337 -141 c 0,17,18
 337 -115 337 -115 316 -106 c 128,-1,19
 295 -97 295 -97 251 -97 c 1,20,-1
 257 -11 l 1,21,22
 147 -4 147 -4 74 60 c 1,23,-1
 121 115 l 1,24,25
 153 89 153 89 194 73.5 c 128,-1,26
 235 58 235 58 280 58 c 0,27,28
 340 58 340 58 375 81 c 128,-1,29
 410 104 410 104 410 142 c 0,30,31
 410 168 410 168 401 184.5 c 128,-1,32
 392 201 392 201 365 214.5 c 128,-1,33
 338 228 338 228 283 242 c 0,34,35
 191 265 191 265 147 297.5 c 128,-1,36
 103 330 103 330 103 394 c 0,37,38
 103 460 103 460 158 499 c 128,-1,39
 213 538 213 538 303 538 c 0,40,41
 413 538 413 538 495 480 c 1,42,-1
 457 422 l 1,43,44
 424 445 424 445 388 457.5 c 128,-1,45
 352 470 352 470 305 470 c 0,46,47
 191 470 191 470 191 401 c 0,48,49
 191 377 191 377 203.5 362 c 128,-1,50
 216 347 216 347 244.5 335.5 c 128,-1,51
 273 324 273 324 330 308 c 0,52,53
 416 285 416 285 458.5 249.5 c 128,-1,54
 501 214 501 214 501 146 c 0,55,0
 501 75 501 75 449 36 c 128,-1,1
EndSplineSet
Colour: ff0000
EndChar
StartChar: uni0163
Encoding: 355 355 239
Width: 600
Flags: W
LayerCount: 2
Fore
SplineSet
460.5 -84.5 m 128,-1,1
 484 -108 484 -108 484 -140 c 0,2,3
 484 -187 484 -187 448.5 -212.5 c 128,-1,4
 413 -238 413 -238 362 -238 c 0,5,6
 332 -238 332 -238 304.5 -231.5 c 128,-1,7
 277 -225 277 -225 257 -214 c 1,8,-1
 284 -166 l 1,9,10
 314 -182 314 -182 351 -182 c 0,11,12
 411 -182 411 -182 411 -141 c 0,13,14
 411 -115 411 -115 390 -106 c 128,-1,15
 369 -97 369 -97 325 -97 c 1,16,-1
 331 -7 l 1,17,18
 269 4 269 4 234.5 45.5 c 128,-1,19
 200 87 200 87 200 147 c 2,20,-1
 200 461 l 1,21,-1
 79 461 l 1,22,-1
 79 527 l 1,23,-1
 200 527 l 1,24,-1
 200 646 l 1,25,-1
 284 656 l 1,26,-1
 284 527 l 1,27,-1
 467 527 l 1,28,-1
 456 461 l 1,29,-1
 284 461 l 1,30,-1
 284 148 l 2,31,32
 284 103 284 103 308 81 c 128,-1,33
 332 59 332 59 385 59 c 0,34,35
 439 59 439 59 486 84 c 1,36,-1
 519 27 l 1,37,38
 495 11 495 11 460.5 1 c 128,-1,39
 426 -9 426 -9 391 -11 c 1,40,-1
 391 -57 l 1,41,0
 437 -61 437 -61 460.5 -84.5 c 128,-1,1
EndSplineSet
Colour: ff0000
EndChar
StartChar: Tbar
Encoding: 358 358 100
Width: 600
Flags: W
LayerCount: 2
Fore
SplineSet
342 614 m 1,0,-1
 342 417 l 1,1,-1
 473 417 l 1,2,-1
 473 350 l 1,3,-1
 342 350 l 1,4,-1
 342 0 l 1,5,-1
 255 0 l 1,6,-1
 255 350 l 1,7,-1
 125 350 l 1,8,-1
 125 417 l 1,9,-1
 255 417 l 1,10,-1
 255 614 l 1,11,-1
 40 614 l 1,12,-1
 40 689 l 1,13,-1
 559 689 l 1,14,-1
 550 614 l 1,15,-1
 342 614 l 1,0,-1
EndSplineSet
Colour: ff0000
EndChar
StartChar: tbar
Encoding: 359 359 237
Width: 600
Flags: W
LayerCount: 2
Fore
SplineSet
519 27 m 1,0,1
 492 9 492 9 453.5 -1 c 128,-1,2
 415 -11 415 -11 377 -11 c 0,3,4
 294 -11 294 -11 247 32.5 c 128,-1,5
 200 76 200 76 200 147 c 2,6,-1
 200 288 l 1,7,-1
 90 288 l 1,8,-1
 90 352 l 1,9,-1
 200 352 l 1,10,-1
 200 461 l 1,11,-1
 79 461 l 1,12,-1
 79 527 l 1,13,-1
 200 527 l 1,14,-1
 200 646 l 1,15,-1
 284 656 l 1,16,-1
 284 527 l 1,17,-1
 467 527 l 1,18,-1
 456 461 l 1,19,-1
 284 461 l 1,20,-1
 284 352 l 1,21,-1
 457 352 l 1,22,-1
 457 288 l 1,23,-1
 284 288 l 1,24,-1
 284 148 l 2,25,26
 284 103 284 103 308 81 c 128,-1,27
 332 59 332 59 385 59 c 0,28,29
 439 59 439 59 486 84 c 1,30,-1
 519 27 l 1,0,1
EndSplineSet
Colour: ff0000
EndChar
StartChar: Uogonek
Encoding: 370 370 112
Width: 600
Flags: W
LayerCount: 2
Fore
SplineSet
528 689 m 1,0,-1
 528 223 l 2,1,2
 528 138 528 138 486.5 78.5 c 128,-1,3
 445 19 445 19 372 -2 c 1,4,5
 303 -33 303 -33 277.5 -59 c 128,-1,6
 252 -85 252 -85 252 -114 c 0,7,8
 252 -138 252 -138 265 -150 c 128,-1,9
 278 -162 278 -162 308 -162 c 0,10,11
 335 -162 335 -162 369 -155 c 1,12,-1
 361 -223 l 1,13,14
 319 -229 319 -229 297 -229 c 0,15,16
 241 -229 241 -229 208 -201.5 c 128,-1,17
 175 -174 175 -174 175 -131 c 0,18,19
 175 -57 175 -57 262 -9 c 1,20,21
 173 2 173 2 122.5 64.5 c 128,-1,22
 72 127 72 127 72 223 c 2,23,-1
 72 689 l 1,24,-1
 159 689 l 1,25,-1
 159 220 l 2,26,27
 159 142 159 142 195 103 c 128,-1,28
 231 64 231 64 299 64 c 256,29,30
 367 64 367 64 403.5 103 c 128,-1,31
 440 142 440 142 440 220 c 2,32,-1
 440 689 l 1,33,-1
 528 689 l 1,0,-1
EndSplineSet
Colour: ff0000
EndChar
StartChar: florin
Encoding: 402 402 1060
Width: 600
Flags: W
LayerCount: 2
Fore
SplineSet
432.5 743 m 128,-1,1
 460 737 460 737 492 722 c 1,2,-1
 463 660 l 1,3,4
 419 680 419 680 372 680 c 0,5,6
 329 680 329 680 310.5 661 c 128,-1,7
 292 642 292 642 292 602 c 2,8,-1
 292 527 l 1,9,-1
 421 527 l 1,10,-1
 411 460 l 1,11,-1
 292 460 l 1,12,-1
 292 39 l 2,13,14
 292 -38 292 -38 276.5 -83.5 c 128,-1,15
 261 -129 261 -129 229 -156.5 c 128,-1,16
 197 -184 197 -184 138 -211 c 1,17,-1
 107 -151 l 1,18,19
 146 -132 146 -132 167 -114.5 c 128,-1,20
 188 -97 188 -97 198.5 -65 c 128,-1,21
 209 -33 209 -33 209 23 c 2,22,-1
 209 460 l 1,23,-1
 124 460 l 1,24,-1
 124 527 l 1,25,-1
 209 527 l 1,26,-1
 209 600 l 2,27,28
 209 667 209 667 251 708 c 128,-1,29
 293 749 293 749 369 749 c 0,30,0
 405 749 405 749 432.5 743 c 128,-1,1
EndSplineSet
Colour: ff0000
EndChar
StartChar: uni02B9
Encoding: 697 697 1427
Width: 600
Flags: W
LayerCount: 2
Fore
SplineSet
296 689 m 1,0,-1
 390 689 l 1,1,-1
 275 429 l 1,2,-1
 210 429 l 1,3,-1
 296 689 l 1,0,-1
EndSplineSet
Colour: ff0000
EndChar
StartChar: uni02BC
Encoding: 700 700 1478
Width: 600
Flags: W
LayerCount: 2
Fore
SplineSet
332 733.5 m 128,-1,1
 348 718 348 718 348 695 c 0,2,3
 348 683 348 683 343 668 c 128,-1,4
 338 653 338 653 322 619 c 2,5,-1
 280 530 l 1,6,-1
 230 530 l 1,7,-1
 261 651 l 1,8,9
 238 669 238 669 238 696 c 0,10,11
 238 718 238 718 254 733.5 c 128,-1,12
 270 749 270 749 293 749 c 256,13,0
 316 749 316 749 332 733.5 c 128,-1,1
EndSplineSet
Colour: ff0000
EndChar
StartChar: circumflex
Encoding: 710 710 1432
Width: 600
Flags: W
LayerCount: 2
Fore
SplineSet
137 670 m 1,0,-1
 272 789 l 1,1,-1
 329 789 l 1,2,-1
 463 670 l 1,3,-1
 425 629 l 1,4,-1
 301 720 l 1,5,-1
 177 629 l 1,6,-1
 137 670 l 1,0,-1
EndSplineSet
EndChar
StartChar: caron
Encoding: 711 711 1430
Width: 600
Flags: W
LayerCount: 2
Fore
SplineSet
463 748 m 1,0,-1
 329 629 l 1,1,-1
 272 629 l 1,2,-1
 137 748 l 1,3,-1
 177 789 l 1,4,-1
 301 699 l 1,5,-1
 425 789 l 1,6,-1
 463 748 l 1,0,-1
EndSplineSet
Colour: ff0000
EndChar
StartChar: uni02C9
Encoding: 713 713 1426
Width: 600
Flags: W
LayerCount: 2
Fore
SplineSet
165 683 m 1,0,-1
 165 747 l 1,1,-1
 434 747 l 1,2,-1
 434 683 l 1,3,-1
 165 683 l 1,0,-1
EndSplineSet
Colour: ff0000
EndChar
StartChar: ring
Encoding: 730 730 1439
Width: 600
Flags: W
LayerCount: 2
Fore
SplineSet
379.5 794 m 128,-1,1
 411 764 411 764 411 721 c 256,2,3
 411 678 411 678 379.5 648.5 c 128,-1,4
 348 619 348 619 300 619 c 256,5,6
 252 619 252 619 220.5 648.5 c 128,-1,7
 189 678 189 678 189 721 c 256,8,9
 189 764 189 764 220.5 794 c 128,-1,10
 252 824 252 824 300 824 c 256,11,0
 348 824 348 824 379.5 794 c 128,-1,1
260.5 762 m 128,-1,13
 246 747 246 747 246 721 c 0,14,15
 246 694 246 694 260.5 679 c 128,-1,16
 275 664 275 664 300 664 c 0,17,18
 326 664 326 664 340 679 c 128,-1,19
 354 694 354 694 354 721 c 0,20,21
 354 747 354 747 339.5 762 c 128,-1,22
 325 777 325 777 300 777 c 256,23,12
 275 777 275 777 260.5 762 c 128,-1,13
EndSplineSet
EndChar
StartChar: ogonek
Encoding: 731 731 1438
Width: 600
Flags: W
LayerCount: 2
Fore
SplineSet
402 0 m 1,0,1
 330 -31 330 -31 304 -58 c 128,-1,2
 278 -85 278 -85 278 -114 c 0,3,4
 278 -138 278 -138 291 -150 c 128,-1,5
 304 -162 304 -162 334 -162 c 0,6,7
 361 -162 361 -162 395 -155 c 1,8,-1
 387 -223 l 1,9,10
 345 -229 345 -229 323 -229 c 0,11,12
 267 -229 267 -229 234 -201.5 c 128,-1,13
 201 -174 201 -174 201 -131 c 0,14,15
 201 -78 201 -78 246.5 -38 c 128,-1,16
 292 2 292 2 388 31 c 1,17,-1
 402 0 l 1,0,1
EndSplineSet
Colour: ff0000
EndChar
StartChar: tilde
Encoding: 732 732 1440
Width: 600
Flags: W
LayerCount: 2
Fore
SplineSet
323.5 666 m 128,-1,1
 308 673 308 673 289 686 c 0,2,3
 274 697 274 697 263.5 702 c 128,-1,4
 253 707 253 707 242 707 c 0,5,6
 226 707 226 707 214 696 c 128,-1,7
 202 685 202 685 189 661 c 1,8,-1
 136 687 l 1,9,10
 155 726 155 726 181.5 749 c 128,-1,11
 208 772 208 772 242 772 c 0,12,13
 263 772 263 772 278 764.5 c 128,-1,14
 293 757 293 757 312 744 c 0,15,16
 329 732 329 732 338 727.5 c 128,-1,17
 347 723 347 723 358 723 c 0,18,19
 373 723 373 723 385 733.5 c 128,-1,20
 397 744 397 744 411 768 c 1,21,-1
 465 741 l 1,22,23
 446 700 446 700 418.5 679.5 c 128,-1,24
 391 659 391 659 358 659 c 0,25,0
 339 659 339 659 323.5 666 c 128,-1,1
EndSplineSet
EndChar
StartChar: uni0326
Encoding: 806 806 1412
Width: 0
GlyphClass: 4
Flags: W
LayerCount: 2
Fore
SplineSet
-258 -86.5 m 128,-1,1
 -242 -102 -242 -102 -242 -124 c 0,2,3
 -242 -145 -242 -145 -257 -179 c 1,4,-1
 -308 -286 l 1,5,-1
 -358 -286 l 1,6,-1
 -329 -169 l 1,7,8
 -351 -152 -351 -152 -351 -124 c 0,9,10
 -351 -101 -351 -101 -335.5 -86 c 128,-1,11
 -320 -71 -320 -71 -297 -71 c 256,12,0
 -274 -71 -274 -71 -258 -86.5 c 128,-1,1
EndSplineSet
Colour: ff0000
EndChar
StartChar: uni0335
Encoding: 821 821 1422
Width: 0
GlyphClass: 4
Flags: W
LayerCount: 2
Fore
SplineSet
-472 278 m 1,0,-1
 -472 345 l 1,1,-1
 -129 345 l 1,2,-1
 -129 278 l 1,3,-1
 -472 278 l 1,0,-1
EndSplineSet
Colour: ff0000
EndChar
StartChar: uni0336
Encoding: 822 822 1421
Width: 0
GlyphClass: 4
Flags: W
LayerCount: 2
Fore
SplineSet
-625 278 m 1,0,-1
 -625 345 l 1,1,-1
 26 345 l 1,2,-1
 26 278 l 1,3,-1
 -625 278 l 1,0,-1
EndSplineSet
Colour: ff0000
EndChar
StartChar: uni0342
Encoding: 834 834 1456
Width: 0
GlyphClass: 4
Flags: W
LayerCount: 2
Fore
SplineSet
-276.5 666 m 128,-1,1
 -292 673 -292 673 -311 686 c 0,2,3
 -326 697 -326 697 -336.5 702 c 128,-1,4
 -347 707 -347 707 -358 707 c 0,5,6
 -374 707 -374 707 -386 696 c 128,-1,7
 -398 685 -398 685 -411 661 c 1,8,-1
 -464 687 l 1,9,10
 -445 726 -445 726 -418.5 749 c 128,-1,11
 -392 772 -392 772 -358 772 c 0,12,13
 -337 772 -337 772 -322 764.5 c 128,-1,14
 -307 757 -307 757 -288 744 c 0,15,16
 -271 732 -271 732 -262 727.5 c 128,-1,17
 -253 723 -253 723 -242 723 c 0,18,19
 -227 723 -227 723 -215 733.5 c 128,-1,20
 -203 744 -203 744 -189 768 c 1,21,-1
 -135 741 l 1,22,23
 -154 700 -154 700 -181.5 679.5 c 128,-1,24
 -209 659 -209 659 -242 659 c 0,25,0
 -261 659 -261 659 -276.5 666 c 128,-1,1
EndSplineSet
Colour: ff0000
EndChar
StartChar: uni0372
Encoding: 882 882 601
Width: 600
Flags: W
LayerCount: 2
Fore
SplineSet
565 689 m 1,0,-1
 565 424 l 1,1,-1
 489 424 l 1,2,-1
 489 613 l 1,3,-1
 344 613 l 1,4,-1
 344 0 l 1,5,-1
 257 0 l 1,6,-1
 257 613 l 1,7,-1
 112 613 l 1,8,-1
 112 422 l 1,9,-1
 36 422 l 1,10,-1
 36 689 l 1,11,-1
 565 689 l 1,0,-1
EndSplineSet
Colour: ff0000
EndChar
StartChar: uni0377
Encoding: 887 887 753
Width: 600
Flags: W
LayerCount: 2
Fore
SplineSet
502.5 81.5 m 128,-1,1
 513 64 513 64 539 52 c 1,2,-1
 510 -11 l 1,3,4
 453 4 453 4 429 40.5 c 128,-1,5
 405 77 405 77 405 144 c 0,6,7
 405 183 405 183 412 279.5 c 128,-1,8
 419 376 419 376 423 426 c 1,9,-1
 198 0 l 1,10,-1
 95 0 l 1,11,-1
 95 527 l 1,12,-1
 179 527 l 1,13,-1
 179 280 l 2,14,15
 179 217 179 217 175 162.5 c 128,-1,16
 171 108 171 108 171 103 c 1,17,-1
 394 527 l 1,18,-1
 492 527 l 1,19,-1
 492 136 l 2,20,0
 492 99 492 99 502.5 81.5 c 128,-1,1
EndSplineSet
Colour: ff0000
EndChar
StartChar: uni037C
Encoding: 892 892 755
Width: 600
Flags: W
LayerCount: 2
Fore
SplineSet
476 107 m 1,1,-1
 516 52 l 1,2,3
 483 23 483 23 434 6 c 128,-1,4
 385 -11 385 -11 339 -11 c 0,5,6
 222 -11 222 -11 156.5 62.5 c 128,-1,7
 91 136 91 136 91 261 c 0,8,9
 91 340 91 340 120.5 403 c 128,-1,10
 150 466 150 466 206 502 c 128,-1,11
 262 538 262 538 339 538 c 0,12,13
 441 538 441 538 515 476 c 1,14,-1
 474 421 l 1,15,16
 405 467 405 467 338 467 c 0,17,18
 267 467 267 467 224.5 414.5 c 128,-1,19
 182 362 182 362 182 261 c 256,20,21
 182 160 182 160 224.5 110.5 c 128,-1,22
 267 61 267 61 339 61 c 0,23,0
 408 61 408 61 476 107 c 1,1,-1
393 310 m 128,-1,25
 410 293 410 293 410 268 c 0,26,27
 410 241 410 241 393.5 224 c 128,-1,28
 377 207 377 207 349 207 c 256,29,30
 321 207 321 207 304.5 224 c 128,-1,31
 288 241 288 241 288 268 c 0,32,33
 288 293 288 293 305 310 c 128,-1,34
 322 327 322 327 349 327 c 256,35,24
 376 327 376 327 393 310 c 128,-1,25
EndSplineSet
Colour: ff0000
EndChar
StartChar: tonos
Encoding: 900 900 1458
Width: 600
Flags: W
LayerCount: 2
Fore
SplineSet
363 791 m 1,0,-1
 298 596 l 1,1,-1
 238 606 l 1,2,-1
 274 808 l 1,3,-1
 363 791 l 1,0,-1
EndSplineSet
Colour: ff0000
EndChar
StartChar: dieresistonos
Encoding: 901 901 1460
Width: 600
Flags: W
LayerCount: 2
Fore
SplineSet
387 895 m 1,0,-1
 328 728 l 1,1,-1
 269 737 l 1,2,-1
 298 914 l 1,3,-1
 387 895 l 1,0,-1
236.5 719.5 m 128,-1,5
 252 704 252 704 252 681 c 256,6,7
 252 658 252 658 236.5 642.5 c 128,-1,8
 221 627 221 627 198 627 c 256,9,10
 175 627 175 627 159 642.5 c 128,-1,11
 143 658 143 658 143 681 c 256,12,13
 143 704 143 704 159 719.5 c 128,-1,14
 175 735 175 735 198 735 c 256,15,4
 221 735 221 735 236.5 719.5 c 128,-1,5
440 719.5 m 128,-1,17
 456 704 456 704 456 681 c 256,18,19
 456 658 456 658 440 642.5 c 128,-1,20
 424 627 424 627 401 627 c 256,21,22
 378 627 378 627 362.5 642.5 c 128,-1,23
 347 658 347 658 347 681 c 256,24,25
 347 704 347 704 362.5 719.5 c 128,-1,26
 378 735 378 735 401 735 c 256,27,16
 424 735 424 735 440 719.5 c 128,-1,17
EndSplineSet
Colour: ff0000
EndChar
StartChar: uni0394
Encoding: 916 916 570
Width: 600
Flags: W
LayerCount: 2
Fore
SplineSet
579 0 m 1,0,-1
 20 0 l 1,1,-1
 245 689 l 1,2,-1
 355 689 l 1,3,-1
 579 0 l 1,0,-1
129 71 m 1,4,-1
 466 71 l 1,5,-1
 298 613 l 1,6,-1
 129 71 l 1,4,-1
EndSplineSet
Colour: ff0000
EndChar
StartChar: Epsilon
Encoding: 917 917 571
Width: 600
Flags: W
LayerCount: 2
Fore
SplineSet
212 385 m 1,0,-1
 468 385 l 1,1,-1
 468 314 l 1,2,-1
 212 314 l 1,3,-1
 212 70 l 1,4,-1
 526 70 l 1,5,-1
 526 0 l 1,6,-1
 126 0 l 1,7,-1
 126 689 l 1,8,-1
 517 689 l 1,9,-1
 507 617 l 1,10,-1
 212 617 l 1,11,-1
 212 385 l 1,0,-1
EndSplineSet
Colour: ff0000
EndChar
StartChar: Theta
Encoding: 920 920 574
Width: 600
Flags: W
LayerCount: 2
Fore
SplineSet
487.5 86 m 128,-1,1
 422 -11 422 -11 300 -11 c 0,2,3
 177 -11 177 -11 112 84 c 128,-1,4
 47 179 47 179 47 343 c 0,5,6
 47 448 47 448 76 529 c 128,-1,7
 105 610 105 610 162 655 c 128,-1,8
 219 700 219 700 300 700 c 0,9,10
 422 700 422 700 487.5 603.5 c 128,-1,11
 553 507 553 507 553 344 c 0,12,0
 553 183 553 183 487.5 86 c 128,-1,1
423.5 556 m 128,-1,14
 385 627 385 627 300 627 c 256,15,16
 215 627 215 627 176.5 555.5 c 128,-1,17
 138 484 138 484 138 343 c 0,18,19
 138 203 138 203 177.5 132.5 c 128,-1,20
 217 62 217 62 300 62 c 0,21,22
 385 62 385 62 423.5 132.5 c 128,-1,23
 462 203 462 203 462 344 c 256,24,13
 462 485 462 485 423.5 556 c 128,-1,14
197 316 m 1,25,-1
 197 388 l 1,26,-1
 402 388 l 1,27,-1
 402 316 l 1,28,-1
 197 316 l 1,25,-1
EndSplineSet
Colour: ff0000
EndChar
StartChar: Upsilon
Encoding: 933 933 586
Width: 600
Flags: W
LayerCount: 2
Fore
SplineSet
344 0 m 1,0,-1
 256 0 l 1,1,-1
 256 265 l 1,2,-1
 23 689 l 1,3,-1
 119 689 l 1,4,-1
 302 343 l 1,5,-1
 487 689 l 1,6,-1
 577 689 l 1,7,-1
 344 266 l 1,8,-1
 344 0 l 1,0,-1
EndSplineSet
Colour: ff0000
EndChar
StartChar: Phi
Encoding: 934 934 587
Width: 600
Flags: W
LayerCount: 2
Fore
SplineSet
342 610 m 1,0,1
 468 603 468 603 528.5 537.5 c 128,-1,2
 589 472 589 472 589 347 c 0,3,4
 589 219 589 219 526 152 c 128,-1,5
 463 85 463 85 342 81 c 1,6,-1
 342 0 l 1,7,-1
 258 0 l 1,8,-1
 258 81 l 1,9,10
 138 85 138 85 74.5 152 c 128,-1,11
 11 219 11 219 11 347 c 0,12,13
 11 471 11 471 72 537 c 128,-1,14
 133 603 133 603 258 610 c 1,15,-1
 258 689 l 1,16,-1
 342 689 l 1,17,-1
 342 610 l 1,0,1
136.5 498.5 m 128,-1,19
 98 454 98 454 98 347 c 0,20,21
 98 244 98 244 136 197 c 128,-1,22
 174 150 174 150 259 145 c 1,23,-1
 259 545 l 1,24,18
 175 543 175 543 136.5 498.5 c 128,-1,19
341 145 m 1,25,26
 426 150 426 150 464 197.5 c 128,-1,27
 502 245 502 245 502 347 c 0,28,29
 502 455 502 455 463.5 499.5 c 128,-1,30
 425 544 425 544 341 545 c 1,31,-1
 341 145 l 1,25,26
EndSplineSet
Colour: ff0000
EndChar
StartChar: Psi
Encoding: 936 936 589
Width: 600
Flags: W
LayerCount: 2
Fore
SplineSet
256 192 m 1,0,1
 134 201 134 201 73.5 265 c 128,-1,2
 13 329 13 329 13 430 c 2,3,-1
 13 689 l 1,4,-1
 102 689 l 1,5,-1
 102 435 l 2,6,7
 102 356 102 356 137 314.5 c 128,-1,8
 172 273 172 273 257 266 c 1,9,-1
 257 689 l 1,10,-1
 344 689 l 1,11,-1
 344 267 l 1,12,13
 427 274 427 274 462.5 315.5 c 128,-1,14
 498 357 498 357 498 435 c 2,15,-1
 498 689 l 1,16,-1
 587 689 l 1,17,-1
 587 430 l 2,18,19
 587 330 587 330 526 266.5 c 128,-1,20
 465 203 465 203 345 193 c 1,21,-1
 345 0 l 1,22,-1
 256 0 l 1,23,-1
 256 192 l 1,0,1
EndSplineSet
Colour: ff0000
EndChar
StartChar: beta
Encoding: 946 946 716
Width: 600
Flags: W
LayerCount: 2
Fore
SplineSet
547 202 m 0,1,2
 547 139 547 139 516.5 90.5 c 128,-1,3
 486 42 486 42 435 15.5 c 128,-1,4
 384 -11 384 -11 325 -11 c 0,5,6
 242 -11 242 -11 175 41 c 1,7,-1
 175 -201 l 1,8,-1
 91 -212 l 1,9,-1
 91 540 l 2,10,11
 91 637 91 637 144.5 692.5 c 128,-1,12
 198 748 198 748 292 748 c 0,13,14
 347 748 347 748 393 727 c 128,-1,15
 439 706 439 706 466 665.5 c 128,-1,16
 493 625 493 625 493 571 c 0,17,18
 493 496 493 496 450.5 454 c 128,-1,19
 408 412 408 412 342 404 c 1,20,0
 547 383 547 383 547 202 c 0,1,2
420 96 m 128,-1,22
 461 134 461 134 461 202 c 0,23,24
 461 283 461 283 415 324.5 c 128,-1,25
 369 366 369 366 281 366 c 2,26,-1
 227 366 l 1,27,-1
 237 431 l 1,28,-1
 290 431 l 2,29,30
 346 431 346 431 380.5 463.5 c 128,-1,31
 415 496 415 496 415 563 c 0,32,33
 415 622 415 622 381.5 652 c 128,-1,34
 348 682 348 682 293 682 c 0,35,36
 175 682 175 682 175 539 c 2,37,-1
 175 109 l 1,38,39
 202 82 202 82 236.5 70 c 128,-1,40
 271 58 271 58 317 58 c 0,41,21
 379 58 379 58 420 96 c 128,-1,22
EndSplineSet
Colour: ff0000
EndChar
StartChar: delta
Encoding: 948 948 718
Width: 600
Flags: W
LayerCount: 2
Fore
SplineSet
408 734 m 128,-1,1
 447 719 447 719 483 689 c 1,2,-1
 441 639 l 1,3,4
 409 664 409 664 379 674 c 128,-1,5
 349 684 349 684 313 684 c 0,6,7
 269 684 269 684 243.5 665.5 c 128,-1,8
 218 647 218 647 218 614 c 0,9,10
 218 591 218 591 229.5 576.5 c 128,-1,11
 241 562 241 562 264 550 c 128,-1,12
 287 538 287 538 337 517 c 0,13,14
 408 488 408 488 451.5 453.5 c 128,-1,15
 495 419 495 419 517 368.5 c 128,-1,16
 539 318 539 318 539 244 c 0,17,18
 539 176 539 176 510.5 117.5 c 128,-1,19
 482 59 482 59 428.5 24 c 128,-1,20
 375 -11 375 -11 303 -11 c 256,21,22
 231 -11 231 -11 178 23 c 128,-1,23
 125 57 125 57 96.5 115 c 128,-1,24
 68 173 68 173 68 243 c 0,25,26
 68 330 68 330 112 392 c 128,-1,27
 156 454 156 454 227 482 c 1,28,29
 175 508 175 508 152.5 539 c 128,-1,30
 130 570 130 570 130 611 c 0,31,32
 130 676 130 676 182.5 712.5 c 128,-1,33
 235 749 235 749 318 749 c 0,34,0
 369 749 369 749 408 734 c 128,-1,1
189.5 371 m 128,-1,36
 159 320 159 320 159 242 c 0,37,38
 159 156 159 156 197 107 c 128,-1,39
 235 58 235 58 303 58 c 0,40,41
 372 58 372 58 410 106 c 128,-1,42
 448 154 448 154 448 243 c 0,43,44
 448 303 448 303 433.5 340 c 128,-1,45
 419 377 419 377 386 402.5 c 128,-1,46
 353 428 353 428 291 454 c 1,47,35
 220 422 220 422 189.5 371 c 128,-1,36
EndSplineSet
Colour: ff0000
EndChar
StartChar: theta
Encoding: 952 952 722
Width: 600
Flags: W
LayerCount: 2
Fore
SplineSet
469 650 m 128,-1,1
 527 551 527 551 527 372 c 0,2,3
 527 255 527 255 500.5 169 c 128,-1,4
 474 83 474 83 423 36 c 128,-1,5
 372 -11 372 -11 300 -11 c 0,6,7
 190 -11 190 -11 131.5 90.5 c 128,-1,8
 73 192 73 192 73 371 c 0,9,10
 73 547 73 547 132 648 c 128,-1,11
 191 749 191 749 301 749 c 256,12,0
 411 749 411 749 469 650 c 128,-1,1
198 613.5 m 128,-1,14
 164 548 164 548 161 406 c 1,15,-1
 439 406 l 1,16,17
 436 549 436 549 403 614 c 128,-1,18
 370 679 370 679 301 679 c 256,19,13
 232 679 232 679 198 613.5 c 128,-1,14
161 339 m 1,20,21
 165 192 165 192 198.5 125 c 128,-1,22
 232 58 232 58 300 58 c 256,23,24
 368 58 368 58 401 124.5 c 128,-1,25
 434 191 434 191 438 339 c 1,26,-1
 161 339 l 1,20,21
EndSplineSet
Colour: ff0000
EndChar
StartChar: iota
Encoding: 953 953 723
Width: 600
Flags: W
LayerCount: 2
Fore
SplineSet
63 455 m 1,0,-1
 72 527 l 1,1,-1
 324 527 l 1,2,-1
 324 130 l 2,3,4
 324 59 324 59 411 59 c 0,5,6
 453 59 453 59 500 77 c 1,7,-1
 522 16 l 1,8,9
 503 5 503 5 467.5 -3 c 128,-1,10
 432 -11 432 -11 397 -11 c 0,11,12
 325 -11 325 -11 282.5 29 c 128,-1,13
 240 69 240 69 240 140 c 2,14,-1
 240 455 l 1,15,-1
 63 455 l 1,0,-1
EndSplineSet
Colour: ff0000
EndChar
StartChar: lambda
Encoding: 955 955 725
Width: 600
Flags: W
LayerCount: 2
Fore
SplineSet
276 527 m 1,0,1
 254 601 254 601 216.5 637 c 128,-1,2
 179 673 179 673 101 685 c 1,3,-1
 114 751 l 1,4,5
 192 740 192 740 241.5 711.5 c 128,-1,6
 291 683 291 683 321.5 632.5 c 128,-1,7
 352 582 352 582 372 499 c 0,8,9
 418 304 418 304 460 191 c 128,-1,10
 502 78 502 78 559 21 c 1,11,-1
 472 -11 l 1,12,13
 418 57 418 57 375 173.5 c 128,-1,14
 332 290 332 290 297 462 c 1,15,-1
 129 -13 l 1,16,-1
 48 5 l 1,17,-1
 242 527 l 1,18,-1
 276 527 l 1,0,1
EndSplineSet
Colour: ff0000
EndChar
StartChar: nu
Encoding: 957 957 727
Width: 600
Flags: W
LayerCount: 2
Fore
SplineSet
143 311 m 128,-1,1
 89 455 89 455 32 506 c 1,2,-1
 116 537 l 1,3,4
 171 474 171 474 215.5 352 c 128,-1,5
 260 230 260 230 294 74 c 1,6,-1
 462 538 l 1,7,-1
 547 518 l 1,8,-1
 339 0 l 1,9,-1
 237 0 l 1,10,0
 197 167 197 167 143 311 c 128,-1,1
EndSplineSet
Colour: ff0000
EndChar
StartChar: xi
Encoding: 958 958 728
Width: 600
Flags: W
LayerCount: 2
Fore
SplineSet
552 690 m 1,1,-1
 511 640 l 1,2,3
 478 662 478 662 437.5 673 c 128,-1,4
 397 684 397 684 358 684 c 0,5,6
 293 684 293 684 258.5 658 c 128,-1,7
 224 632 224 632 224 582 c 0,8,9
 224 533 224 533 255.5 506 c 128,-1,10
 287 479 287 479 343 479 c 2,11,-1
 465 479 l 1,12,-1
 454 403 l 1,13,-1
 335 403 l 2,14,15
 269 403 269 403 229.5 364.5 c 128,-1,16
 190 326 190 326 190 269 c 0,17,18
 190 217 190 217 209 186.5 c 128,-1,19
 228 156 228 156 266 137.5 c 128,-1,20
 304 119 304 119 380 95 c 0,21,22
 444 75 444 75 478.5 57.5 c 128,-1,23
 513 40 513 40 529.5 16.5 c 128,-1,24
 546 -7 546 -7 546 -45 c 0,25,26
 546 -101 546 -101 507.5 -143.5 c 128,-1,27
 469 -186 469 -186 389 -223 c 1,28,-1
 355 -162 l 1,29,30
 406 -138 406 -138 430.5 -112.5 c 128,-1,31
 455 -87 455 -87 455 -51 c 0,32,33
 455 -33 455 -33 447 -22.5 c 128,-1,34
 439 -12 439 -12 420.5 -3 c 128,-1,35
 402 6 402 6 362 19 c 0,36,37
 274 46 274 46 219 74 c 128,-1,38
 164 102 164 102 131.5 148 c 128,-1,39
 99 194 99 194 99 265 c 0,40,41
 99 320 99 320 124 358.5 c 128,-1,42
 149 397 149 397 185.5 417.5 c 128,-1,43
 222 438 222 438 257 444 c 1,44,45
 202 465 202 465 169 496 c 128,-1,46
 136 527 136 527 136 580 c 0,47,48
 136 631 136 631 165.5 669.5 c 128,-1,49
 195 708 195 708 245.5 728.5 c 128,-1,50
 296 749 296 749 357 749 c 0,51,0
 469 749 469 749 552 690 c 1,1,-1
EndSplineSet
Colour: ff0000
EndChar
StartChar: rho
Encoding: 961 961 731
Width: 600
Flags: W
LayerCount: 2
Fore
SplineSet
471.5 468.5 m 128,-1,1
 524 399 524 399 524 264 c 0,2,3
 524 188 524 188 501 125.5 c 128,-1,4
 478 63 478 63 431.5 26 c 128,-1,5
 385 -11 385 -11 318 -11 c 0,6,7
 231 -11 231 -11 178 49 c 1,8,-1
 178 -202 l 1,9,-1
 94 -212 l 1,10,-1
 94 271 l 2,11,12
 94 402 94 402 148 470 c 128,-1,13
 202 538 202 538 307 538 c 0,14,0
 419 538 419 538 471.5 468.5 c 128,-1,1
207 417.5 m 128,-1,16
 178 364 178 364 178 257 c 2,17,-1
 178 125 l 1,18,19
 199 93 199 93 231 76 c 128,-1,20
 263 59 263 59 300 59 c 0,21,22
 365 59 365 59 399 111.5 c 128,-1,23
 433 164 433 164 433 264 c 0,24,25
 433 369 433 369 401.5 420 c 128,-1,26
 370 471 370 471 305 471 c 0,27,15
 236 471 236 471 207 417.5 c 128,-1,16
EndSplineSet
Colour: ff0000
EndChar
StartChar: uni03C2
Encoding: 962 962 732
Width: 600
Flags: W
LayerCount: 2
Fore
SplineSet
444.5 525.5 m 128,-1,1
 485 513 485 513 527 482 c 1,2,-1
 485 426 l 1,3,4
 451 448 451 448 422 457.5 c 128,-1,5
 393 467 393 467 351 467 c 0,6,7
 307 467 307 467 270.5 444.5 c 128,-1,8
 234 422 234 422 212.5 378 c 128,-1,9
 191 334 191 334 191 271 c 0,10,11
 191 220 191 220 204 191.5 c 128,-1,12
 217 163 217 163 249.5 142.5 c 128,-1,13
 282 122 282 122 349 97 c 0,14,15
 407 76 407 76 440 58.5 c 128,-1,16
 473 41 473 41 491 16 c 128,-1,17
 509 -9 509 -9 509 -47 c 0,18,19
 509 -101 509 -101 472.5 -139.5 c 128,-1,20
 436 -178 436 -178 354 -214 c 1,21,-1
 318 -154 l 1,22,23
 367 -135 367 -135 392.5 -112.5 c 128,-1,24
 418 -90 418 -90 418 -56 c 0,25,26
 418 -35 418 -35 408.5 -23 c 128,-1,27
 399 -11 399 -11 375 0 c 128,-1,28
 351 11 351 11 294 32 c 0,29,30
 194 68 194 68 148 121.5 c 128,-1,31
 102 175 102 175 102 271 c 0,32,33
 102 354 102 354 133.5 414.5 c 128,-1,34
 165 475 165 475 221 506.5 c 128,-1,35
 277 538 277 538 348 538 c 0,36,0
 404 538 404 538 444.5 525.5 c 128,-1,1
EndSplineSet
Colour: ff0000
EndChar
StartChar: tau
Encoding: 964 964 734
Width: 600
Flags: W
LayerCount: 2
Fore
SplineSet
508 16 m 1,0,1
 489 5 489 5 453.5 -3 c 128,-1,2
 418 -11 418 -11 383 -11 c 0,3,4
 312 -11 312 -11 270 29 c 128,-1,5
 228 69 228 69 228 140 c 2,6,-1
 228 456 l 1,7,-1
 183 456 l 2,8,9
 145 456 145 456 119 452.5 c 128,-1,10
 93 449 93 449 53 439 c 1,11,-1
 39 505 l 1,12,13
 73 517 73 517 110 522 c 128,-1,14
 147 527 147 527 195 527 c 2,15,-1
 507 527 l 1,16,-1
 507 456 l 1,17,-1
 312 456 l 1,18,-1
 312 130 l 2,19,20
 312 59 312 59 398 59 c 0,21,22
 439 59 439 59 486 77 c 1,23,-1
 508 16 l 1,0,1
EndSplineSet
Colour: ff0000
EndChar
StartChar: upsilon
Encoding: 965 965 735
Width: 600
Flags: W
LayerCount: 2
Fore
SplineSet
525 255 m 0,1,2
 525 166 525 166 491.5 106 c 128,-1,3
 458 46 458 46 404.5 17.5 c 128,-1,4
 351 -11 351 -11 288 -11 c 0,5,6
 205 -11 205 -11 154 33 c 128,-1,7
 103 77 103 77 103 161 c 2,8,-1
 103 527 l 1,9,-1
 187 527 l 1,10,-1
 187 169 l 2,11,12
 187 114 187 114 214 86 c 128,-1,13
 241 58 241 58 291 58 c 0,14,15
 353 58 353 58 396.5 105 c 128,-1,16
 440 152 440 152 440 263 c 0,17,18
 440 396 440 396 414 527 c 1,19,-1
 500 527 l 1,20,0
 525 390 525 390 525 255 c 0,1,2
EndSplineSet
Colour: ff0000
EndChar
StartChar: phi
Encoding: 966 966 736
Width: 600
Flags: W
LayerCount: 2
Fore
SplineSet
526.5 471 m 128,-1,1
 566 404 566 404 566 268 c 0,2,3
 566 11 566 11 331 -10 c 1,4,-1
 331 -201 l 1,5,-1
 252 -212 l 1,6,-1
 252 -10 l 1,7,8
 141 0 141 0 87.5 62.5 c 128,-1,9
 34 125 34 125 34 239 c 0,10,11
 34 322 34 322 49 391.5 c 128,-1,12
 64 461 64 461 89 527 c 1,13,-1
 173 527 l 1,14,15
 144 441 144 441 130.5 378 c 128,-1,16
 117 315 117 315 117 260 c 0,17,18
 117 164 117 164 146.5 115 c 128,-1,19
 176 66 176 66 252 56 c 1,20,-1
 252 318 l 2,21,22
 252 426 252 426 286.5 482 c 128,-1,23
 321 538 321 538 402 538 c 0,24,0
 487 538 487 538 526.5 471 c 128,-1,1
353.5 449 m 128,-1,26
 338 427 338 427 334.5 393.5 c 128,-1,27
 331 360 331 360 331 302 c 2,28,-1
 331 55 l 1,29,30
 414 64 414 64 447.5 114.5 c 128,-1,31
 481 165 481 165 481 268 c 0,32,33
 481 378 481 378 463.5 424.5 c 128,-1,34
 446 471 446 471 401 471 c 0,35,25
 369 471 369 471 353.5 449 c 128,-1,26
EndSplineSet
Colour: ff0000
EndChar
StartChar: omega
Encoding: 969 969 739
Width: 600
Flags: W
LayerCount: 2
Fore
SplineSet
574 239 m 0,1,2
 574 120 574 120 535 54.5 c 128,-1,3
 496 -11 496 -11 421 -11 c 0,4,5
 369 -11 369 -11 337.5 18.5 c 128,-1,6
 306 48 306 48 299 105 c 1,7,8
 288 49 288 49 256.5 19 c 128,-1,9
 225 -11 225 -11 177 -11 c 0,10,11
 26 -11 26 -11 26 239 c 0,12,13
 26 400 26 400 76 527 c 1,14,-1
 151 527 l 1,15,16
 125 448 125 448 117 384 c 128,-1,17
 109 320 109 320 109 239 c 0,18,19
 109 152 109 152 126 105 c 128,-1,20
 143 58 143 58 185 58 c 0,21,22
 260 58 260 58 260 231 c 2,23,-1
 260 357 l 1,24,-1
 340 368 l 1,25,-1
 340 230 l 2,26,27
 340 147 340 147 356.5 102.5 c 128,-1,28
 373 58 373 58 414 58 c 0,29,30
 457 58 457 58 474 105 c 128,-1,31
 491 152 491 152 491 239 c 0,32,33
 491 315 491 315 481.5 380 c 128,-1,34
 472 445 472 445 446 527 c 1,35,-1
 523 527 l 1,36,0
 574 390 574 390 574 239 c 0,1,2
EndSplineSet
Colour: ff0000
EndChar
StartChar: uni03D0
Encoding: 976 976 763
Width: 600
Flags: W
LayerCount: 2
Fore
SplineSet
483.5 377.5 m 128,-1,1
 521 317 521 317 521 223 c 0,2,3
 521 163 521 163 495 109 c 128,-1,4
 469 55 469 55 418.5 22 c 128,-1,5
 368 -11 368 -11 300 -11 c 0,6,7
 182 -11 182 -11 130.5 79 c 128,-1,8
 79 169 79 169 79 345 c 0,9,10
 79 473 79 473 116.5 564.5 c 128,-1,11
 154 656 154 656 214 702.5 c 128,-1,12
 274 749 274 749 341 749 c 0,13,14
 414 749 414 749 449 711 c 128,-1,15
 484 673 484 673 484 621 c 0,16,17
 484 561 484 561 441.5 511.5 c 128,-1,18
 399 462 399 462 322 434 c 1,19,20
 338 438 338 438 353 438 c 0,21,0
 446 438 446 438 483.5 377.5 c 128,-1,1
263 657 m 128,-1,23
 229 630 229 630 204 569 c 128,-1,24
 179 508 179 508 172 411 c 1,25,-1
 203 424 l 1,26,27
 306 469 306 469 351 513 c 128,-1,28
 396 557 396 557 396 621 c 0,29,30
 396 652 396 652 380 668 c 128,-1,31
 364 684 364 684 335 684 c 0,32,22
 297 684 297 684 263 657 c 128,-1,23
396 102.5 m 128,-1,34
 431 147 431 147 431 219 c 0,35,36
 431 302 431 302 407 344 c 128,-1,37
 383 386 383 386 317 386 c 0,38,39
 288 386 288 386 262 378.5 c 128,-1,40
 236 371 236 371 201 354 c 2,41,-1
 169 338 l 1,42,43
 167 200 167 200 196.5 129 c 128,-1,44
 226 58 226 58 299 58 c 0,45,33
 361 58 361 58 396 102.5 c 128,-1,34
EndSplineSet
Colour: ff0000
EndChar
StartChar: uni03D2
Encoding: 978 978 609
Width: 600
Flags: W
LayerCount: 2
Fore
SplineSet
546 629 m 0,1,2
 526 629 526 629 511.5 616.5 c 128,-1,3
 497 604 497 604 482 573 c 2,4,-1
 338 266 l 1,5,-1
 338 0 l 1,6,-1
 251 0 l 1,7,-1
 251 265 l 1,8,-1
 38 689 l 1,9,-1
 134 689 l 1,10,-1
 298 342 l 1,11,-1
 404 586 l 2,12,13
 433 652 433 652 462 676 c 128,-1,14
 491 700 491 700 540 700 c 0,15,16
 571 700 571 700 596 689 c 1,17,-1
 576 625 l 1,18,0
 560 629 560 629 546 629 c 0,1,2
EndSplineSet
Colour: ff0000
EndChar
StartChar: uni03D5
Encoding: 981 981 765
Width: 600
Flags: W
LayerCount: 2
Fore
SplineSet
496.5 77 m 128,-1,1
 438 8 438 8 340 3 c 1,2,-1
 340 -202 l 1,3,-1
 260 -212 l 1,4,-1
 260 3 l 1,5,6
 157 10 157 10 101 79.5 c 128,-1,7
 45 149 45 149 45 263 c 0,8,9
 45 342 45 342 72 400 c 128,-1,10
 99 458 99 458 147.5 489 c 128,-1,11
 196 520 196 520 260 523 c 1,12,-1
 260 738 l 1,13,-1
 340 747 l 1,14,-1
 340 523 l 1,15,16
 443 516 443 516 499 447 c 128,-1,17
 555 378 555 378 555 265 c 0,18,0
 555 146 555 146 496.5 77 c 128,-1,1
164.5 124 m 128,-1,20
 197 74 197 74 262 69 c 1,21,-1
 262 459 l 1,22,23
 132 447 132 447 132 263 c 0,24,19
 132 174 132 174 164.5 124 c 128,-1,20
435.5 125.5 m 128,-1,26
 468 175 468 175 468 265 c 0,27,28
 468 352 468 352 435 402 c 128,-1,29
 402 452 402 452 339 457 c 1,30,-1
 339 69 l 1,31,25
 403 76 403 76 435.5 125.5 c 128,-1,26
EndSplineSet
Colour: ff0000
EndChar
StartChar: uni03D7
Encoding: 983 983 762
Width: 600
Flags: W
LayerCount: 2
Fore
SplineSet
538 -59 m 2,0,1
 538 -133 538 -133 499 -172 c 128,-1,2
 460 -211 460 -211 392 -211 c 0,3,4
 330 -211 330 -211 281 -174 c 1,5,-1
 315 -120 l 1,6,7
 334 -131 334 -131 349.5 -136.5 c 128,-1,8
 365 -142 365 -142 388 -142 c 0,9,10
 452 -142 452 -142 452 -67 c 2,11,-1
 452 22 l 1,12,13
 426 40 426 40 415 69 c 128,-1,14
 404 98 404 98 404 145 c 0,15,16
 404 186 404 186 420 375 c 1,17,-1
 424 431 l 1,18,-1
 208 -7 l 1,19,-1
 108 22 l 1,20,-1
 108 390 l 2,21,22
 108 428 108 428 98 445 c 128,-1,23
 88 462 88 462 62 474 c 1,24,-1
 91 538 l 1,25,26
 149 522 149 522 172.5 485.5 c 128,-1,27
 196 449 196 449 196 382 c 0,28,29
 196 336 196 336 180 147 c 1,30,-1
 176 96 l 1,31,-1
 392 534 l 1,32,-1
 492 504 l 1,33,-1
 492 136 l 2,34,35
 492 98 492 98 502 80.5 c 128,-1,36
 512 63 512 63 538 51 c 1,37,-1
 538 -59 l 2,0,1
EndSplineSet
Colour: ff0000
EndChar
StartChar: uni03DB
Encoding: 987 987 758
Width: 600
Flags: W
LayerCount: 2
Fore
SplineSet
498 571 m 1,0,1
 498 517 498 517 476 484.5 c 128,-1,2
 454 452 454 452 416.5 435 c 128,-1,3
 379 418 379 418 321 405 c 0,4,5
 262 392 262 392 229 377.5 c 128,-1,6
 196 363 196 363 178 335 c 128,-1,7
 160 307 160 307 160 258 c 0,8,9
 160 208 160 208 175.5 179.5 c 128,-1,10
 191 151 191 151 227 131.5 c 128,-1,11
 263 112 263 112 336 90 c 1,12,13
 392 72 392 72 425.5 56 c 128,-1,14
 459 40 459 40 478.5 15 c 128,-1,15
 498 -10 498 -10 498 -50 c 0,16,17
 498 -102 498 -102 461 -140.5 c 128,-1,18
 424 -179 424 -179 343 -214 c 1,19,-1
 308 -156 l 1,20,21
 359 -134 359 -134 383 -112 c 128,-1,22
 407 -90 407 -90 407 -58 c 0,23,24
 407 -36 407 -36 395 -22.5 c 128,-1,25
 383 -9 383 -9 363 -1 c 128,-1,26
 343 7 343 7 301 19 c 2,27,-1
 278 26 l 2,28,29
 213 46 213 46 169 71 c 128,-1,30
 125 96 125 96 97 141 c 128,-1,31
 69 186 69 186 69 257 c 0,32,33
 69 344 69 344 119.5 395 c 128,-1,34
 170 446 170 446 262 467 c 0,35,36
 329 483 329 483 356.5 492.5 c 128,-1,37
 384 502 384 502 398.5 521 c 128,-1,38
 413 540 413 540 413 577 c 1,39,-1
 498 571 l 1,0,1
EndSplineSet
Colour: ff0000
EndChar
StartChar: uni03DD
Encoding: 989 989 759
Width: 600
Flags: W
LayerCount: 2
Fore
SplineSet
230 437 m 128,-1,1
 210 417 210 417 210 371 c 2,2,-1
 210 231 l 1,3,-1
 383 231 l 2,4,5
 417 231 417 231 439.5 226 c 128,-1,6
 462 221 462 221 485 210 c 1,7,-1
 464 149 l 1,8,9
 444 156 444 156 424.5 159.5 c 128,-1,10
 405 163 405 163 375 163 c 2,11,-1
 210 163 l 1,12,-1
 210 -201 l 1,13,-1
 126 -213 l 1,14,-1
 126 364 l 2,15,16
 126 527 126 527 292 527 c 2,17,-1
 527 527 l 1,18,-1
 515 458 l 1,19,-1
 296 457 l 2,20,0
 250 457 250 457 230 437 c 128,-1,1
EndSplineSet
Colour: ff0000
EndChar
StartChar: uni03DF
Encoding: 991 991 760
Width: 600
Flags: W
LayerCount: 2
Fore
SplineSet
411 194 m 2,0,1
 372 117 372 117 356 73.5 c 128,-1,2
 340 30 340 30 335 -11 c 1,3,-1
 261 3 l 1,4,5
 266 55 266 55 282 100.5 c 128,-1,6
 298 146 298 146 333 213 c 1,7,-1
 420 372 l 1,8,-1
 110 284 l 1,9,-1
 87 354 l 1,10,-1
 183 547 l 2,11,12
 221 623 221 623 237.5 667 c 128,-1,13
 254 711 254 711 260 752 c 1,14,-1
 333 738 l 1,15,16
 328 686 328 686 312 640 c 128,-1,17
 296 594 296 594 261 528 c 2,18,-1
 181 380 l 1,19,-1
 487 468 l 1,20,-1
 513 399 l 1,21,-1
 411 194 l 2,0,1
EndSplineSet
Colour: ff0000
EndChar
StartChar: uni03E0
Encoding: 992 992 607
Width: 600
Flags: W
LayerCount: 2
Fore
SplineSet
485 0 m 1,0,-1
 381 285 l 1,1,-1
 291 0 l 1,2,-1
 207 2 l 1,3,-1
 343 388 l 1,4,-1
 301 500 l 1,5,-1
 115 0 l 1,6,-1
 25 0 l 1,7,-1
 263 596 l 1,8,-1
 225 689 l 1,9,-1
 309 689 l 1,10,-1
 575 0 l 1,11,-1
 485 0 l 1,0,-1
EndSplineSet
Colour: ff0000
EndChar
StartChar: uni03FB
Encoding: 1019 1019 773
Width: 600
Flags: W
LayerCount: 2
Fore
SplineSet
83 527 m 1,0,-1
 196 527 l 1,1,-1
 294 139 l 1,2,-1
 403 527 l 1,3,-1
 516 527 l 1,4,-1
 559 0 l 1,5,-1
 476 0 l 1,6,-1
 456 262 l 2,7,8
 449 355 449 355 449 449 c 1,9,-1
 333 57 l 1,10,-1
 252 57 l 1,11,-1
 144 446 l 1,12,13
 144 335 144 335 138 263 c 2,14,-1
 101 -201 l 1,15,-1
 20 -212 l 1,16,-1
 83 527 l 1,0,-1
EndSplineSet
Colour: ff0000
EndChar
StartChar: uni03FD
Encoding: 1021 1021 616
Width: 600
Flags: W
LayerCount: 2
Fore
SplineSet
461 608 m 128,-1,1
 537 516 537 516 537 345 c 0,2,3
 537 232 537 232 498 152 c 128,-1,4
 459 72 459 72 391 30.5 c 128,-1,5
 323 -11 323 -11 238 -11 c 0,6,7
 109 -11 109 -11 32 64 c 1,8,-1
 77 121 l 1,9,10
 110 94 110 94 147.5 78.5 c 128,-1,11
 185 63 185 63 237 63 c 0,12,13
 332 63 332 63 389 131 c 128,-1,14
 446 199 446 199 446 345 c 0,15,16
 446 496 446 496 394.5 561.5 c 128,-1,17
 343 627 343 627 245 627 c 0,18,19
 158 627 158 627 84 576 c 1,20,-1
 42 633 l 1,21,22
 91 667 91 667 139 683.5 c 128,-1,23
 187 700 187 700 252 700 c 0,24,0
 385 700 385 700 461 608 c 128,-1,1
EndSplineSet
Colour: ff0000
EndChar
StartChar: uni0404
Encoding: 1028 1028 323
Width: 600
Flags: W
LayerCount: 2
Fore
SplineSet
463 683 m 128,-1,1
 510 666 510 666 552 633 c 1,2,-1
 507 580 l 1,3,4
 439 629 439 629 358 629 c 0,5,6
 272 629 272 629 215.5 571.5 c 128,-1,7
 159 514 159 514 149 390 c 1,8,-1
 454 390 l 1,9,-1
 454 318 l 1,10,-1
 147 318 l 1,11,12
 153 188 153 188 210 124.5 c 128,-1,13
 267 61 267 61 357 61 c 0,14,15
 450 61 450 61 516 121 c 1,16,-1
 562 64 l 1,17,18
 526 31 526 31 474.5 10 c 128,-1,19
 423 -11 423 -11 354 -11 c 0,20,21
 267 -11 267 -11 200 30 c 128,-1,22
 133 71 133 71 95.5 151.5 c 128,-1,23
 58 232 58 232 58 345 c 0,24,25
 58 457 58 457 97.5 537.5 c 128,-1,26
 137 618 137 618 204 659 c 128,-1,27
 271 700 271 700 352 700 c 0,28,0
 416 700 416 700 463 683 c 128,-1,1
EndSplineSet
Colour: ff0000
EndChar
StartChar: uni040A
Encoding: 1034 1034 321
Width: 600
Flags: W
LayerCount: 2
Fore
SplineSet
354 414 m 1,0,1
 479 414 479 414 539.5 365 c 128,-1,2
 600 316 600 316 600 212 c 0,3,4
 600 100 600 100 539 50 c 128,-1,5
 478 0 478 0 363 0 c 2,6,-1
 269 0 l 1,7,-1
 269 349 l 1,8,-1
 127 349 l 1,9,-1
 127 0 l 1,10,-1
 41 0 l 1,11,-1
 41 689 l 1,12,-1
 127 689 l 1,13,-1
 127 414 l 1,14,-1
 269 414 l 1,15,-1
 269 689 l 1,16,-1
 354 689 l 1,17,-1
 354 414 l 1,0,1
354 349 m 1,18,-1
 354 68 l 1,19,-1
 371 68 l 2,20,21
 419 68 419 68 448.5 79.5 c 128,-1,22
 478 91 478 91 493.5 122 c 128,-1,23
 509 153 509 153 509 211 c 0,24,25
 509 286 509 286 475 317.5 c 128,-1,26
 441 349 441 349 371 349 c 2,27,-1
 354 349 l 1,18,-1
EndSplineSet
Colour: ff0000
EndChar
StartChar: uni040B
Encoding: 1035 1035 328
Width: 600
Flags: W
LayerCount: 2
Fore
SplineSet
404 616 m 1,0,-1
 244 616 l 1,1,-1
 244 390 l 1,2,3
 306 450 306 450 388 450 c 0,4,5
 566 450 566 450 566 246 c 2,6,-1
 566 0 l 1,7,-1
 480 0 l 1,8,-1
 480 240 l 2,9,10
 480 312 480 312 454.5 343 c 128,-1,11
 429 374 429 374 369 374 c 0,12,13
 327 374 327 374 297.5 359 c 128,-1,14
 268 344 268 344 244 321 c 1,15,-1
 244 0 l 1,16,-1
 157 0 l 1,17,-1
 157 616 l 1,18,-1
 -5 616 l 1,19,-1
 -5 689 l 1,20,-1
 413 689 l 1,21,-1
 404 616 l 1,0,-1
EndSplineSet
Colour: ff0000
EndChar
StartChar: uni0416
Encoding: 1046 1046 292
Width: 600
Flags: W
LayerCount: 2
Fore
SplineSet
200 327 m 1,0,-1
 96 0 l 1,1,-1
 12 0 l 1,2,-1
 135 364 l 1,3,-1
 27 689 l 1,4,-1
 110 689 l 1,5,-1
 201 398 l 1,6,-1
 261 398 l 1,7,-1
 261 689 l 1,8,-1
 339 689 l 1,9,-1
 339 398 l 1,10,-1
 399 398 l 1,11,-1
 491 689 l 1,12,-1
 573 689 l 1,13,-1
 465 364 l 1,14,-1
 588 0 l 1,15,-1
 502 0 l 1,16,-1
 399 327 l 1,17,-1
 339 327 l 1,18,-1
 339 0 l 1,19,-1
 261 0 l 1,20,-1
 261 327 l 1,21,-1
 200 327 l 1,0,-1
EndSplineSet
Colour: ff0000
EndChar
StartChar: uni0417
Encoding: 1047 1047 293
Width: 600
Flags: W
LayerCount: 2
Fore
SplineSet
406.5 677.5 m 128,-1,1
 460 655 460 655 488.5 614 c 128,-1,2
 517 573 517 573 517 520 c 0,3,4
 517 459 517 459 477 421.5 c 128,-1,5
 437 384 437 384 375 375 c 1,6,7
 445 369 445 369 493 324.5 c 128,-1,8
 541 280 541 280 541 205 c 0,9,10
 541 143 541 143 509 94 c 128,-1,11
 477 45 477 45 417 17 c 128,-1,12
 357 -11 357 -11 278 -11 c 0,13,14
 205 -11 205 -11 142.5 14 c 128,-1,15
 80 39 80 39 35 86 c 1,16,-1
 89 135 l 1,17,18
 171 62 171 62 278 62 c 0,19,20
 358 62 358 62 402.5 99 c 128,-1,21
 447 136 447 136 447 202 c 256,22,23
 447 268 447 268 403 300.5 c 128,-1,24
 359 333 359 333 286 333 c 2,25,-1
 165 333 l 1,26,-1
 175 406 l 1,27,-1
 280 406 l 2,28,29
 343 406 343 406 385.5 434.5 c 128,-1,30
 428 463 428 463 428 519 c 0,31,32
 428 572 428 572 386.5 600.5 c 128,-1,33
 345 629 345 629 279 629 c 0,34,35
 225 629 225 629 182 612.5 c 128,-1,36
 139 596 139 596 97 563 c 1,37,-1
 49 614 l 1,38,39
 101 657 101 657 157.5 678.5 c 128,-1,40
 214 700 214 700 281 700 c 0,41,0
 353 700 353 700 406.5 677.5 c 128,-1,1
EndSplineSet
Colour: ff0000
EndChar
StartChar: uni0418
Encoding: 1048 1048 294
Width: 600
Flags: W
LayerCount: 2
Fore
SplineSet
83 689 m 1,0,-1
 169 689 l 1,1,-1
 169 340 l 2,2,3
 169 254 169 254 165.5 196.5 c 128,-1,4
 162 139 162 139 155 77 c 1,5,-1
 405 689 l 1,6,-1
 517 689 l 1,7,-1
 517 0 l 1,8,-1
 431 0 l 1,9,-1
 431 349 l 2,10,11
 431 482 431 482 445 606 c 1,12,-1
 197 0 l 1,13,-1
 83 0 l 1,14,-1
 83 689 l 1,0,-1
EndSplineSet
Colour: ff0000
EndChar
StartChar: uni041E
Encoding: 1054 1054 303
Width: 600
Flags: W
LayerCount: 2
Fore
SplineSet
487.5 86 m 128,-1,1
 422 -11 422 -11 300 -11 c 0,2,3
 177 -11 177 -11 112 84 c 128,-1,4
 47 179 47 179 47 343 c 0,5,6
 47 448 47 448 76 529 c 128,-1,7
 105 610 105 610 162 655 c 128,-1,8
 219 700 219 700 300 700 c 0,9,10
 422 700 422 700 487.5 603.5 c 128,-1,11
 553 507 553 507 553 344 c 0,12,0
 553 183 553 183 487.5 86 c 128,-1,1
424 556 m 128,-1,14
 385 627 385 627 300 627 c 256,15,16
 215 627 215 627 176 555.5 c 128,-1,17
 137 484 137 484 137 343 c 0,18,19
 137 203 137 203 176.5 132.5 c 128,-1,20
 216 62 216 62 300 62 c 0,21,22
 385 62 385 62 424 132.5 c 128,-1,23
 463 203 463 203 463 344 c 256,24,13
 463 485 463 485 424 556 c 128,-1,14
EndSplineSet
Colour: ff0000
EndChar
StartChar: uni0426
Encoding: 1062 1062 313
Width: 600
Flags: W
LayerCount: 2
Fore
SplineSet
578 73 m 1,0,-1
 578 -147 l 1,1,-1
 509 -147 l 1,2,-1
 495 0 l 1,3,-1
 83 0 l 1,4,-1
 83 689 l 1,5,-1
 170 689 l 1,6,-1
 170 72 l 1,7,-1
 430 72 l 1,8,-1
 430 689 l 1,9,-1
 517 689 l 1,10,-1
 517 73 l 1,11,-1
 578 73 l 1,0,-1
EndSplineSet
Colour: ff0000
EndChar
StartChar: uni042B
Encoding: 1067 1067 319
Width: 600
Flags: W
LayerCount: 2
Fore
SplineSet
119 433 m 1,0,-1
 182 433 l 2,1,2
 307 433 307 433 368.5 379 c 128,-1,3
 430 325 430 325 430 221 c 0,4,5
 430 111 430 111 366.5 55.5 c 128,-1,6
 303 0 303 0 184 0 c 2,7,-1
 31 0 l 1,8,-1
 31 689 l 1,9,-1
 119 689 l 1,10,-1
 119 433 l 1,0,-1
569 0 m 1,11,-1
 481 0 l 1,12,-1
 481 689 l 1,13,-1
 569 689 l 1,14,-1
 569 0 l 1,11,-1
119 367 m 1,15,-1
 119 69 l 1,16,-1
 193 69 l 2,17,18
 265 69 265 69 301.5 104.5 c 128,-1,19
 338 140 338 140 338 220 c 0,20,21
 338 367 338 367 191 367 c 2,22,-1
 119 367 l 1,15,-1
EndSplineSet
Colour: ff0000
EndChar
StartChar: uni0431
Encoding: 1073 1073 420
Width: 600
Flags: W
LayerCount: 2
Fore
SplineSet
432.5 463 m 128,-1,1
 476 434 476 434 500 379.5 c 128,-1,2
 524 325 524 325 524 252 c 0,3,4
 524 169 524 169 495.5 109.5 c 128,-1,5
 467 50 467 50 416.5 19.5 c 128,-1,6
 366 -11 366 -11 299 -11 c 0,7,8
 199 -11 199 -11 137 64 c 128,-1,9
 75 139 75 139 75 289 c 0,10,11
 75 404 75 404 92 477.5 c 128,-1,12
 109 551 109 551 150.5 599 c 128,-1,13
 192 647 192 647 268 673 c 1,14,15
 332 696 332 696 365 711 c 128,-1,16
 398 726 398 726 433 750 c 1,17,-1
 469 685 l 1,18,19
 403 644 403 644 310 609 c 0,20,21
 263 592 263 592 235 570 c 128,-1,22
 207 548 207 548 189.5 506.5 c 128,-1,23
 172 465 172 465 165 394 c 1,24,25
 191 439 191 439 234.5 465.5 c 128,-1,26
 278 492 278 492 332 492 c 0,27,0
 389 492 389 492 432.5 463 c 128,-1,1
396.5 100.5 m 128,-1,29
 432 143 432 143 432 249 c 0,30,31
 432 423 432 423 319 423 c 0,32,33
 273 423 273 423 233.5 398 c 128,-1,34
 194 373 194 373 167 319 c 1,35,-1
 167 255 l 2,36,37
 167 161 167 161 202 109.5 c 128,-1,38
 237 58 237 58 299 58 c 256,39,28
 361 58 361 58 396.5 100.5 c 128,-1,29
EndSplineSet
Colour: ff0000
EndChar
StartChar: uni0432
Encoding: 1074 1074 421
Width: 600
Flags: W
LayerCount: 2
Fore
SplineSet
499 247 m 128,-1,1
 532 215 532 215 532 156 c 0,2,3
 532 78 532 78 467.5 39 c 128,-1,4
 403 0 403 0 307 0 c 2,5,-1
 112 0 l 1,6,-1
 112 519 l 1,7,8
 205 538 205 538 290 538 c 0,9,10
 390 538 390 538 447.5 502 c 128,-1,11
 505 466 505 466 505 400 c 0,12,13
 505 357 505 357 481 328.5 c 128,-1,14
 457 300 457 300 398 285 c 1,15,0
 466 279 466 279 499 247 c 128,-1,1
196 464 m 1,17,-1
 196 312 l 1,18,-1
 304 312 l 2,19,20
 359 312 359 312 388.5 330.5 c 128,-1,21
 418 349 418 349 418 393 c 0,22,23
 418 434 418 434 387.5 452 c 128,-1,24
 357 470 357 470 292 470 c 0,25,16
 243 470 243 470 196 464 c 1,17,-1
402 84 m 128,-1,27
 443 100 443 100 443 155 c 0,28,29
 443 207 443 207 405.5 226 c 128,-1,30
 368 245 368 245 310 245 c 2,31,-1
 196 245 l 1,32,-1
 196 68 l 1,33,-1
 291 68 l 2,34,26
 361 68 361 68 402 84 c 128,-1,27
EndSplineSet
Colour: ff0000
EndChar
StartChar: uni0436
Encoding: 1078 1078 429
Width: 600
Flags: W
LayerCount: 2
Fore
SplineSet
263 247 m 1,0,-1
 206 247 l 1,1,-1
 102 0 l 1,2,-1
 20 0 l 1,3,-1
 142 283 l 1,4,-1
 29 527 l 1,5,-1
 115 527 l 1,6,-1
 207 312 l 1,7,-1
 263 312 l 1,8,-1
 263 527 l 1,9,-1
 337 527 l 1,10,-1
 337 312 l 1,11,-1
 393 312 l 1,12,-1
 488 527 l 1,13,-1
 571 527 l 1,14,-1
 458 283 l 1,15,-1
 580 0 l 1,16,-1
 495 0 l 1,17,-1
 391 247 l 1,18,-1
 337 247 l 1,19,-1
 337 0 l 1,20,-1
 263 0 l 1,21,-1
 263 247 l 1,0,-1
EndSplineSet
Colour: ff0000
EndChar
StartChar: uni043F
Encoding: 1087 1087 441
Width: 600
Flags: W
LayerCount: 2
Fore
SplineSet
416 458 m 1,0,-1
 184 458 l 1,1,-1
 184 0 l 1,2,-1
 100 0 l 1,3,-1
 100 527 l 1,4,-1
 500 527 l 1,5,-1
 500 0 l 1,6,-1
 416 0 l 1,7,-1
 416 458 l 1,0,-1
EndSplineSet
Colour: ff0000
EndChar
StartChar: uni0446
Encoding: 1094 1094 450
Width: 600
Flags: W
LayerCount: 2
Fore
SplineSet
575 69 m 1,0,-1
 575 -147 l 1,1,-1
 505 -147 l 1,2,-1
 491 0 l 1,3,-1
 94 0 l 1,4,-1
 94 527 l 1,5,-1
 178 527 l 1,6,-1
 178 70 l 1,7,-1
 410 70 l 1,8,-1
 410 527 l 1,9,-1
 494 527 l 1,10,-1
 494 69 l 1,11,-1
 575 69 l 1,0,-1
EndSplineSet
Colour: ff0000
EndChar
StartChar: uni0447
Encoding: 1095 1095 449
Width: 600
Flags: W
LayerCount: 2
Fore
SplineSet
489 0 m 1,0,-1
 405 0 l 1,1,-1
 405 223 l 1,2,3
 374 196 374 196 331 180 c 128,-1,4
 288 164 288 164 240 164 c 0,5,6
 164 164 164 164 124.5 204.5 c 128,-1,7
 85 245 85 245 85 319 c 2,8,-1
 85 527 l 1,9,-1
 169 527 l 1,10,-1
 169 329 l 2,11,12
 169 276 169 276 191 253 c 128,-1,13
 213 230 213 230 261 230 c 0,14,15
 300 230 300 230 341 246.5 c 128,-1,16
 382 263 382 263 405 290 c 1,17,-1
 405 527 l 1,18,-1
 489 527 l 1,19,-1
 489 0 l 1,0,-1
EndSplineSet
Colour: ff0000
EndChar
StartChar: uni0449
Encoding: 1097 1097 452
Width: 600
Flags: W
LayerCount: 2
Fore
SplineSet
623 69 m 1,0,-1
 623 -147 l 1,1,-1
 553 -147 l 1,2,-1
 539 0 l 1,3,-1
 49 0 l 1,4,-1
 49 527 l 1,5,-1
 128 527 l 1,6,-1
 128 70 l 1,7,-1
 261 70 l 1,8,-1
 261 527 l 1,9,-1
 339 527 l 1,10,-1
 339 70 l 1,11,-1
 473 70 l 1,12,-1
 473 527 l 1,13,-1
 551 527 l 1,14,-1
 551 69 l 1,15,-1
 623 69 l 1,0,-1
EndSplineSet
Colour: ff0000
EndChar
StartChar: uni044A
Encoding: 1098 1098 455
Width: 600
Flags: W
LayerCount: 2
Fore
SplineSet
242 361 m 1,0,-1
 305 361 l 2,1,2
 545 361 545 361 545 184 c 0,3,4
 545 0 545 0 305 0 c 2,5,-1
 158 0 l 1,6,-1
 158 462 l 1,7,-1
 33 462 l 1,8,-1
 33 527 l 1,9,-1
 242 527 l 1,10,-1
 242 361 l 1,0,-1
242 295 m 1,11,-1
 242 68 l 1,12,-1
 314 68 l 2,13,14
 381 68 381 68 418 93 c 128,-1,15
 455 118 455 118 455 183 c 0,16,17
 455 242 455 242 419 268.5 c 128,-1,18
 383 295 383 295 315 295 c 2,19,-1
 242 295 l 1,11,-1
EndSplineSet
Colour: ff0000
EndChar
StartChar: uni044B
Encoding: 1099 1099 456
Width: 600
Flags: W
LayerCount: 2
Fore
SplineSet
142 356 m 1,0,-1
 178 356 l 2,1,2
 286 356 286 356 344 313.5 c 128,-1,3
 402 271 402 271 402 183 c 0,4,5
 402 90 402 90 343 45 c 128,-1,6
 284 0 284 0 178 0 c 2,7,-1
 62 0 l 1,8,-1
 62 527 l 1,9,-1
 142 527 l 1,10,-1
 142 356 l 1,0,-1
538 0 m 1,11,-1
 457 0 l 1,12,-1
 457 527 l 1,13,-1
 538 527 l 1,14,-1
 538 0 l 1,11,-1
142 293 m 1,15,-1
 142 65 l 1,16,-1
 181 65 l 2,17,18
 248 65 248 65 281.5 91 c 128,-1,19
 315 117 315 117 315 182 c 0,20,21
 315 241 315 241 283 267 c 128,-1,22
 251 293 251 293 181 293 c 2,23,-1
 142 293 l 1,15,-1
EndSplineSet
Colour: ff0000
EndChar
StartChar: uni044C
Encoding: 1100 1100 454
Width: 600
Flags: W
LayerCount: 2
Fore
SplineSet
210 361 m 1,0,-1
 313 361 l 2,1,2
 431 361 431 361 482.5 314.5 c 128,-1,3
 534 268 534 268 534 181 c 0,4,5
 534 121 534 121 506 80 c 128,-1,6
 478 39 478 39 432 19.5 c 128,-1,7
 386 0 386 0 332 0 c 2,8,-1
 126 0 l 1,9,-1
 126 527 l 1,10,-1
 210 527 l 1,11,-1
 210 361 l 1,0,-1
210 295 m 1,12,-1
 210 68 l 1,13,-1
 323 68 l 2,14,15
 380 68 380 68 411.5 93.5 c 128,-1,16
 443 119 443 119 443 181 c 0,17,18
 443 240 443 240 414 267.5 c 128,-1,19
 385 295 385 295 312 295 c 2,20,-1
 210 295 l 1,12,-1
EndSplineSet
Colour: ff0000
EndChar
StartChar: uni044D
Encoding: 1101 1101 461
Width: 600
Flags: W
LayerCount: 2
Fore
SplineSet
456 466 m 128,-1,1
 516 394 516 394 516 266 c 0,2,3
 516 139 516 139 453 64 c 128,-1,4
 390 -11 390 -11 273 -11 c 0,5,6
 224 -11 224 -11 175.5 5 c 128,-1,7
 127 21 127 21 91 51 c 1,8,-1
 132 107 l 1,9,10
 196 59 196 59 272 59 c 0,11,12
 342 59 342 59 383 102.5 c 128,-1,13
 424 146 424 146 429 237 c 1,14,-1
 181 237 l 1,15,-1
 181 303 l 1,16,-1
 428 303 l 1,17,18
 421 387 421 387 382 428.5 c 128,-1,19
 343 470 343 470 277 470 c 0,20,21
 199 470 199 470 136 423 c 1,22,-1
 96 477 l 1,23,24
 131 506 131 506 180 522 c 128,-1,25
 229 538 229 538 278 538 c 0,26,0
 396 538 396 538 456 466 c 128,-1,1
EndSplineSet
Colour: ff0000
EndChar
StartChar: uni0452
Encoding: 1106 1106 468
Width: 600
Flags: W
LayerCount: 2
Fore
SplineSet
184 665 m 1,0,-1
 353 665 l 1,1,-1
 353 597 l 1,2,-1
 184 597 l 1,3,-1
 184 458 l 1,4,5
 215 495 215 495 260.5 516.5 c 128,-1,6
 306 538 306 538 353 538 c 0,7,8
 501 538 501 538 501 382 c 2,9,-1
 501 26 l 2,10,11
 501 -45 501 -45 484 -89 c 128,-1,12
 467 -133 467 -133 434.5 -159.5 c 128,-1,13
 402 -186 402 -186 346 -211 c 1,14,-1
 315 -150 l 1,15,16
 354 -131 354 -131 375 -113.5 c 128,-1,17
 396 -96 396 -96 406.5 -64 c 128,-1,18
 417 -32 417 -32 417 24 c 2,19,-1
 417 378 l 2,20,21
 417 427 417 427 395 449 c 128,-1,22
 373 471 373 471 325 471 c 0,23,24
 284 471 284 471 246 445 c 128,-1,25
 208 419 208 419 184 384 c 1,26,-1
 184 0 l 1,27,-1
 100 0 l 1,28,-1
 100 597 l 1,29,-1
 19 597 l 1,30,-1
 19 665 l 1,31,-1
 100 665 l 1,32,-1
 100 738 l 1,33,-1
 184 747 l 1,34,-1
 184 665 l 1,0,-1
EndSplineSet
Colour: ff0000
EndChar
StartChar: uni0454
Encoding: 1108 1108 460
Width: 600
Flags: W
LayerCount: 2
Fore
SplineSet
516 480 m 1,1,-1
 476 425 l 1,2,3
 442 449 442 449 409 459.5 c 128,-1,4
 376 470 376 470 338 470 c 0,5,6
 275 470 275 470 232 427 c 128,-1,7
 189 384 189 384 180 303 c 1,8,-1
 420 303 l 1,9,-1
 420 237 l 1,10,-1
 179 237 l 1,11,12
 184 147 184 147 227 103 c 128,-1,13
 270 59 270 59 338 59 c 0,14,15
 377 59 377 59 410 70 c 128,-1,16
 443 81 443 81 477 104 c 1,17,-1
 516 50 l 1,18,19
 482 21 482 21 434 5 c 128,-1,20
 386 -11 386 -11 341 -11 c 0,21,22
 222 -11 222 -11 156.5 62.5 c 128,-1,23
 91 136 91 136 91 261 c 0,24,25
 91 341 91 341 120.5 403.5 c 128,-1,26
 150 466 150 466 206.5 502 c 128,-1,27
 263 538 263 538 340 538 c 0,28,0
 442 538 442 538 516 480 c 1,1,-1
EndSplineSet
Colour: ff0000
EndChar
StartChar: uni045A
Encoding: 1114 1114 458
Width: 600
Flags: W
LayerCount: 2
Fore
SplineSet
366 328 m 1,0,-1
 379 328 l 2,1,2
 484 328 484 328 539.5 289.5 c 128,-1,3
 595 251 595 251 595 165 c 0,4,5
 595 0 595 0 382 0 c 2,6,-1
 285 0 l 1,7,-1
 285 266 l 1,8,-1
 155 266 l 1,9,-1
 155 0 l 1,10,-1
 72 0 l 1,11,-1
 72 527 l 1,12,-1
 155 527 l 1,13,-1
 155 328 l 1,14,-1
 285 328 l 1,15,-1
 285 527 l 1,16,-1
 366 527 l 1,17,-1
 366 328 l 1,0,-1
366 266 m 1,18,-1
 366 65 l 1,19,-1
 385 65 l 2,20,21
 427 65 427 65 452.5 72 c 128,-1,22
 478 79 478 79 492.5 100.5 c 128,-1,23
 507 122 507 122 507 165 c 0,24,25
 507 222 507 222 478 244 c 128,-1,26
 449 266 449 266 383 266 c 2,27,-1
 366 266 l 1,18,-1
EndSplineSet
Colour: ff0000
EndChar
StartChar: uni0464
Encoding: 1124 1124 334
Width: 600
Flags: W
LayerCount: 2
Fore
SplineSet
595 37 m 1,0,1
 565 14 565 14 530.5 1.5 c 128,-1,2
 496 -11 496 -11 446 -11 c 0,3,4
 335 -11 335 -11 269 74.5 c 128,-1,5
 203 160 203 160 198 318 c 1,6,-1
 128 318 l 1,7,-1
 128 0 l 1,8,-1
 40 0 l 1,9,-1
 40 688 l 1,10,-1
 128 688 l 1,11,-1
 128 393 l 1,12,-1
 199 393 l 1,13,14
 209 541 209 541 276.5 620.5 c 128,-1,15
 344 700 344 700 451 700 c 0,16,17
 496 700 496 700 526.5 690 c 128,-1,18
 557 680 557 680 588 659 c 1,19,-1
 546 602 l 1,20,21
 522 616 522 616 502 622 c 128,-1,22
 482 628 482 628 453 628 c 0,23,24
 307 628 307 628 288 391 c 1,25,-1
 517 391 l 1,26,-1
 517 317 l 1,27,-1
 286 317 l 1,28,29
 293 186 293 186 335 124 c 128,-1,30
 377 62 377 62 449 62 c 0,31,32
 483 62 483 62 504 70 c 128,-1,33
 525 78 525 78 554 95 c 1,34,-1
 595 37 l 1,0,1
EndSplineSet
Colour: ff0000
EndChar
StartChar: uni0465
Encoding: 1125 1125 471
Width: 600
Flags: W
LayerCount: 2
Fore
SplineSet
487 70.5 m 128,-1,1
 510 81 510 81 535 102 c 1,2,-1
 581 50 l 1,3,4
 550 20 550 20 511.5 4.5 c 128,-1,5
 473 -11 473 -11 436 -11 c 0,6,7
 343 -11 343 -11 286.5 54.5 c 128,-1,8
 230 120 230 120 224 234 c 1,9,-1
 160 234 l 1,10,-1
 160 0 l 1,11,-1
 76 0 l 1,12,-1
 76 527 l 1,13,-1
 160 527 l 1,14,-1
 160 304 l 1,15,-1
 225 304 l 1,16,17
 235 410 235 410 290 474 c 128,-1,18
 345 538 345 538 439 538 c 0,19,20
 480 538 480 538 515 524 c 128,-1,21
 550 510 550 510 584 481 c 1,22,-1
 541 429 l 1,23,24
 515 449 515 449 491 459 c 128,-1,25
 467 469 467 469 437 469 c 0,26,27
 380 469 380 469 348.5 426.5 c 128,-1,28
 317 384 317 384 308 303 c 1,29,-1
 506 303 l 1,30,-1
 506 237 l 1,31,-1
 307 237 l 1,32,33
 310 148 310 148 344 104 c 128,-1,34
 378 60 378 60 434 60 c 0,35,0
 464 60 464 60 487 70.5 c 128,-1,1
EndSplineSet
Colour: ff0000
EndChar
StartChar: uni0467
Encoding: 1127 1127 472
Width: 600
Flags: W
LayerCount: 2
Fore
SplineSet
397 204 m 1,0,-1
 334 204 l 1,1,-1
 334 0 l 1,2,-1
 262 0 l 1,3,-1
 262 204 l 1,4,-1
 201 204 l 1,5,-1
 122 0 l 1,6,-1
 36 0 l 1,7,-1
 253 527 l 1,8,-1
 350 527 l 1,9,-1
 565 0 l 1,10,-1
 476 0 l 1,11,-1
 397 204 l 1,0,-1
371 272 m 1,12,-1
 299 458 l 1,13,-1
 227 272 l 1,14,-1
 371 272 l 1,12,-1
EndSplineSet
Colour: ff0000
EndChar
StartChar: uni0468
Encoding: 1128 1128 336
Width: 600
Flags: W
LayerCount: 2
Fore
SplineSet
449 291 m 1,0,-1
 413 291 l 1,1,-1
 413 0 l 1,2,-1
 340 0 l 1,3,-1
 340 291 l 1,4,-1
 304 291 l 1,5,-1
 239 0 l 1,6,-1
 158 0 l 1,7,-1
 228 291 l 1,8,-1
 123 291 l 1,9,-1
 123 0 l 1,10,-1
 37 0 l 1,11,-1
 37 689 l 1,12,-1
 123 689 l 1,13,-1
 123 360 l 1,14,-1
 230 360 l 1,15,-1
 232 311 l 1,16,-1
 233 313 l 1,17,-1
 323 689 l 1,18,-1
 434 689 l 1,19,-1
 599 0 l 1,20,-1
 514 0 l 1,21,-1
 449 291 l 1,0,-1
434 360 m 1,22,-1
 377 621 l 1,23,-1
 319 360 l 1,24,-1
 434 360 l 1,22,-1
EndSplineSet
Colour: ff0000
EndChar
StartChar: uni046D
Encoding: 1133 1133 475
Width: 600
Flags: W
LayerCount: 2
Fore
SplineSet
612 0 m 1,0,-1
 532 0 l 1,1,-1
 459 229 l 1,2,-1
 422 229 l 1,3,-1
 422 0 l 1,4,-1
 344 0 l 1,5,-1
 344 229 l 1,6,-1
 308 229 l 1,7,-1
 233 0 l 1,8,-1
 154 0 l 1,9,-1
 234 229 l 1,10,-1
 117 229 l 1,11,-1
 117 0 l 1,12,-1
 35 0 l 1,13,-1
 35 527 l 1,14,-1
 117 527 l 1,15,-1
 117 298 l 1,16,-1
 310 298 l 1,17,-1
 203 481 l 1,18,-1
 203 527 l 1,19,-1
 558 527 l 1,20,-1
 558 481 l 1,21,-1
 451 298 l 1,22,-1
 511 298 l 1,23,-1
 612 0 l 1,0,-1
384 298 m 1,24,-1
 473 464 l 1,25,-1
 292 464 l 1,26,-1
 384 298 l 1,24,-1
EndSplineSet
Colour: ff0000
EndChar
StartChar: uni0475
Encoding: 1141 1141 479
Width: 600
Flags: W
LayerCount: 2
Fore
SplineSet
57 527 m 1,0,-1
 149 527 l 1,1,-1
 292 77 l 1,2,-1
 416 467 l 2,3,4
 435 526 435 526 458.5 550 c 128,-1,5
 482 574 482 574 528 574 c 0,6,7
 557 574 557 574 597 555 c 1,8,-1
 569 499 l 1,9,10
 554 505 554 505 538 505 c 0,11,12
 521 505 521 505 511.5 495 c 128,-1,13
 502 485 502 485 494 460 c 2,14,-1
 342 0 l 1,15,-1
 240 0 l 1,16,-1
 57 527 l 1,0,-1
EndSplineSet
Colour: ff0000
EndChar
StartChar: uni0478
Encoding: 1144 1144 344
Width: 600
Flags: W
LayerCount: 2
Fore
SplineSet
45 78 m 128,-1,1
 9 167 9 167 9 343 c 0,2,3
 9 517 9 517 45 608.5 c 128,-1,4
 81 700 81 700 164 700 c 256,5,6
 247 700 247 700 283.5 609.5 c 128,-1,7
 320 519 320 519 320 344 c 0,8,9
 320 168 320 168 283.5 78.5 c 128,-1,10
 247 -11 247 -11 164 -11 c 256,11,0
 81 -11 81 -11 45 78 c 128,-1,1
210 84.5 m 128,-1,13
 226 114 226 114 232.5 176 c 128,-1,14
 239 238 239 238 239 344 c 0,15,16
 239 449 239 449 232.5 511 c 128,-1,17
 226 573 226 573 210 603 c 128,-1,18
 194 633 194 633 164 633 c 0,19,20
 135 633 135 633 119 603 c 128,-1,21
 103 573 103 573 96.5 510.5 c 128,-1,22
 90 448 90 448 90 343 c 0,23,24
 90 188 90 188 106.5 121.5 c 128,-1,25
 123 55 123 55 164 55 c 0,26,12
 194 55 194 55 210 84.5 c 128,-1,13
338 -148 m 1,27,28
 382 -135 382 -135 407.5 -100.5 c 128,-1,29
 433 -66 433 -66 443 0 c 1,30,-1
 408 0 l 1,31,-1
 324 527 l 1,32,-1
 400 527 l 1,33,-1
 461 64 l 1,34,-1
 517 527 l 1,35,-1
 594 527 l 1,36,-1
 511 -3 l 2,37,38
 497 -91 497 -91 456.5 -141.5 c 128,-1,39
 416 -192 416 -192 349 -212 c 1,40,-1
 338 -148 l 1,27,28
EndSplineSet
Colour: ff0000
EndChar
StartChar: uni048A
Encoding: 1162 1162 297
Width: 600
Flags: W
LayerCount: 2
Fore
SplineSet
197 802.5 m 128,-1,1
 156 832 156 832 150 885 c 1,2,-1
 208 898 l 1,3,4
 219 866 219 866 240.5 852 c 128,-1,5
 262 838 262 838 298 838 c 256,6,7
 334 838 334 838 357 852 c 128,-1,8
 380 866 380 866 391 898 c 1,9,-1
 448 885 l 1,10,11
 442 832 442 832 400 802.5 c 128,-1,12
 358 773 358 773 298 773 c 256,13,0
 238 773 238 773 197 802.5 c 128,-1,1
607 69 m 1,14,-1
 529 -147 l 1,15,-1
 461 -147 l 1,16,-1
 496 0 l 1,17,-1
 431 0 l 1,18,-1
 431 349 l 2,19,20
 431 482 431 482 445 606 c 1,21,-1
 197 0 l 1,22,-1
 83 0 l 1,23,-1
 83 689 l 1,24,-1
 169 689 l 1,25,-1
 169 340 l 2,26,27
 169 254 169 254 165.5 196.5 c 128,-1,28
 162 139 162 139 155 77 c 1,29,-1
 405 689 l 1,30,-1
 517 689 l 1,31,-1
 517 69 l 1,32,-1
 607 69 l 1,14,-1
EndSplineSet
Colour: ff0000
EndChar
StartChar: uni048B
Encoding: 1163 1163 434
Width: 600
Flags: W
LayerCount: 2
Fore
SplineSet
186 676.5 m 128,-1,1
 145 706 145 706 139 759 c 1,2,-1
 197 772 l 1,3,4
 207 740 207 740 228.5 726 c 128,-1,5
 250 712 250 712 286 712 c 256,6,7
 322 712 322 712 345 726 c 128,-1,8
 368 740 368 740 379 772 c 1,9,-1
 437 759 l 1,10,11
 431 706 431 706 389 676.5 c 128,-1,12
 347 647 347 647 286 647 c 0,13,0
 227 647 227 647 186 676.5 c 128,-1,1
561 66 m 1,14,-1
 495 -147 l 1,15,-1
 426 -147 l 1,16,-1
 460 0 l 1,17,-1
 402 0 l 1,18,-1
 402 246 l 2,19,20
 402 362 402 362 412 449 c 1,21,-1
 195 0 l 1,22,-1
 93 0 l 1,23,-1
 93 527 l 1,24,-1
 175 527 l 1,25,-1
 175 280 l 2,26,27
 175 222 175 222 171 165.5 c 128,-1,28
 167 109 167 109 161 80 c 1,29,-1
 381 527 l 1,30,-1
 484 527 l 1,31,-1
 484 66 l 1,32,-1
 561 66 l 1,14,-1
EndSplineSet
Colour: ff0000
EndChar
StartChar: uni0491
Encoding: 1169 1169 424
Width: 600
Flags: W
LayerCount: 2
Fore
SplineSet
524 659 m 1,0,-1
 524 527 l 1,1,-1
 514 456 l 1,2,-1
 242 456 l 1,3,-1
 242 0 l 1,4,-1
 158 0 l 1,5,-1
 158 527 l 1,6,-1
 439 527 l 1,7,-1
 439 659 l 1,8,-1
 524 659 l 1,0,-1
EndSplineSet
Colour: ff0000
EndChar
StartChar: uni0492
Encoding: 1170 1170 345
Width: 600
Flags: W
LayerCount: 2
Fore
SplineSet
253 612 m 1,0,-1
 253 433 l 1,1,-1
 411 433 l 1,2,-1
 411 366 l 1,3,-1
 253 366 l 1,4,-1
 253 0 l 1,5,-1
 167 0 l 1,6,-1
 167 366 l 1,7,-1
 66 366 l 1,8,-1
 66 433 l 1,9,-1
 167 433 l 1,10,-1
 167 689 l 1,11,-1
 575 689 l 1,12,-1
 566 612 l 1,13,-1
 253 612 l 1,0,-1
EndSplineSet
Colour: ff0000
EndChar
StartChar: uni0497
Encoding: 1175 1175 484
Width: 600
Flags: W
LayerCount: 2
Fore
SplineSet
601 69 m 1,0,-1
 601 -147 l 1,1,-1
 540 -147 l 1,2,-1
 526 0 l 1,3,-1
 491 0 l 1,4,-1
 391 247 l 1,5,-1
 337 247 l 1,6,-1
 337 0 l 1,7,-1
 263 0 l 1,8,-1
 263 247 l 1,9,-1
 206 247 l 1,10,-1
 107 0 l 1,11,-1
 24 0 l 1,12,-1
 142 283 l 1,13,-1
 34 527 l 1,14,-1
 119 527 l 1,15,-1
 207 312 l 1,16,-1
 263 312 l 1,17,-1
 263 527 l 1,18,-1
 337 527 l 1,19,-1
 337 312 l 1,20,-1
 393 312 l 1,21,-1
 484 527 l 1,22,-1
 566 527 l 1,23,-1
 458 283 l 1,24,-1
 547 69 l 1,25,-1
 601 69 l 1,0,-1
EndSplineSet
Colour: ff0000
EndChar
StartChar: uni0499
Encoding: 1177 1177 485
Width: 600
Flags: W
LayerCount: 2
Fore
SplineSet
463.5 42.5 m 128,-1,1
 410 0 410 0 321 -9 c 1,2,-1
 321 -57 l 1,3,4
 367 -61 367 -61 390.5 -84.5 c 128,-1,5
 414 -108 414 -108 414 -140 c 0,6,7
 414 -187 414 -187 378.5 -212.5 c 128,-1,8
 343 -238 343 -238 292 -238 c 0,9,10
 262 -238 262 -238 234.5 -231.5 c 128,-1,11
 207 -225 207 -225 187 -214 c 1,12,-1
 214 -166 l 1,13,14
 244 -182 244 -182 281 -182 c 0,15,16
 341 -182 341 -182 341 -141 c 0,17,18
 341 -115 341 -115 320 -106 c 128,-1,19
 299 -97 299 -97 255 -97 c 1,20,-1
 261 -11 l 1,21,22
 140 -7 140 -7 54 62 c 1,23,-1
 94 116 l 1,24,25
 175 58 175 58 281 58 c 0,26,27
 352 58 352 58 389 84 c 128,-1,28
 426 110 426 110 426 155 c 0,29,30
 426 241 426 241 292 241 c 2,31,-1
 186 241 l 1,32,-1
 191 309 l 1,33,-1
 286 309 l 2,34,35
 339 309 339 309 369.5 331 c 128,-1,36
 400 353 400 353 400 389 c 0,37,38
 400 470 400 470 276 470 c 0,39,40
 235 470 235 470 192 458 c 128,-1,41
 149 446 149 446 113 424 c 1,42,-1
 73 474 l 1,43,44
 113 504 113 504 168 521 c 128,-1,45
 223 538 223 538 279 538 c 0,46,47
 370 538 370 538 429 500.5 c 128,-1,48
 488 463 488 463 488 394 c 0,49,50
 488 352 488 352 459 323.5 c 128,-1,51
 430 295 430 295 381 281 c 1,52,53
 413 280 413 280 444.5 265 c 128,-1,54
 476 250 476 250 496.5 222 c 128,-1,55
 517 194 517 194 517 157 c 0,56,0
 517 85 517 85 463.5 42.5 c 128,-1,1
EndSplineSet
Colour: ff0000
EndChar
StartChar: uni049A
Encoding: 1178 1178 349
Width: 600
Flags: W
LayerCount: 2
Fore
SplineSet
587 73 m 1,0,-1
 587 -147 l 1,1,-1
 518 -147 l 1,2,-1
 504 0 l 1,3,-1
 482 0 l 1,4,-1
 261 326 l 1,5,-1
 181 326 l 1,6,-1
 181 0 l 1,7,-1
 95 0 l 1,8,-1
 95 689 l 1,9,-1
 181 689 l 1,10,-1
 181 399 l 1,11,-1
 262 399 l 1,12,-1
 474 689 l 1,13,-1
 568 689 l 1,14,-1
 336 364 l 1,15,-1
 536 73 l 1,16,-1
 587 73 l 1,0,-1
EndSplineSet
Colour: ff0000
EndChar
StartChar: uni049B
Encoding: 1179 1179 486
Width: 600
Flags: W
LayerCount: 2
Fore
SplineSet
587 69 m 1,0,-1
 587 -147 l 1,1,-1
 517 -147 l 1,2,-1
 503 0 l 1,3,-1
 467 0 l 1,4,-1
 293 245 l 1,5,-1
 190 245 l 1,6,-1
 190 0 l 1,7,-1
 106 0 l 1,8,-1
 106 527 l 1,9,-1
 190 527 l 1,10,-1
 190 313 l 1,11,-1
 295 313 l 1,12,-1
 447 527 l 1,13,-1
 542 527 l 1,14,-1
 364 283 l 1,15,-1
 519 69 l 1,16,-1
 587 69 l 1,0,-1
EndSplineSet
Colour: ff0000
EndChar
StartChar: uni049E
Encoding: 1182 1182 351
Width: 600
Flags: W
LayerCount: 2
Fore
SplineSet
584 0 m 1,0,-1
 479 0 l 1,1,-1
 278 326 l 1,2,-1
 198 326 l 1,3,-1
 198 0 l 1,4,-1
 112 0 l 1,5,-1
 112 523 l 1,6,-1
 37 523 l 1,7,-1
 37 593 l 1,8,-1
 112 593 l 1,9,-1
 112 689 l 1,10,-1
 198 689 l 1,11,-1
 198 593 l 1,12,-1
 313 593 l 1,13,-1
 313 523 l 1,14,-1
 198 523 l 1,15,-1
 198 399 l 1,16,-1
 280 399 l 1,17,-1
 471 689 l 1,18,-1
 565 689 l 1,19,-1
 353 364 l 1,20,-1
 584 0 l 1,0,-1
EndSplineSet
Colour: ff0000
EndChar
StartChar: uni04A0
Encoding: 1184 1184 352
Width: 600
Flags: W
LayerCount: 2
Fore
SplineSet
220 325 m 1,0,-1
 220 0 l 1,1,-1
 132 0 l 1,2,-1
 132 612 l 1,3,-1
 11 612 l 1,4,-1
 11 689 l 1,5,-1
 220 689 l 1,6,-1
 220 399 l 1,7,-1
 291 399 l 1,8,-1
 486 689 l 1,9,-1
 580 689 l 1,10,-1
 365 364 l 1,11,-1
 599 0 l 1,12,-1
 494 0 l 1,13,-1
 289 325 l 1,14,-1
 220 325 l 1,0,-1
EndSplineSet
Colour: ff0000
EndChar
StartChar: uni04A2
Encoding: 1186 1186 353
Width: 600
Flags: W
LayerCount: 2
Fore
SplineSet
578 73 m 1,0,-1
 578 -147 l 1,1,-1
 509 -147 l 1,2,-1
 495 0 l 1,3,-1
 430 0 l 1,4,-1
 430 327 l 1,5,-1
 170 327 l 1,6,-1
 170 0 l 1,7,-1
 83 0 l 1,8,-1
 83 689 l 1,9,-1
 170 689 l 1,10,-1
 170 398 l 1,11,-1
 430 398 l 1,12,-1
 430 689 l 1,13,-1
 517 689 l 1,14,-1
 517 73 l 1,15,-1
 578 73 l 1,0,-1
EndSplineSet
Colour: ff0000
EndChar
StartChar: uni04A9
Encoding: 1193 1193 493
Width: 600
Flags: W
LayerCount: 2
Fore
SplineSet
519 107.5 m 128,-1,1
 488 55 488 55 433 24 c 1,2,-1
 473 -24 l 1,3,-1
 516 -76 l 1,4,-1
 459 -119 l 1,5,-1
 409 -58 l 2,6,7
 367 -8 367 -8 363 -3 c 1,8,9
 334 -11 334 -11 291 -11 c 0,10,11
 182 -11 182 -11 119.5 60.5 c 128,-1,12
 57 132 57 132 57 259 c 0,13,14
 57 343 57 343 84 406 c 128,-1,15
 111 469 111 469 162 503.5 c 128,-1,16
 213 538 213 538 282 538 c 256,17,18
 351 538 351 538 404 508 c 1,19,-1
 370 447 l 1,20,21
 332 467 332 467 286 467 c 0,22,23
 221 467 221 467 185 415 c 128,-1,24
 149 363 149 363 149 261 c 0,25,26
 149 58 149 58 294 58 c 2,27,-1
 317 58 l 1,28,29
 289 101 289 101 274 139 c 128,-1,30
 259 177 259 177 259 215 c 0,31,32
 259 278 259 278 298.5 321.5 c 128,-1,33
 338 365 338 365 406 365 c 0,34,35
 472 365 472 365 511 325 c 128,-1,36
 550 285 550 285 550 219 c 0,37,0
 550 160 550 160 519 107.5 c 128,-1,1
354.5 147.5 m 128,-1,39
 367 115 367 115 392 78 c 1,40,41
 430 98 430 98 449 135 c 128,-1,42
 468 172 468 172 468 219 c 0,43,44
 468 256 468 256 452 277.5 c 128,-1,45
 436 299 436 299 407 299 c 0,46,47
 375 299 375 299 358.5 276 c 128,-1,48
 342 253 342 253 342 214 c 0,49,38
 342 180 342 180 354.5 147.5 c 128,-1,39
EndSplineSet
Colour: ff0000
EndChar
StartChar: uni04AB
Encoding: 1195 1195 494
Width: 600
Flags: W
LayerCount: 2
Fore
SplineSet
437 -61.5 m 128,-1,1
 457 -92 457 -92 457 -128 c 0,2,3
 457 -178 457 -178 423.5 -208.5 c 128,-1,4
 390 -239 390 -239 332 -239 c 0,5,6
 275 -239 275 -239 235 -214 c 1,7,-1
 257 -163 l 1,8,9
 276 -172 276 -172 290.5 -176.5 c 128,-1,10
 305 -181 305 -181 327 -181 c 0,11,12
 355 -181 355 -181 369.5 -166 c 128,-1,13
 384 -151 384 -151 384 -125 c 0,14,15
 384 -59 384 -59 310 -10 c 1,16,17
 206 -1 206 -1 148.5 71.5 c 128,-1,18
 91 144 91 144 91 261 c 0,19,20
 91 340 91 340 120.5 403 c 128,-1,21
 150 466 150 466 206 502 c 128,-1,22
 262 538 262 538 339 538 c 0,23,24
 441 538 441 538 515 476 c 1,25,-1
 474 421 l 1,26,27
 405 467 405 467 338 467 c 0,28,29
 267 467 267 467 224.5 414.5 c 128,-1,30
 182 362 182 362 182 261 c 256,31,32
 182 160 182 160 224.5 110.5 c 128,-1,33
 267 61 267 61 339 61 c 0,34,35
 408 61 408 61 476 107 c 1,36,-1
 516 52 l 1,37,38
 490 30 490 30 454 14 c 128,-1,39
 418 -2 418 -2 380 -8 c 1,40,0
 417 -31 417 -31 437 -61.5 c 128,-1,1
EndSplineSet
Colour: ff0000
EndChar
StartChar: uni04AC
Encoding: 1196 1196 358
Width: 600
Flags: W
LayerCount: 2
Fore
SplineSet
342 614 m 1,0,-1
 342 73 l 1,1,-1
 403 73 l 1,2,-1
 403 -147 l 1,3,-1
 334 -147 l 1,4,-1
 320 0 l 1,5,-1
 255 0 l 1,6,-1
 255 614 l 1,7,-1
 40 614 l 1,8,-1
 40 689 l 1,9,-1
 559 689 l 1,10,-1
 550 614 l 1,11,-1
 342 614 l 1,0,-1
EndSplineSet
Colour: ff0000
EndChar
StartChar: uni04AF
Encoding: 1199 1199 496
Width: 600
Flags: W
LayerCount: 2
Fore
SplineSet
259 16 m 1,0,-1
 58 527 l 1,1,-1
 147 527 l 1,2,-1
 302 97 l 1,3,-1
 455 527 l 1,4,-1
 542 527 l 1,5,-1
 341 16 l 1,6,-1
 341 -202 l 1,7,-1
 259 -212 l 1,8,-1
 259 16 l 1,0,-1
EndSplineSet
Colour: ff0000
EndChar
StartChar: uni04B0
Encoding: 1200 1200 360
Width: 600
Flags: W
LayerCount: 2
Fore
SplineSet
373 319 m 1,0,-1
 472 319 l 1,1,-1
 472 251 l 1,2,-1
 344 251 l 1,3,-1
 344 0 l 1,4,-1
 256 0 l 1,5,-1
 256 251 l 1,6,-1
 128 251 l 1,7,-1
 128 319 l 1,8,-1
 226 319 l 1,9,-1
 23 689 l 1,10,-1
 119 689 l 1,11,-1
 302 343 l 1,12,-1
 487 689 l 1,13,-1
 577 689 l 1,14,-1
 373 319 l 1,0,-1
EndSplineSet
Colour: ff0000
EndChar
StartChar: uni04B3
Encoding: 1203 1203 498
Width: 600
Flags: W
LayerCount: 2
Fore
SplineSet
56 0 m 1,0,-1
 250 278 l 1,1,-1
 79 527 l 1,2,-1
 179 527 l 1,3,-1
 301 331 l 1,4,-1
 424 527 l 1,5,-1
 521 527 l 1,6,-1
 350 282 l 1,7,-1
 544 0 l 1,8,-1
 442 0 l 1,9,-1
 297 226 l 1,10,-1
 152 0 l 1,11,-1
 56 0 l 1,0,-1
342 -147 m 1,12,-1
 272 -147 l 1,13,-1
 258 0 l 1,14,-1
 222 0 l 1,15,-1
 225 69 l 1,16,-1
 342 69 l 1,17,-1
 342 -147 l 1,12,-1
EndSplineSet
Colour: ff0000
EndChar
StartChar: uni04B4
Encoding: 1204 1204 562
Width: 600
Flags: W
LayerCount: 2
Fore
SplineSet
564 73 m 1,0,-1
 564 -147 l 1,1,-1
 493 -147 l 1,2,-1
 478 0 l 1,3,-1
 128 0 l 1,4,-1
 128 617 l 1,5,-1
 0 617 l 1,6,-1
 0 689 l 1,7,-1
 346 689 l 1,8,-1
 337 617 l 1,9,-1
 217 617 l 1,10,-1
 217 72 l 1,11,-1
 425 72 l 1,12,-1
 425 689 l 1,13,-1
 514 689 l 1,14,-1
 514 73 l 1,15,-1
 564 73 l 1,0,-1
EndSplineSet
Colour: ff0000
EndChar
StartChar: uni04B7
Encoding: 1207 1207 499
Width: 600
Flags: W
LayerCount: 2
Fore
SplineSet
560 69 m 1,0,-1
 560 -147 l 1,1,-1
 491 -147 l 1,2,-1
 476 0 l 1,3,-1
 395 0 l 1,4,-1
 395 223 l 1,5,6
 364 196 364 196 321 180 c 128,-1,7
 278 164 278 164 230 164 c 0,8,9
 154 164 154 164 114.5 204.5 c 128,-1,10
 75 245 75 245 75 319 c 2,11,-1
 75 527 l 1,12,-1
 159 527 l 1,13,-1
 159 329 l 2,14,15
 159 276 159 276 181 253 c 128,-1,16
 203 230 203 230 251 230 c 0,17,18
 290 230 290 230 331 246.5 c 128,-1,19
 372 263 372 263 395 290 c 1,20,-1
 395 527 l 1,21,-1
 479 527 l 1,22,-1
 479 69 l 1,23,-1
 560 69 l 1,0,-1
EndSplineSet
Colour: ff0000
EndChar
StartChar: uni04B9
Encoding: 1209 1209 500
Width: 600
Flags: W
LayerCount: 2
Fore
SplineSet
489 527 m 1,0,-1
 489 0 l 1,1,-1
 405 0 l 1,2,-1
 405 223 l 1,3,4
 365 186 365 186 305 172 c 1,5,-1
 305 91 l 1,6,-1
 251 91 l 1,7,-1
 251 164 l 1,8,-1
 240 164 l 2,9,10
 164 164 164 164 124.5 204.5 c 128,-1,11
 85 245 85 245 85 319 c 2,12,-1
 85 527 l 1,13,-1
 169 527 l 1,14,-1
 169 329 l 2,15,16
 169 279 169 279 189 255.5 c 128,-1,17
 209 232 209 232 251 230 c 1,18,-1
 251 389 l 1,19,-1
 305 389 l 1,20,-1
 305 236 l 1,21,22
 335 242 335 242 361.5 256.5 c 128,-1,23
 388 271 388 271 405 290 c 1,24,-1
 405 527 l 1,25,-1
 489 527 l 1,0,-1
EndSplineSet
Colour: ff0000
EndChar
StartChar: uni04BA
Encoding: 1210 1210 364
Width: 600
Flags: W
LayerCount: 2
Fore
SplineSet
495 392.5 m 128,-1,1
 548 335 548 335 548 235 c 2,2,-1
 548 0 l 1,3,-1
 461 0 l 1,4,-1
 461 234 l 2,5,6
 461 302 461 302 430 338 c 128,-1,7
 399 374 399 374 337 374 c 0,8,9
 284 374 284 374 245 354 c 128,-1,10
 206 334 206 334 170 294 c 1,11,-1
 170 0 l 1,12,-1
 83 0 l 1,13,-1
 83 689 l 1,14,-1
 170 689 l 1,15,-1
 170 374 l 1,16,17
 206 412 206 412 250 431 c 128,-1,18
 294 450 294 450 352 450 c 0,19,0
 442 450 442 450 495 392.5 c 128,-1,1
EndSplineSet
Colour: ff0000
EndChar
StartChar: uni04BB
Encoding: 1211 1211 501
Width: 600
Flags: W
LayerCount: 2
Fore
SplineSet
457.5 434 m 128,-1,1
 500 391 500 391 500 317 c 2,2,-1
 500 0 l 1,3,-1
 416 0 l 1,4,-1
 416 303 l 2,5,6
 416 360 416 360 393 385 c 128,-1,7
 370 410 370 410 327 410 c 0,8,9
 281 410 281 410 247.5 386.5 c 128,-1,10
 214 363 214 363 185 318 c 1,11,-1
 185 0 l 1,12,-1
 101 0 l 1,13,-1
 101 738 l 1,14,-1
 185 747 l 1,15,-1
 185 395 l 1,16,17
 213 434 213 434 253 455.5 c 128,-1,18
 293 477 293 477 343 477 c 0,19,0
 415 477 415 477 457.5 434 c 128,-1,1
EndSplineSet
Colour: ff0000
EndChar
StartChar: uni04BC
Encoding: 1212 1212 366
Width: 600
Flags: W
LayerCount: 2
Fore
SplineSet
564 308 m 1,1,-1
 220 308 l 1,2,3
 223 180 223 180 264 119.5 c 128,-1,4
 305 59 305 59 370 59 c 0,5,6
 411 59 411 59 437 70.5 c 128,-1,7
 463 82 463 82 497 105 c 1,8,-1
 538 53 l 1,9,10
 464 -11 464 -11 371 -11 c 0,11,12
 265 -11 265 -11 201.5 70.5 c 128,-1,13
 138 152 138 152 133 308 c 1,14,15
 70 309 70 309 35.5 341.5 c 128,-1,16
 1 374 1 374 1 422 c 0,17,18
 1 474 1 474 40 527 c 1,19,-1
 97 501 l 1,20,21
 87 479 87 479 81.5 462.5 c 128,-1,22
 76 446 76 446 76 429 c 0,23,24
 76 379 76 379 127 379 c 2,25,-1
 133 379 l 1,26,27
 139 478 139 478 169 550.5 c 128,-1,28
 199 623 199 623 248.5 661.5 c 128,-1,29
 298 700 298 700 361 700 c 0,30,31
 456 700 456 700 511.5 612 c 128,-1,32
 567 524 567 524 567 357 c 0,33,0
 567 335 567 335 564 308 c 1,1,-1
485 379 m 1,34,35
 480 510 480 510 448 570 c 128,-1,36
 416 630 416 630 359 630 c 0,37,38
 299 630 299 630 263 568 c 128,-1,39
 227 506 227 506 220 379 c 1,40,-1
 485 379 l 1,34,35
EndSplineSet
Colour: ff0000
EndChar
StartChar: uni04BD
Encoding: 1213 1213 503
Width: 600
Flags: W
LayerCount: 2
Fore
SplineSet
553 234 m 1,1,-1
 227 234 l 1,2,3
 229 148 229 148 269 103.5 c 128,-1,4
 309 59 309 59 371 59 c 0,5,6
 406 59 406 59 431.5 68.5 c 128,-1,7
 457 78 457 78 489 99 c 1,8,-1
 529 46 l 1,9,10
 498 20 498 20 456.5 4.5 c 128,-1,11
 415 -11 415 -11 370 -11 c 0,12,13
 270 -11 270 -11 210 55.5 c 128,-1,14
 150 122 150 122 143 235 c 1,15,16
 78 236 78 236 44.5 266 c 128,-1,17
 11 296 11 296 11 346 c 0,18,19
 11 374 11 374 21 397 c 128,-1,20
 31 420 31 420 50 448 c 1,21,-1
 103 421 l 1,22,23
 93 399 93 399 88 383 c 128,-1,24
 83 367 83 367 83 350 c 0,25,26
 83 325 83 325 96 311.5 c 128,-1,27
 109 298 109 298 134 298 c 2,28,-1
 144 298 l 1,29,30
 152 404 152 404 209 471 c 128,-1,31
 266 538 266 538 355 538 c 0,32,33
 450 538 450 538 502.5 469 c 128,-1,34
 555 400 555 400 555 279 c 0,35,0
 555 256 555 256 553 234 c 1,1,-1
474 298 m 1,36,37
 471 470 471 470 356 470 c 0,38,39
 300 470 300 470 266 426.5 c 128,-1,40
 232 383 232 383 227 298 c 1,41,-1
 474 298 l 1,36,37
EndSplineSet
Colour: ff0000
EndChar
StartChar: uni04BE
Encoding: 1214 1214 367
Width: 600
Flags: W
LayerCount: 2
Fore
SplineSet
564 308 m 1,1,-1
 220 308 l 1,2,3
 223 180 223 180 264 119.5 c 128,-1,4
 305 59 305 59 370 59 c 0,5,6
 411 59 411 59 437 70.5 c 128,-1,7
 463 82 463 82 497 105 c 1,8,-1
 538 53 l 1,9,10
 494 15 494 15 447 0 c 1,11,12
 375 -31 375 -31 349 -58 c 128,-1,13
 323 -85 323 -85 323 -114 c 0,14,15
 323 -138 323 -138 336 -150 c 128,-1,16
 349 -162 349 -162 379 -162 c 0,17,18
 406 -162 406 -162 440 -155 c 1,19,-1
 432 -223 l 1,20,21
 390 -229 390 -229 368 -229 c 0,22,23
 312 -229 312 -229 279 -201.5 c 128,-1,24
 246 -174 246 -174 246 -131 c 0,25,26
 246 -57 246 -57 334 -9 c 1,27,28
 244 5 244 5 190.5 85.5 c 128,-1,29
 137 166 137 166 133 308 c 1,30,31
 70 309 70 309 35.5 341.5 c 128,-1,32
 1 374 1 374 1 422 c 0,33,34
 1 474 1 474 40 527 c 1,35,-1
 97 501 l 1,36,37
 87 479 87 479 81.5 462.5 c 128,-1,38
 76 446 76 446 76 429 c 0,39,40
 76 379 76 379 127 379 c 2,41,-1
 133 379 l 1,42,43
 139 478 139 478 169 550.5 c 128,-1,44
 199 623 199 623 248.5 661.5 c 128,-1,45
 298 700 298 700 361 700 c 0,46,47
 456 700 456 700 511.5 612 c 128,-1,48
 567 524 567 524 567 357 c 0,49,0
 567 335 567 335 564 308 c 1,1,-1
485 379 m 1,50,51
 480 510 480 510 448 570 c 128,-1,52
 416 630 416 630 359 630 c 0,53,54
 299 630 299 630 263 568 c 128,-1,55
 227 506 227 506 220 379 c 1,56,-1
 485 379 l 1,50,51
EndSplineSet
Colour: ff0000
EndChar
StartChar: uni04C4
Encoding: 1220 1220 507
Width: 600
Flags: W
LayerCount: 2
Fore
SplineSet
450 252 m 128,-1,1
 488 211 488 211 488 136 c 2,2,-1
 488 -61 l 2,3,4
 488 -134 488 -134 448.5 -172.5 c 128,-1,5
 409 -211 409 -211 342 -211 c 0,6,7
 279 -211 279 -211 230 -174 c 1,8,-1
 263 -120 l 1,9,10
 284 -132 284 -132 300 -137.5 c 128,-1,11
 316 -143 316 -143 339 -143 c 0,12,13
 370 -143 370 -143 387 -124.5 c 128,-1,14
 404 -106 404 -106 404 -68 c 2,15,-1
 404 125 l 2,16,17
 404 185 404 185 379.5 209 c 128,-1,18
 355 233 355 233 295 233 c 2,19,-1
 191 233 l 1,20,-1
 191 0 l 1,21,-1
 107 0 l 1,22,-1
 107 527 l 1,23,-1
 191 527 l 1,24,-1
 191 301 l 1,25,-1
 259 301 l 1,26,-1
 400 527 l 1,27,-1
 491 527 l 1,28,-1
 342 300 l 1,29,0
 412 293 412 293 450 252 c 128,-1,1
EndSplineSet
Colour: ff0000
EndChar
StartChar: uni04C6
Encoding: 1222 1222 508
Width: 600
Flags: W
LayerCount: 2
Fore
SplineSet
557 66 m 1,0,-1
 491 -147 l 1,1,-1
 422 -147 l 1,2,-1
 457 0 l 1,3,-1
 396 0 l 1,4,-1
 396 456 l 1,5,-1
 229 456 l 1,6,-1
 217 317 l 2,7,8
 207 199 207 199 192.5 139 c 128,-1,9
 178 79 178 79 152.5 48 c 128,-1,10
 127 17 127 17 77 -11 c 1,11,-1
 42 43 l 1,12,13
 70 61 70 61 86.5 83.5 c 128,-1,14
 103 106 103 106 115.5 159.5 c 128,-1,15
 128 213 128 213 136 314 c 2,16,-1
 152 527 l 1,17,-1
 480 527 l 1,18,-1
 480 66 l 1,19,-1
 557 66 l 1,0,-1
EndSplineSet
Colour: ff0000
EndChar
StartChar: uni04C8
Encoding: 1224 1224 509
Width: 600
Flags: W
LayerCount: 2
Fore
SplineSet
460.5 -172.5 m 128,-1,1
 421 -211 421 -211 354 -211 c 0,2,3
 290 -211 290 -211 241 -174 c 1,4,-1
 275 -120 l 1,5,6
 297 -132 297 -132 312 -137.5 c 128,-1,7
 327 -143 327 -143 350 -143 c 0,8,9
 416 -143 416 -143 416 -68 c 2,10,-1
 416 234 l 1,11,-1
 184 234 l 1,12,-1
 184 0 l 1,13,-1
 100 0 l 1,14,-1
 100 527 l 1,15,-1
 184 527 l 1,16,-1
 184 303 l 1,17,-1
 416 303 l 1,18,-1
 416 527 l 1,19,-1
 500 527 l 1,20,-1
 500 -61 l 2,21,0
 500 -134 500 -134 460.5 -172.5 c 128,-1,1
EndSplineSet
Colour: ff0000
EndChar
StartChar: uni04CA
Encoding: 1226 1226 510
Width: 600
Flags: W
LayerCount: 2
Fore
SplineSet
560 66 m 1,0,-1
 494 -147 l 1,1,-1
 425 -147 l 1,2,-1
 460 0 l 1,3,-1
 398 0 l 1,4,-1
 398 234 l 1,5,-1
 186 234 l 1,6,-1
 186 0 l 1,7,-1
 102 0 l 1,8,-1
 102 527 l 1,9,-1
 186 527 l 1,10,-1
 186 303 l 1,11,-1
 398 303 l 1,12,-1
 398 527 l 1,13,-1
 482 527 l 1,14,-1
 482 66 l 1,15,-1
 560 66 l 1,0,-1
EndSplineSet
Colour: ff0000
EndChar
StartChar: uni04CB
Encoding: 1227 1227 374
Width: 600
Flags: W
LayerCount: 2
Fore
SplineSet
517 689 m 1,0,-1
 517 0 l 1,1,-1
 454 0 l 1,2,-1
 440 -147 l 1,3,-1
 371 -147 l 1,4,-1
 371 73 l 1,5,-1
 430 73 l 1,6,-1
 430 282 l 1,7,8
 384 248 384 248 344 233.5 c 128,-1,9
 304 219 304 219 251 219 c 0,10,11
 161 219 161 219 106 274.5 c 128,-1,12
 51 330 51 330 51 423 c 2,13,-1
 51 689 l 1,14,-1
 137 689 l 1,15,-1
 137 430 l 2,16,17
 137 362 137 362 172 328.5 c 128,-1,18
 207 295 207 295 273 295 c 0,19,20
 369 295 369 295 430 356 c 1,21,-1
 430 689 l 1,22,-1
 517 689 l 1,0,-1
EndSplineSet
Colour: ff0000
EndChar
StartChar: uni04CC
Encoding: 1228 1228 511
Width: 600
Flags: W
LayerCount: 2
Fore
SplineSet
489 527 m 1,0,-1
 489 0 l 1,1,-1
 419 0 l 1,2,-1
 404 -147 l 1,3,-1
 335 -147 l 1,4,-1
 335 69 l 1,5,-1
 405 69 l 1,6,-1
 405 230 l 1,7,8
 375 203 375 203 331.5 187 c 128,-1,9
 288 171 288 171 240 171 c 0,10,11
 164 171 164 171 124.5 211.5 c 128,-1,12
 85 252 85 252 85 326 c 2,13,-1
 85 527 l 1,14,-1
 169 527 l 1,15,-1
 169 336 l 2,16,17
 169 284 169 284 191 261 c 128,-1,18
 213 238 213 238 261 238 c 0,19,20
 300 238 300 238 341 254.5 c 128,-1,21
 382 271 382 271 405 298 c 1,22,-1
 405 527 l 1,23,-1
 489 527 l 1,0,-1
EndSplineSet
Colour: ff0000
EndChar
StartChar: uni04D8
Encoding: 1240 1240 379
Width: 600
Flags: W
LayerCount: 2
Fore
SplineSet
47 381 m 1,0,-1
 462 381 l 1,1,2
 458 512 458 512 414 571 c 128,-1,3
 370 630 370 630 290 630 c 0,4,5
 244 630 244 630 208 615 c 128,-1,6
 172 600 172 600 133 572 c 1,7,-1
 88 623 l 1,8,9
 131 660 131 660 181 680 c 128,-1,10
 231 700 231 700 293 700 c 0,11,12
 419 700 419 700 485 612.5 c 128,-1,13
 551 525 551 525 551 353 c 0,14,15
 551 240 551 240 520.5 158 c 128,-1,16
 490 76 490 76 432.5 32.5 c 128,-1,17
 375 -11 375 -11 297 -11 c 0,18,19
 178 -11 178 -11 111.5 76 c 128,-1,20
 45 163 45 163 45 331 c 1,21,-1
 47 381 l 1,0,-1
462 309 m 1,23,-1
 129 309 l 1,24,25
 135 176 135 176 176 118 c 128,-1,26
 217 60 217 60 298 60 c 0,27,22
 449 60 449 60 462 309 c 1,23,-1
EndSplineSet
Colour: ff0000
EndChar
StartChar: uni04E1
Encoding: 1249 1249 520
Width: 600
Flags: W
LayerCount: 2
Fore
SplineSet
454.5 154 m 128,-1,1
 517 103 517 103 517 6 c 0,2,3
 517 -59 517 -59 486.5 -108.5 c 128,-1,4
 456 -158 456 -158 402 -185 c 128,-1,5
 348 -212 348 -212 279 -212 c 0,6,7
 205 -212 205 -212 153 -189.5 c 128,-1,8
 101 -167 101 -167 62 -121 c 1,9,-1
 113 -76 l 1,10,11
 149 -111 149 -111 186.5 -126.5 c 128,-1,12
 224 -142 224 -142 278 -142 c 0,13,14
 348 -142 348 -142 387 -103 c 128,-1,15
 426 -64 426 -64 426 9 c 0,16,17
 426 79 426 79 386.5 110 c 128,-1,18
 347 141 347 141 266 141 c 2,19,-1
 179 141 l 1,20,-1
 179 204 l 1,21,-1
 397 455 l 1,22,-1
 93 455 l 1,23,-1
 93 527 l 1,24,-1
 494 527 l 1,25,-1
 494 461 l 1,26,-1
 269 205 l 1,27,-1
 280 205 l 2,28,0
 392 205 392 205 454.5 154 c 128,-1,1
EndSplineSet
Colour: ff0000
EndChar
StartChar: uni04E8
Encoding: 1256 1256 387
Width: 600
Flags: W
LayerCount: 2
Fore
SplineSet
487.5 86 m 128,-1,1
 422 -11 422 -11 300 -11 c 0,2,3
 177 -11 177 -11 112 84 c 128,-1,4
 47 179 47 179 47 343 c 0,5,6
 47 448 47 448 76 529 c 128,-1,7
 105 610 105 610 162 655 c 128,-1,8
 219 700 219 700 300 700 c 0,9,10
 422 700 422 700 487.5 603.5 c 128,-1,11
 553 507 553 507 553 344 c 0,12,0
 553 183 553 183 487.5 86 c 128,-1,1
183.5 566.5 m 128,-1,14
 145 506 145 506 139 384 c 1,15,-1
 460 384 l 1,16,17
 455 506 455 506 416.5 566.5 c 128,-1,18
 378 627 378 627 300 627 c 256,19,13
 222 627 222 627 183.5 566.5 c 128,-1,14
419.5 126 m 128,-1,21
 458 190 458 190 461 318 c 1,22,-1
 138 318 l 1,23,24
 141 190 141 190 180.5 126 c 128,-1,25
 220 62 220 62 300 62 c 0,26,20
 381 62 381 62 419.5 126 c 128,-1,21
EndSplineSet
Colour: ff0000
EndChar
StartChar: uni04E9
Encoding: 1257 1257 524
Width: 600
Flags: W
LayerCount: 2
Fore
SplineSet
468.5 464.5 m 128,-1,1
 527 391 527 391 527 264 c 0,2,3
 527 140 527 140 467.5 64.5 c 128,-1,4
 408 -11 408 -11 300 -11 c 0,5,6
 191 -11 191 -11 132 62.5 c 128,-1,7
 73 136 73 136 73 263 c 0,8,9
 73 388 73 388 132.5 463 c 128,-1,10
 192 538 192 538 301 538 c 256,11,0
 410 538 410 538 468.5 464.5 c 128,-1,1
203.5 427 m 128,-1,13
 169 385 169 385 165 302 c 1,14,-1
 435 302 l 1,15,16
 430 384 430 384 396.5 426.5 c 128,-1,17
 363 469 363 469 301 469 c 0,18,12
 238 469 238 469 203.5 427 c 128,-1,13
166 234 m 1,19,20
 172 143 172 143 205 100.5 c 128,-1,21
 238 58 238 58 300 58 c 256,22,23
 362 58 362 58 395.5 101 c 128,-1,24
 429 144 429 144 435 234 c 1,25,-1
 166 234 l 1,19,20
EndSplineSet
Colour: ff0000
EndChar
StartChar: uni04FA
Encoding: 1274 1274 396
Width: 600
Flags: W
LayerCount: 2
Fore
SplineSet
261 612 m 1,0,-1
 261 433 l 1,1,-1
 419 433 l 1,2,-1
 419 366 l 1,3,-1
 261 366 l 1,4,-1
 261 73 l 1,5,-1
 321 73 l 1,6,-1
 321 -61 l 2,7,8
 321 -134 321 -134 282.5 -172.5 c 128,-1,9
 244 -211 244 -211 176 -211 c 0,10,11
 112 -211 112 -211 63 -174 c 1,12,-1
 96 -117 l 1,13,14
 116 -130 116 -130 132 -135.5 c 128,-1,15
 148 -141 148 -141 172 -141 c 0,16,17
 234 -141 234 -141 234 -66 c 2,18,-1
 234 0 l 1,19,-1
 175 0 l 1,20,-1
 175 366 l 1,21,-1
 74 366 l 1,22,-1
 74 433 l 1,23,-1
 175 433 l 1,24,-1
 175 689 l 1,25,-1
 583 689 l 1,26,-1
 574 612 l 1,27,-1
 261 612 l 1,0,-1
EndSplineSet
Colour: ff0000
EndChar
StartChar: uni04FC
Encoding: 1276 1276 397
Width: 600
Flags: W
LayerCount: 2
Fore
SplineSet
576 -61 m 2,0,1
 576 -134 576 -134 537.5 -172.5 c 128,-1,2
 499 -211 499 -211 431 -211 c 0,3,4
 368 -211 368 -211 319 -174 c 1,5,-1
 352 -117 l 1,6,7
 372 -130 372 -130 388 -135.5 c 128,-1,8
 404 -141 404 -141 428 -141 c 0,9,10
 458 -141 458 -141 474 -122.5 c 128,-1,11
 490 -104 490 -104 490 -66 c 2,12,-1
 490 0 l 1,13,-1
 453 0 l 1,14,-1
 282 311 l 1,15,-1
 108 0 l 1,16,-1
 15 0 l 1,17,-1
 231 367 l 1,18,-1
 33 689 l 1,19,-1
 133 689 l 1,20,-1
 284 424 l 1,21,-1
 436 689 l 1,22,-1
 529 689 l 1,23,-1
 334 372 l 1,24,-1
 510 73 l 1,25,-1
 576 73 l 1,26,-1
 576 -61 l 2,0,1
EndSplineSet
Colour: ff0000
EndChar
StartChar: uni04FD
Encoding: 1277 1277 534
Width: 600
Flags: W
LayerCount: 2
Fore
SplineSet
550 -61 m 2,0,1
 550 -134 550 -134 511 -172.5 c 128,-1,2
 472 -211 472 -211 405 -211 c 0,3,4
 341 -211 341 -211 292 -174 c 1,5,-1
 325 -120 l 1,6,7
 348 -132 348 -132 363 -137.5 c 128,-1,8
 378 -143 378 -143 401 -143 c 0,9,10
 466 -143 466 -143 466 -68 c 2,11,-1
 466 0 l 1,12,-1
 431 0 l 1,13,-1
 431 1 l 1,14,-1
 287 226 l 1,15,-1
 142 0 l 1,16,-1
 46 0 l 1,17,-1
 240 278 l 1,18,-1
 69 527 l 1,19,-1
 169 527 l 1,20,-1
 291 331 l 1,21,-1
 414 527 l 1,22,-1
 511 527 l 1,23,-1
 340 282 l 1,24,-1
 487 69 l 1,25,-1
 550 69 l 1,26,-1
 550 -61 l 2,0,1
EndSplineSet
Colour: ff0000
EndChar
StartChar: uni0500
Encoding: 1280 1280 399
Width: 600
Flags: W
LayerCount: 2
Fore
SplineSet
119.5 54 m 128,-1,1
 49 108 49 108 49 210 c 256,2,3
 49 312 49 312 119 369 c 128,-1,4
 189 426 189 426 309 426 c 2,5,-1
 419 426 l 1,6,-1
 419 689 l 1,7,-1
 506 689 l 1,8,-1
 506 0 l 1,9,-1
 303 0 l 2,10,0
 190 0 190 0 119.5 54 c 128,-1,1
419 71 m 1,11,-1
 419 358 l 1,12,-1
 307 358 l 2,13,14
 227 358 227 358 184 321.5 c 128,-1,15
 141 285 141 285 141 210 c 0,16,17
 141 71 141 71 304 71 c 2,18,-1
 419 71 l 1,11,-1
EndSplineSet
Colour: ff0000
EndChar
StartChar: uni0503
Encoding: 1283 1283 537
Width: 600
Flags: W
LayerCount: 2
Fore
SplineSet
590 253 m 0,1,2
 590 117 590 117 545 51.5 c 128,-1,3
 500 -14 500 -14 423 -14 c 0,4,5
 378 -14 378 -14 344 9.5 c 128,-1,6
 310 33 310 33 293 81 c 1,7,8
 266 31 266 31 236 10 c 128,-1,9
 206 -11 206 -11 171 -11 c 0,10,11
 93 -11 93 -11 51 62.5 c 128,-1,12
 9 136 9 136 9 260 c 0,13,14
 9 340 9 340 29.5 403.5 c 128,-1,15
 50 467 50 467 87.5 502.5 c 128,-1,16
 125 538 125 538 176 538 c 0,17,18
 210 538 210 538 234 524 c 128,-1,19
 258 510 258 510 278 485 c 1,20,-1
 278 749 l 1,21,-1
 362 739 l 1,22,-1
 362 161 l 2,23,24
 362 111 362 111 378.5 83.5 c 128,-1,25
 395 56 395 56 424 56 c 0,26,27
 463 56 463 56 483.5 100 c 128,-1,28
 504 144 504 144 504 251 c 0,29,30
 504 307 504 307 499 377 c 1,31,-1
 585 377 l 1,32,0
 590 312 590 312 590 253 c 0,1,2
230 78 m 128,-1,34
 253 98 253 98 278 144 c 1,35,-1
 278 406 l 1,36,37
 257 437 257 437 237.5 453 c 128,-1,38
 218 469 218 469 191 469 c 0,39,40
 148 469 148 469 123.5 416.5 c 128,-1,41
 99 364 99 364 99 263 c 0,42,43
 99 161 99 161 120 109.5 c 128,-1,44
 141 58 141 58 179 58 c 0,45,33
 207 58 207 58 230 78 c 128,-1,34
EndSplineSet
Colour: ff0000
EndChar
StartChar: uni0504
Encoding: 1284 1284 401
Width: 600
Flags: W
LayerCount: 2
Fore
SplineSet
575 255 m 0,1,2
 575 119 575 119 527 54 c 128,-1,3
 479 -11 479 -11 397 -11 c 0,4,5
 334 -11 334 -11 292 22 c 128,-1,6
 250 55 250 55 217 127 c 2,7,-1
 138 295 l 1,8,-1
 55 295 l 1,9,-1
 55 364 l 1,10,-1
 127 364 l 2,11,12
 204 364 204 364 243.5 395 c 128,-1,13
 283 426 283 426 283 495 c 0,14,15
 283 561 283 561 243 590 c 128,-1,16
 203 619 203 619 115 619 c 2,17,-1
 25 619 l 1,18,-1
 25 689 l 1,19,-1
 116 689 l 2,20,21
 243 689 243 689 309 639.5 c 128,-1,22
 375 590 375 590 375 495 c 0,23,24
 375 423 375 423 338 378 c 128,-1,25
 301 333 301 333 225 311 c 1,26,-1
 296 151 l 2,27,28
 320 99 320 99 342 78 c 128,-1,29
 364 57 364 57 397 57 c 0,30,31
 440 57 440 57 464.5 102 c 128,-1,32
 489 147 489 147 489 255 c 0,33,34
 489 310 489 310 484 380 c 1,35,-1
 570 380 l 1,36,0
 575 315 575 315 575 255 c 0,1,2
EndSplineSet
Colour: ff0000
EndChar
StartChar: uni0506
Encoding: 1286 1286 402
Width: 600
Flags: W
LayerCount: 2
Fore
SplineSet
555 73 m 1,0,-1
 555 -147 l 1,1,-1
 486 -147 l 1,2,-1
 472 0 l 1,3,-1
 435 0 l 1,4,-1
 247 295 l 1,5,-1
 102 295 l 1,6,-1
 102 363 l 1,7,-1
 254 363 l 2,8,9
 331 363 331 363 370.5 394.5 c 128,-1,10
 410 426 410 426 410 495 c 0,11,12
 410 561 410 561 372.5 590 c 128,-1,13
 335 619 335 619 254 619 c 2,14,-1
 73 619 l 1,15,-1
 73 689 l 1,16,-1
 244 689 l 2,17,18
 372 689 372 689 437.5 640 c 128,-1,19
 503 591 503 591 503 495 c 0,20,21
 503 421 503 421 457 372.5 c 128,-1,22
 411 324 411 324 335 305 c 1,23,-1
 490 73 l 1,24,-1
 555 73 l 1,0,-1
EndSplineSet
Colour: ff0000
EndChar
StartChar: uni0507
Encoding: 1287 1287 539
Width: 600
Flags: W
LayerCount: 2
Fore
SplineSet
535 69 m 1,0,-1
 535 -147 l 1,1,-1
 465 -147 l 1,2,-1
 451 0 l 1,3,-1
 404 0 l 1,4,-1
 274 205 l 1,5,-1
 115 205 l 1,6,-1
 115 271 l 1,7,-1
 265 271 l 2,8,9
 321 271 321 271 351 293.5 c 128,-1,10
 381 316 381 316 381 367 c 0,11,12
 381 416 381 416 348.5 438.5 c 128,-1,13
 316 461 316 461 250 461 c 2,14,-1
 76 461 l 1,15,-1
 76 527 l 1,16,-1
 252 527 l 2,17,18
 357 527 357 527 413 486 c 128,-1,19
 469 445 469 445 469 367 c 0,20,21
 469 260 469 260 352 221 c 1,22,-1
 453 69 l 1,23,-1
 535 69 l 1,0,-1
EndSplineSet
Colour: ff0000
EndChar
StartChar: uni0509
Encoding: 1289 1289 540
Width: 600
Flags: W
LayerCount: 2
Fore
SplineSet
589 253 m 0,1,2
 589 119 589 119 541.5 52.5 c 128,-1,3
 494 -14 494 -14 418 -14 c 0,4,5
 357 -14 357 -14 315.5 28 c 128,-1,6
 274 70 274 70 274 150 c 2,7,-1
 274 456 l 1,8,-1
 174 456 l 1,9,-1
 163 325 l 2,10,11
 154 207 154 207 140.5 144.5 c 128,-1,12
 127 82 127 82 105 50 c 128,-1,13
 83 18 83 18 41 -11 c 1,14,-1
 5 45 l 1,15,16
 27 64 27 64 39.5 86 c 128,-1,17
 52 108 52 108 62 162 c 128,-1,18
 72 216 72 216 80 320 c 2,19,-1
 96 527 l 1,20,-1
 360 527 l 1,21,-1
 360 275 l 1,22,-1
 308 275 l 1,23,-1
 360 271 l 1,24,-1
 360 140 l 2,25,26
 360 103 360 103 375 79.5 c 128,-1,27
 390 56 390 56 419 56 c 0,28,29
 457 56 457 56 480 101 c 128,-1,30
 503 146 503 146 503 251 c 0,31,32
 503 307 503 307 498 377 c 1,33,-1
 584 377 l 1,34,0
 589 312 589 312 589 253 c 0,1,2
EndSplineSet
Colour: ff0000
EndChar
StartChar: uni050A
Encoding: 1290 1290 404
Width: 600
Flags: W
LayerCount: 2
Fore
SplineSet
590 250 m 0,1,2
 590 117 590 117 544 51.5 c 128,-1,3
 498 -14 498 -14 425 -14 c 0,4,5
 363 -14 363 -14 323.5 30 c 128,-1,6
 284 74 284 74 284 158 c 2,7,-1
 284 327 l 1,8,-1
 135 327 l 1,9,-1
 135 0 l 1,10,-1
 49 0 l 1,11,-1
 49 689 l 1,12,-1
 135 689 l 1,13,-1
 135 399 l 1,14,-1
 284 399 l 1,15,-1
 284 689 l 1,16,-1
 370 689 l 1,17,-1
 370 155 l 2,18,19
 370 107 370 107 384.5 81.5 c 128,-1,20
 399 56 399 56 427 56 c 0,21,22
 461 56 461 56 482.5 100.5 c 128,-1,23
 504 145 504 145 504 248 c 0,24,25
 504 307 504 307 499 377 c 1,26,-1
 585 377 l 1,27,0
 590 312 590 312 590 250 c 0,1,2
EndSplineSet
Colour: ff0000
EndChar
StartChar: uni050D
Encoding: 1293 1293 542
Width: 600
Flags: W
LayerCount: 2
Fore
SplineSet
415.5 522.5 m 128,-1,1
 456 507 456 507 497 475 c 1,2,-1
 448 421 l 1,3,4
 416 445 416 445 386.5 456 c 128,-1,5
 357 467 357 467 318 467 c 0,6,7
 276 467 276 467 241 445.5 c 128,-1,8
 206 424 206 424 184.5 379 c 128,-1,9
 163 334 163 334 163 267 c 0,10,11
 163 157 163 157 199.5 107.5 c 128,-1,12
 236 58 236 58 306 58 c 0,13,14
 366 58 366 58 413 81 c 1,15,-1
 413 228 l 1,16,-1
 312 228 l 1,17,-1
 303 295 l 1,18,-1
 496 295 l 1,19,-1
 496 42 l 1,20,21
 409 -10 409 -10 305 -10 c 0,22,23
 195 -10 195 -10 134 60.5 c 128,-1,24
 73 131 73 131 73 267 c 0,25,26
 73 348 73 348 106.5 410 c 128,-1,27
 140 472 140 472 196 505 c 128,-1,28
 252 538 252 538 318 538 c 0,29,0
 375 538 375 538 415.5 522.5 c 128,-1,1
EndSplineSet
Colour: ff0000
EndChar
StartChar: uni0511
Encoding: 1297 1297 544
Width: 600
Flags: W
LayerCount: 2
Fore
SplineSet
411 241 m 1,0,-1
 308 241 l 2,1,2
 174 241 174 241 174 155 c 0,3,4
 174 110 174 110 211 84 c 128,-1,5
 248 58 248 58 319 58 c 0,6,7
 425 58 425 58 506 116 c 1,8,-1
 546 62 l 1,9,10
 506 29 506 29 448.5 9 c 128,-1,11
 391 -11 391 -11 320 -11 c 0,12,13
 213 -11 213 -11 148 32.5 c 128,-1,14
 83 76 83 76 83 156 c 0,15,16
 83 194 83 194 103.5 222 c 128,-1,17
 124 250 124 250 155.5 265 c 128,-1,18
 187 280 187 280 219 281 c 1,19,20
 170 295 170 295 141 323.5 c 128,-1,21
 112 352 112 352 112 394 c 0,22,23
 112 461 112 461 171 499.5 c 128,-1,24
 230 538 230 538 321 538 c 0,25,26
 376 538 376 538 432 521 c 128,-1,27
 488 504 488 504 527 474 c 1,28,-1
 487 424 l 1,29,30
 451 446 451 446 408 458 c 128,-1,31
 365 470 365 470 324 470 c 0,32,33
 200 470 200 470 200 389 c 0,34,35
 200 353 200 353 230.5 331 c 128,-1,36
 261 309 261 309 314 309 c 2,37,-1
 417 309 l 1,38,-1
 411 241 l 1,0,-1
EndSplineSet
Colour: ff0000
EndChar
StartChar: uni0513
Encoding: 1299 1299 545
Width: 600
Flags: W
LayerCount: 2
Fore
SplineSet
510 -61 m 2,0,1
 510 -134 510 -134 470.5 -172.5 c 128,-1,2
 431 -211 431 -211 364 -211 c 0,3,4
 300 -211 300 -211 251 -174 c 1,5,-1
 285 -120 l 1,6,7
 307 -132 307 -132 322 -137.5 c 128,-1,8
 337 -143 337 -143 360 -143 c 0,9,10
 426 -143 426 -143 426 -68 c 2,11,-1
 426 456 l 1,12,-1
 229 456 l 1,13,-1
 217 317 l 2,14,15
 207 199 207 199 192.5 139 c 128,-1,16
 178 79 178 79 153 48 c 128,-1,17
 128 17 128 17 78 -11 c 1,18,-1
 42 43 l 1,19,20
 71 61 71 61 87.5 83.5 c 128,-1,21
 104 106 104 106 116.5 159 c 128,-1,22
 129 212 129 212 137 314 c 2,23,-1
 153 527 l 1,24,-1
 510 527 l 1,25,-1
 510 -61 l 2,0,1
EndSplineSet
Colour: ff0000
EndChar
StartChar: uni0514
Encoding: 1300 1300 409
Width: 600
Flags: W
LayerCount: 2
Fore
SplineSet
608 0 m 1,0,-1
 520 0 l 1,1,-1
 396 307 l 1,2,-1
 278 0 l 1,3,-1
 194 0 l 1,4,-1
 349 368 l 1,5,-1
 242 612 l 1,6,-1
 184 612 l 1,7,-1
 166 370 l 2,8,9
 156 234 156 234 142 162.5 c 128,-1,10
 128 91 128 91 109.5 58 c 128,-1,11
 91 25 91 25 55 -11 c 1,12,-1
 4 49 l 1,13,14
 25 71 25 71 37 98.5 c 128,-1,15
 49 126 49 126 59 192 c 128,-1,16
 69 258 69 258 80 388 c 2,17,-1
 104 689 l 1,18,-1
 110 683 l 1,19,-1
 105 689 l 1,20,-1
 297 689 l 1,21,-1
 403 426 l 1,22,-1
 506 689 l 1,23,-1
 589 689 l 1,24,-1
 451 368 l 1,25,-1
 608 0 l 1,0,-1
EndSplineSet
Colour: ff0000
EndChar
StartChar: uni0516
Encoding: 1302 1302 410
Width: 600
Flags: W
LayerCount: 2
Fore
SplineSet
495 0 m 1,0,-1
 333 321 l 1,1,2
 304 290 304 290 263 273 c 128,-1,3
 222 256 222 256 175 256 c 2,4,-1
 138 256 l 1,5,-1
 138 0 l 1,6,-1
 55 0 l 1,7,-1
 55 689 l 1,8,-1
 175 689 l 2,9,10
 275 689 275 689 332.5 630.5 c 128,-1,11
 390 572 390 572 390 477 c 2,12,-1
 390 461 l 1,13,-1
 502 689 l 1,14,-1
 588 689 l 1,15,-1
 412 353 l 1,16,-1
 589 0 l 1,17,-1
 495 0 l 1,0,-1
271 361 m 128,-1,19
 308 396 308 396 308 476 c 0,20,21
 308 547 308 547 273.5 583 c 128,-1,22
 239 619 239 619 177 619 c 2,23,-1
 138 619 l 1,24,-1
 138 326 l 1,25,-1
 172 326 l 2,26,18
 234 326 234 326 271 361 c 128,-1,19
EndSplineSet
Colour: ff0000
EndChar
StartChar: uni0517
Encoding: 1303 1303 547
Width: 600
Flags: W
LayerCount: 2
Fore
SplineSet
503 0 m 1,0,-1
 397 233 l 1,1,2
 393 159 393 159 371 104 c 128,-1,3
 349 49 349 49 314.5 19 c 128,-1,4
 280 -11 280 -11 239 -11 c 0,5,6
 202 -11 202 -11 177 3 c 128,-1,7
 152 17 152 17 132 46 c 1,8,-1
 132 -201 l 1,9,-1
 44 -212 l 1,10,-1
 44 527 l 1,11,-1
 119 527 l 1,12,-1
 126 463 l 1,13,14
 149 499 149 499 177.5 518.5 c 128,-1,15
 206 538 206 538 247 538 c 0,16,17
 386 538 386 538 396 304 c 1,18,-1
 496 527 l 1,19,-1
 582 527 l 1,20,-1
 462 271 l 1,21,-1
 596 0 l 1,22,-1
 503 0 l 1,0,-1
287.5 108.5 m 128,-1,24
 313 158 313 158 313 264 c 0,25,26
 313 375 313 375 294.5 422.5 c 128,-1,27
 276 470 276 470 233 470 c 0,28,29
 204 470 204 470 179.5 450.5 c 128,-1,30
 155 431 155 431 132 393 c 1,31,-1
 132 128 l 1,32,33
 154 94 154 94 176 76.5 c 128,-1,34
 198 59 198 59 223 59 c 0,35,23
 262 59 262 59 287.5 108.5 c 128,-1,24
EndSplineSet
Colour: ff0000
EndChar
StartChar: uni0518
Encoding: 1304 1304 411
Width: 600
Flags: W
LayerCount: 2
Fore
SplineSet
598 70 m 1,0,-1
 598 0 l 1,1,-1
 294 0 l 1,2,-1
 294 277 l 1,3,-1
 224 277 l 1,4,-1
 107 0 l 1,5,-1
 8 0 l 1,6,-1
 141 297 l 1,7,8
 80 323 80 323 49 370.5 c 128,-1,9
 18 418 18 418 18 483 c 0,10,11
 18 578 18 578 83 633.5 c 128,-1,12
 148 689 148 689 262 689 c 2,13,-1
 589 689 l 1,14,-1
 579 617 l 1,15,-1
 383 617 l 1,16,-1
 383 386 l 1,17,-1
 539 386 l 1,18,-1
 539 314 l 1,19,-1
 383 314 l 1,20,-1
 383 70 l 1,21,-1
 598 70 l 1,0,-1
294 619 m 1,22,-1
 252 619 l 2,23,24
 186 619 186 619 149.5 584.5 c 128,-1,25
 113 550 113 550 113 484 c 0,26,27
 113 416 113 416 145.5 382 c 128,-1,28
 178 348 178 348 234 348 c 2,29,-1
 294 348 l 1,30,-1
 294 619 l 1,22,-1
EndSplineSet
Colour: ff0000
EndChar
StartChar: uni051F
Encoding: 1311 1311 551
Width: 600
Flags: W
LayerCount: 2
Fore
SplineSet
567 0 m 1,0,-1
 465 0 l 1,1,-1
 291 245 l 1,2,-1
 187 245 l 1,3,-1
 187 0 l 1,4,-1
 103 0 l 1,5,-1
 103 527 l 1,6,-1
 187 527 l 1,7,-1
 187 313 l 1,8,-1
 293 313 l 1,9,-1
 344 384 l 1,10,-1
 256 442 l 1,11,-1
 292 495 l 1,12,-1
 381 437 l 1,13,-1
 445 527 l 1,14,-1
 539 527 l 1,15,-1
 444 396 l 1,16,-1
 530 340 l 1,17,-1
 494 286 l 1,18,-1
 406 344 l 1,19,-1
 362 283 l 1,20,-1
 567 0 l 1,0,-1
EndSplineSet
Colour: ff0000
EndChar
StartChar: uni0520
Encoding: 1312 1312 415
Width: 600
Flags: W
LayerCount: 2
Fore
SplineSet
547 410 m 128,-1,1
 583 369 583 369 583 305 c 2,2,-1
 583 -58 l 2,3,4
 583 -132 583 -132 543 -171.5 c 128,-1,5
 503 -211 503 -211 437 -211 c 0,6,7
 373 -211 373 -211 324 -174 c 1,8,-1
 358 -116 l 1,9,10
 378 -128 378 -128 393.5 -133.5 c 128,-1,11
 409 -139 409 -139 433 -139 c 0,12,13
 495 -139 495 -139 495 -65 c 2,14,-1
 495 295 l 2,15,16
 495 374 495 374 435 374 c 0,17,18
 393 374 393 374 354 339 c 1,19,-1
 354 0 l 1,20,-1
 268 0 l 1,21,-1
 268 616 l 1,22,-1
 173 616 l 1,23,-1
 155 370 l 2,24,25
 145 234 145 234 131 162.5 c 128,-1,26
 117 91 117 91 98 58 c 128,-1,27
 79 25 79 25 43 -11 c 1,28,-1
 -7 49 l 1,29,30
 14 71 14 71 26 98.5 c 128,-1,31
 38 126 38 126 48 192 c 128,-1,32
 58 258 58 258 69 388 c 2,33,-1
 93 689 l 1,34,-1
 354 689 l 1,35,-1
 354 411 l 1,36,37
 396 451 396 451 449 451 c 0,38,0
 511 451 511 451 547 410 c 128,-1,1
EndSplineSet
Colour: ff0000
EndChar
StartChar: uni0521
Encoding: 1313 1313 552
Width: 600
Flags: W
LayerCount: 2
Fore
SplineSet
559.5 311 m 128,-1,1
 596 273 596 273 596 211 c 2,2,-1
 596 -60 l 2,3,4
 596 -133 596 -133 556 -172 c 128,-1,5
 516 -211 516 -211 448 -211 c 0,6,7
 384 -211 384 -211 335 -174 c 1,8,-1
 369 -119 l 1,9,10
 389 -131 389 -131 405 -136 c 128,-1,11
 421 -141 421 -141 444 -141 c 0,12,13
 511 -141 511 -141 511 -66 c 2,14,-1
 511 205 l 2,15,16
 511 242 511 242 494.5 262 c 128,-1,17
 478 282 478 282 446 282 c 0,18,19
 418 282 418 282 397 272.5 c 128,-1,20
 376 263 376 263 356 243 c 1,21,-1
 356 0 l 1,22,-1
 270 0 l 1,23,-1
 270 456 l 1,24,-1
 160 456 l 1,25,-1
 148 325 l 1,26,27
 139 207 139 207 125.5 144.5 c 128,-1,28
 112 82 112 82 90 50 c 128,-1,29
 68 18 68 18 26 -11 c 1,30,-1
 -9 45 l 1,31,32
 12 64 12 64 24.5 86 c 128,-1,33
 37 108 37 108 47 162 c 128,-1,34
 57 216 57 216 65 320 c 2,35,-1
 81 527 l 1,36,-1
 356 527 l 1,37,-1
 356 307 l 1,38,39
 400 349 400 349 466 349 c 0,40,0
 523 349 523 349 559.5 311 c 128,-1,1
EndSplineSet
Colour: ff0000
EndChar
StartChar: uni0522
Encoding: 1314 1314 416
Width: 600
Flags: W
LayerCount: 2
Fore
SplineSet
554 408.5 m 128,-1,1
 593 366 593 366 593 294 c 2,2,-1
 593 -58 l 2,3,4
 593 -132 593 -132 553 -171.5 c 128,-1,5
 513 -211 513 -211 448 -211 c 0,6,7
 384 -211 384 -211 335 -174 c 1,8,-1
 369 -117 l 1,9,10
 390 -129 390 -129 405.5 -134.5 c 128,-1,11
 421 -140 421 -140 444 -140 c 0,12,13
 506 -140 506 -140 506 -65 c 2,14,-1
 506 295 l 2,15,16
 506 374 506 374 436 374 c 0,17,18
 412 374 412 374 391 365.5 c 128,-1,19
 370 357 370 357 347 338 c 1,20,-1
 347 0 l 1,21,-1
 261 0 l 1,22,-1
 261 327 l 1,23,-1
 112 327 l 1,24,-1
 112 0 l 1,25,-1
 26 0 l 1,26,-1
 26 689 l 1,27,-1
 112 689 l 1,28,-1
 112 399 l 1,29,-1
 261 399 l 1,30,-1
 261 689 l 1,31,-1
 347 689 l 1,32,-1
 347 411 l 1,33,34
 390 451 390 451 449 451 c 0,35,0
 515 451 515 451 554 408.5 c 128,-1,1
EndSplineSet
Colour: ff0000
EndChar
StartChar: uni0528
Encoding: 1320 1320 281
Width: 600
Flags: W
LayerCount: 2
Fore
SplineSet
517 689 m 1,0,-1
 517 0 l 1,1,-1
 430 0 l 1,2,-1
 430 327 l 1,3,-1
 170 327 l 1,4,-1
 170 -62 l 2,5,6
 170 -135 170 -135 131.5 -173.5 c 128,-1,7
 93 -212 93 -212 25 -212 c 0,8,9
 -39 -212 -39 -212 -88 -175 c 1,10,-1
 -54 -118 l 1,11,12
 -35 -131 -35 -131 -19 -136.5 c 128,-1,13
 -3 -142 -3 -142 21 -142 c 0,14,15
 83 -142 83 -142 83 -67 c 2,16,-1
 83 689 l 1,17,-1
 170 689 l 1,18,-1
 170 398 l 1,19,-1
 430 398 l 1,20,-1
 430 689 l 1,21,-1
 517 689 l 1,0,-1
EndSplineSet
Colour: ff0000
EndChar
StartChar: uni0529
Encoding: 1321 1321 559
Width: 600
Flags: W
LayerCount: 2
Fore
SplineSet
500 527 m 1,0,-1
 500 0 l 1,1,-1
 416 0 l 1,2,-1
 416 234 l 1,3,-1
 184 234 l 1,4,-1
 184 0 l 1,5,-1
 185 0 l 1,6,-1
 185 -62 l 2,7,8
 185 -135 185 -135 145.5 -173.5 c 128,-1,9
 106 -212 106 -212 39 -212 c 0,10,11
 -25 -212 -25 -212 -74 -175 c 1,12,-1
 -40 -121 l 1,13,14
 -18 -133 -18 -133 -3 -138.5 c 128,-1,15
 12 -144 12 -144 35 -144 c 0,16,17
 101 -144 101 -144 101 -69 c 2,18,-1
 101 0 l 1,19,-1
 100 0 l 1,20,-1
 100 527 l 1,21,-1
 184 527 l 1,22,-1
 184 303 l 1,23,-1
 416 303 l 1,24,-1
 416 527 l 1,25,-1
 500 527 l 1,0,-1
EndSplineSet
Colour: ff0000
EndChar
StartChar: uni052B
Encoding: 1323 1323 557
Width: 600
Flags: W
LayerCount: 2
Fore
SplineSet
609 0 m 1,0,-1
 526 0 l 1,1,-1
 436 244 l 1,2,-1
 412 244 l 1,3,-1
 412 0 l 1,4,-1
 355 0 l 1,5,-1
 355 -147 l 1,6,-1
 288 -147 l 1,7,-1
 275 0 l 1,8,-1
 70 0 l 1,9,-1
 56 -147 l 1,10,-1
 -10 -147 l 1,11,-1
 -10 71 l 1,12,-1
 13 71 l 1,13,14
 29 86 29 86 38 105 c 128,-1,15
 47 124 47 124 55.5 175 c 128,-1,16
 64 226 64 226 71 327 c 2,17,-1
 85 527 l 1,18,-1
 286 527 l 1,19,-1
 286 314 l 1,20,-1
 334 314 l 1,21,-1
 334 527 l 1,22,-1
 412 527 l 1,23,-1
 412 314 l 1,24,-1
 437 314 l 1,25,-1
 515 527 l 1,26,-1
 591 527 l 1,27,-1
 501 283 l 1,28,-1
 609 0 l 1,0,-1
208 454 m 1,29,-1
 157 454 l 1,30,-1
 150 340 l 2,31,32
 143 238 143 238 137 191.5 c 128,-1,33
 131 145 131 145 119.5 118.5 c 128,-1,34
 108 92 108 92 84 71 c 1,35,-1
 208 71 l 1,36,-1
 208 454 l 1,29,-1
334 71 m 1,37,-1
 334 244 l 1,38,-1
 286 244 l 1,39,-1
 286 71 l 1,40,-1
 334 71 l 1,37,-1
EndSplineSet
Colour: ff0000
EndChar
StartChar: uni052C
Encoding: 1324 1324 278
Width: 600
Flags: W
LayerCount: 2
Fore
SplineSet
562 73 m 1,0,-1
 562 -147 l 1,1,-1
 494 -147 l 1,2,-1
 479 0 l 1,3,-1
 136 0 l 1,4,-1
 122 -147 l 1,5,-1
 53 -147 l 1,6,-1
 53 73 l 1,7,-1
 89 73 l 1,8,9
 120 105 120 105 149 171.5 c 128,-1,10
 178 238 178 238 200 346 c 1,11,12
 129 363 129 363 95 414.5 c 128,-1,13
 61 466 61 466 61 558 c 2,14,-1
 61 689 l 1,15,-1
 150 689 l 1,16,-1
 150 562 l 2,17,18
 150 505 150 505 165 471 c 128,-1,19
 180 437 180 437 214 422 c 1,20,-1
 223 488 l 1,21,-1
 248 689 l 1,22,-1
 527 689 l 1,23,-1
 527 73 l 1,24,-1
 562 73 l 1,0,-1
312 484 m 2,25,26
 306 433 306 433 302 407 c 1,27,-1
 440 407 l 1,28,-1
 440 614 l 1,29,-1
 327 614 l 1,30,-1
 312 484 l 2,25,26
440 73 m 1,31,-1
 440 336 l 1,32,-1
 296 336 l 1,33,-1
 290 336 l 1,34,35
 269 227 269 227 241.5 169.5 c 128,-1,36
 214 112 214 112 177 73 c 1,37,-1
 440 73 l 1,31,-1
EndSplineSet
Colour: ff0000
EndChar
StartChar: uni1FBF
Encoding: 8127 8127 1461
Width: 600
Flags: W
LayerCount: 2
Fore
SplineSet
342 789.5 m 128,-1,1
 358 774 358 774 358 752 c 0,2,3
 358 732 358 732 343 697 c 1,4,-1
 292 590 l 1,5,-1
 242 590 l 1,6,-1
 271 707 l 1,7,8
 249 724 249 724 249 752 c 0,9,10
 249 775 249 775 264.5 790 c 128,-1,11
 280 805 280 805 303 805 c 256,12,0
 326 805 326 805 342 789.5 c 128,-1,1
EndSplineSet
Colour: ff0000
EndChar
StartChar: uni1FCD
Encoding: 8141 8141 1464
Width: 600
Flags: W
LayerCount: 2
Fore
SplineSet
260 781.5 m 128,-1,1
 276 766 276 766 276 744 c 0,2,3
 276 724 276 724 261 689 c 1,4,-1
 210 582 l 1,5,-1
 160 582 l 1,6,-1
 189 699 l 1,7,8
 167 716 167 716 167 744 c 0,9,10
 167 767 167 767 182.5 782 c 128,-1,11
 198 797 198 797 221 797 c 256,12,0
 244 797 244 797 260 781.5 c 128,-1,1
432 590 m 1,13,-1
 375 574 l 1,14,-1
 307 773 l 1,15,-1
 384 792 l 1,16,-1
 432 590 l 1,13,-1
EndSplineSet
Colour: ff0000
EndChar
StartChar: uni1FD3
Encoding: 8147 8147 845
Width: 600
Flags: W
LayerCount: 2
Fore
SplineSet
420 836 m 1,0,-1
 286 711 l 1,1,-1
 251 744 l 1,2,-1
 367 886 l 1,3,-1
 420 836 l 1,0,-1
219.5 719.5 m 128,-1,5
 235 704 235 704 235 681 c 256,6,7
 235 658 235 658 219.5 642.5 c 128,-1,8
 204 627 204 627 181 627 c 256,9,10
 158 627 158 627 142 642.5 c 128,-1,11
 126 658 126 658 126 681 c 256,12,13
 126 704 126 704 142 719.5 c 128,-1,14
 158 735 158 735 181 735 c 256,15,4
 204 735 204 735 219.5 719.5 c 128,-1,5
425 719.5 m 128,-1,17
 441 704 441 704 441 681 c 256,18,19
 441 658 441 658 425 642.5 c 128,-1,20
 409 627 409 627 386 627 c 0,21,22
 364 627 364 627 348 643 c 128,-1,23
 332 659 332 659 332 681 c 0,24,25
 332 704 332 704 347.5 719.5 c 128,-1,26
 363 735 363 735 386 735 c 256,27,16
 409 735 409 735 425 719.5 c 128,-1,17
63 455 m 1,28,-1
 72 527 l 1,29,-1
 324 527 l 1,30,-1
 324 130 l 2,31,32
 324 59 324 59 411 59 c 0,33,34
 453 59 453 59 500 77 c 1,35,-1
 522 16 l 1,36,37
 503 5 503 5 467.5 -3 c 128,-1,38
 432 -11 432 -11 397 -11 c 0,39,40
 325 -11 325 -11 282.5 29 c 128,-1,41
 240 69 240 69 240 140 c 2,42,-1
 240 455 l 1,43,-1
 63 455 l 1,28,-1
EndSplineSet
Colour: ff0000
EndChar
StartChar: uni1FD7
Encoding: 8151 8151 846
Width: 600
Flags: W
LayerCount: 2
Fore
SplineSet
310.5 783 m 128,-1,1
 295 790 295 790 276 803 c 0,2,3
 261 814 261 814 250.5 819 c 128,-1,4
 240 824 240 824 229 824 c 0,5,6
 213 824 213 824 201 813 c 128,-1,7
 189 802 189 802 176 778 c 1,8,-1
 123 804 l 1,9,10
 142 843 142 843 168.5 866 c 128,-1,11
 195 889 195 889 229 889 c 0,12,13
 250 889 250 889 265 881.5 c 128,-1,14
 280 874 280 874 299 861 c 0,15,16
 316 849 316 849 325 844.5 c 128,-1,17
 334 840 334 840 345 840 c 0,18,19
 360 840 360 840 372 850.5 c 128,-1,20
 384 861 384 861 398 885 c 1,21,-1
 452 858 l 1,22,23
 433 817 433 817 405.5 796.5 c 128,-1,24
 378 776 378 776 345 776 c 0,25,0
 326 776 326 776 310.5 783 c 128,-1,1
145 634.5 m 128,-1,27
 129 650 129 650 129 672 c 0,28,29
 129 696 129 696 145 711.5 c 128,-1,30
 161 727 161 727 184 727 c 256,31,32
 207 727 207 727 222.5 711.5 c 128,-1,33
 238 696 238 696 238 672 c 0,34,35
 238 649 238 649 222.5 634 c 128,-1,36
 207 619 207 619 184 619 c 256,37,26
 161 619 161 619 145 634.5 c 128,-1,27
352.5 634 m 128,-1,39
 337 649 337 649 337 672 c 0,40,41
 337 696 337 696 352.5 711.5 c 128,-1,42
 368 727 368 727 391 727 c 256,43,44
 414 727 414 727 430 711.5 c 128,-1,45
 446 696 446 696 446 672 c 0,46,47
 446 650 446 650 430 634.5 c 128,-1,48
 414 619 414 619 391 619 c 256,49,38
 368 619 368 619 352.5 634 c 128,-1,39
63 455 m 1,50,-1
 72 527 l 1,51,-1
 324 527 l 1,52,-1
 324 130 l 2,53,54
 324 59 324 59 411 59 c 0,55,56
 453 59 453 59 500 77 c 1,57,-1
 522 16 l 1,58,59
 503 5 503 5 467.5 -3 c 128,-1,60
 432 -11 432 -11 397 -11 c 0,61,62
 325 -11 325 -11 282.5 29 c 128,-1,63
 240 69 240 69 240 140 c 2,64,-1
 240 455 l 1,65,-1
 63 455 l 1,50,-1
EndSplineSet
Colour: ff0000
EndChar
StartChar: uni1FDE
Encoding: 8158 8158 1467
Width: 600
Flags: W
LayerCount: 2
Fore
SplineSet
253.5 783.5 m 128,-1,1
 269 768 269 768 269 745 c 0,2,3
 269 732 269 732 263 720 c 128,-1,4
 257 708 257 708 247 701 c 1,5,-1
 277 583 l 1,6,-1
 226 583 l 1,7,-1
 176 690 l 2,8,9
 167 709 167 709 163.5 721 c 128,-1,10
 160 733 160 733 160 745 c 0,11,12
 160 768 160 768 176 783.5 c 128,-1,13
 192 799 192 799 215 799 c 256,14,0
 238 799 238 799 253.5 783.5 c 128,-1,1
425 773 m 1,15,-1
 357 574 l 1,16,-1
 300 590 l 1,17,-1
 348 792 l 1,18,-1
 425 773 l 1,15,-1
EndSplineSet
Colour: ff0000
EndChar
StartChar: uni1FDF
Encoding: 8159 8159 1469
Width: 600
Flags: W
LayerCount: 2
Fore
SplineSet
322.5 754 m 128,-1,1
 307 761 307 761 288 774 c 0,2,3
 273 785 273 785 262.5 790 c 128,-1,4
 252 795 252 795 241 795 c 0,5,6
 225 795 225 795 213 784 c 128,-1,7
 201 773 201 773 188 749 c 1,8,-1
 135 776 l 1,9,10
 153 814 153 814 180 837 c 128,-1,11
 207 860 207 860 241 860 c 0,12,13
 262 860 262 860 277 852.5 c 128,-1,14
 292 845 292 845 311 832 c 0,15,16
 314 830 314 830 323.5 824 c 128,-1,17
 333 818 333 818 341 815 c 128,-1,18
 349 812 349 812 357 812 c 0,19,20
 372 812 372 812 384 822.5 c 128,-1,21
 396 833 396 833 410 856 c 1,22,-1
 464 829 l 1,23,24
 445 788 445 788 417.5 767.5 c 128,-1,25
 390 747 390 747 357 747 c 0,26,0
 338 747 338 747 322.5 754 c 128,-1,1
290 578 m 1,27,-1
 270 613 l 2,28,29
 253 644 253 644 247 660 c 128,-1,30
 241 676 241 676 241 689 c 0,31,32
 241 712 241 712 256.5 727 c 128,-1,33
 272 742 272 742 296 742 c 0,34,35
 319 742 319 742 335 727 c 128,-1,36
 351 712 351 712 351 689 c 0,37,38
 351 657 351 657 320 640 c 1,39,-1
 340 578 l 1,40,-1
 290 578 l 1,27,-1
EndSplineSet
Colour: ff0000
EndChar
StartChar: uni1FE2
Encoding: 8162 8162 870
Width: 600
Flags: W
LayerCount: 2
Fore
SplineSet
335 744 m 1,0,-1
 300 711 l 1,1,-1
 166 836 l 1,2,-1
 219 886 l 1,3,-1
 335 744 l 1,0,-1
235.5 719.5 m 128,-1,5
 251 704 251 704 251 681 c 0,6,7
 251 659 251 659 235.5 643 c 128,-1,8
 220 627 220 627 197 627 c 0,9,10
 173 627 173 627 157.5 642.5 c 128,-1,11
 142 658 142 658 142 681 c 256,12,13
 142 704 142 704 157.5 719.5 c 128,-1,14
 173 735 173 735 197 735 c 0,15,4
 220 735 220 735 235.5 719.5 c 128,-1,5
441 719.5 m 128,-1,17
 457 704 457 704 457 681 c 256,18,19
 457 658 457 658 441 642.5 c 128,-1,20
 425 627 425 627 402 627 c 256,21,22
 379 627 379 627 363.5 642.5 c 128,-1,23
 348 658 348 658 348 681 c 256,24,25
 348 704 348 704 363.5 719.5 c 128,-1,26
 379 735 379 735 402 735 c 256,27,16
 425 735 425 735 441 719.5 c 128,-1,17
525 255 m 0,29,30
 525 166 525 166 491.5 106 c 128,-1,31
 458 46 458 46 404.5 17.5 c 128,-1,32
 351 -11 351 -11 288 -11 c 0,33,34
 205 -11 205 -11 154 33 c 128,-1,35
 103 77 103 77 103 161 c 2,36,-1
 103 527 l 1,37,-1
 187 527 l 1,38,-1
 187 169 l 2,39,40
 187 114 187 114 214 86 c 128,-1,41
 241 58 241 58 291 58 c 0,42,43
 353 58 353 58 396.5 105 c 128,-1,44
 440 152 440 152 440 263 c 0,45,46
 440 396 440 396 414 527 c 1,47,-1
 500 527 l 1,48,28
 525 390 525 390 525 255 c 0,29,30
EndSplineSet
Colour: ff0000
EndChar
StartChar: uni1FE7
Encoding: 8167 8167 872
Width: 600
Flags: W
LayerCount: 2
Fore
SplineSet
326.5 783 m 128,-1,1
 311 790 311 790 292 803 c 0,2,3
 277 814 277 814 266.5 819 c 128,-1,4
 256 824 256 824 245 824 c 0,5,6
 229 824 229 824 217 813 c 128,-1,7
 205 802 205 802 192 778 c 1,8,-1
 139 804 l 1,9,10
 158 843 158 843 184.5 866 c 128,-1,11
 211 889 211 889 245 889 c 0,12,13
 266 889 266 889 281 881.5 c 128,-1,14
 296 874 296 874 315 861 c 0,15,16
 332 849 332 849 341 844.5 c 128,-1,17
 350 840 350 840 361 840 c 0,18,19
 376 840 376 840 388 850.5 c 128,-1,20
 400 861 400 861 414 885 c 1,21,-1
 468 858 l 1,22,23
 449 817 449 817 421.5 796.5 c 128,-1,24
 394 776 394 776 361 776 c 0,25,0
 342 776 342 776 326.5 783 c 128,-1,1
161 634.5 m 128,-1,27
 145 650 145 650 145 672 c 0,28,29
 145 696 145 696 161 711.5 c 128,-1,30
 177 727 177 727 200 727 c 256,31,32
 223 727 223 727 238.5 711.5 c 128,-1,33
 254 696 254 696 254 672 c 0,34,35
 254 649 254 649 238.5 634 c 128,-1,36
 223 619 223 619 200 619 c 256,37,26
 177 619 177 619 161 634.5 c 128,-1,27
368.5 634 m 128,-1,39
 353 649 353 649 353 672 c 0,40,41
 353 696 353 696 368.5 711.5 c 128,-1,42
 384 727 384 727 407 727 c 256,43,44
 430 727 430 727 446 711.5 c 128,-1,45
 462 696 462 696 462 672 c 0,46,47
 462 650 462 650 446 634.5 c 128,-1,48
 430 619 430 619 407 619 c 256,49,38
 384 619 384 619 368.5 634 c 128,-1,39
525 255 m 0,51,52
 525 166 525 166 491.5 106 c 128,-1,53
 458 46 458 46 404.5 17.5 c 128,-1,54
 351 -11 351 -11 288 -11 c 0,55,56
 205 -11 205 -11 154 33 c 128,-1,57
 103 77 103 77 103 161 c 2,58,-1
 103 527 l 1,59,-1
 187 527 l 1,60,-1
 187 169 l 2,61,62
 187 114 187 114 214 86 c 128,-1,63
 241 58 241 58 291 58 c 0,64,65
 353 58 353 58 396.5 105 c 128,-1,66
 440 152 440 152 440 263 c 0,67,68
 440 396 440 396 414 527 c 1,69,-1
 500 527 l 1,70,50
 525 390 525 390 525 255 c 0,51,52
EndSplineSet
Colour: ff0000
EndChar
StartChar: uni1FED
Encoding: 8173 8173 1470
Width: 600
Flags: W
LayerCount: 2
Fore
SplineSet
335 744 m 1,0,-1
 300 711 l 1,1,-1
 166 836 l 1,2,-1
 219 886 l 1,3,-1
 335 744 l 1,0,-1
235.5 719.5 m 128,-1,5
 251 704 251 704 251 681 c 0,6,7
 251 659 251 659 235.5 643 c 128,-1,8
 220 627 220 627 197 627 c 0,9,10
 173 627 173 627 157.5 642.5 c 128,-1,11
 142 658 142 658 142 681 c 256,12,13
 142 704 142 704 157.5 719.5 c 128,-1,14
 173 735 173 735 197 735 c 0,15,4
 220 735 220 735 235.5 719.5 c 128,-1,5
441 719.5 m 128,-1,17
 457 704 457 704 457 681 c 256,18,19
 457 658 457 658 441 642.5 c 128,-1,20
 425 627 425 627 402 627 c 256,21,22
 379 627 379 627 363.5 642.5 c 128,-1,23
 348 658 348 658 348 681 c 256,24,25
 348 704 348 704 363.5 719.5 c 128,-1,26
 379 735 379 735 402 735 c 256,27,16
 425 735 425 735 441 719.5 c 128,-1,17
EndSplineSet
Colour: ff0000
EndChar
StartChar: uni1FEF
Encoding: 8175 8175 1473
Width: 600
Flags: W
LayerCount: 2
Fore
SplineSet
416 685 m 1,0,-1
 390 640 l 1,1,-1
 181 725 l 1,2,-1
 220 797 l 1,3,-1
 416 685 l 1,0,-1
EndSplineSet
Colour: ff0000
EndChar
StartChar: endash
Encoding: 8211 8211 1022
Width: 600
Flags: W
LayerCount: 2
Fore
SplineSet
33 349 m 1,0,-1
 567 349 l 1,1,-1
 567 277 l 1,2,-1
 33 277 l 1,3,-1
 33 349 l 1,0,-1
EndSplineSet
Colour: ff0000
EndChar
StartChar: emdash
Encoding: 8212 8212 1021
Width: 600
Flags: W
LayerCount: 2
Fore
SplineSet
0 349 m 1,0,-1
 600 349 l 1,1,-1
 600 277 l 1,2,-1
 0 277 l 1,3,-1
 0 349 l 1,0,-1
EndSplineSet
EndChar
StartChar: underscoredbl
Encoding: 8215 8215 996
Width: 600
Flags: W
LayerCount: 2
Fore
SplineSet
550 -79 m 1,0,-1
 50 -79 l 1,1,-1
 50 0 l 1,2,-1
 550 0 l 1,3,-1
 550 -79 l 1,0,-1
550 -215 m 1,4,-1
 50 -215 l 1,5,-1
 50 -136 l 1,6,-1
 550 -136 l 1,7,-1
 550 -215 l 1,4,-1
EndSplineSet
Colour: ff0000
EndChar
StartChar: quoteleft
Encoding: 8216 8216 1038
Width: 600
Flags: W
LayerCount: 2
Fore
SplineSet
346.5 498.5 m 128,-1,1
 324 477 324 477 293 477 c 256,2,3
 262 477 262 477 240 498.5 c 128,-1,4
 218 520 218 520 218 551 c 0,5,6
 218 580 218 580 235 616 c 2,7,-1
 317 789 l 1,8,-1
 383 789 l 1,9,-1
 342 605 l 1,10,11
 354 597 354 597 361.5 582 c 128,-1,12
 369 567 369 567 369 551 c 0,13,0
 369 520 369 520 346.5 498.5 c 128,-1,1
EndSplineSet
EndChar
StartChar: quotesinglbase
Encoding: 8218 8218 1040
Width: 600
Flags: W
LayerCount: 2
Fore
SplineSet
253 108 m 128,-1,1
 276 130 276 130 306 130 c 0,2,3
 338 130 338 130 360 108.5 c 128,-1,4
 382 87 382 87 382 56 c 0,5,6
 382 42 382 42 378.5 28 c 128,-1,7
 375 14 375 14 364 -9 c 2,8,-1
 282 -182 l 1,9,-1
 216 -182 l 1,10,-1
 257 2 l 1,11,12
 245 10 245 10 237.5 25 c 128,-1,13
 230 40 230 40 230 56 c 0,14,0
 230 86 230 86 253 108 c 128,-1,1
EndSplineSet
Colour: ff0000
EndChar
StartChar: quotedblleft
Encoding: 8220 8220 1036
Width: 600
Flags: W
LayerCount: 2
Fore
SplineSet
238 498.5 m 128,-1,1
 216 477 216 477 184 477 c 0,2,3
 153 477 153 477 131 498.5 c 128,-1,4
 109 520 109 520 109 551 c 0,5,6
 109 578 109 578 127 616 c 2,7,-1
 208 789 l 1,8,-1
 275 789 l 1,9,-1
 234 605 l 1,10,11
 246 597 246 597 253 582.5 c 128,-1,12
 260 568 260 568 260 551 c 0,13,0
 260 520 260 520 238 498.5 c 128,-1,1
454 499 m 128,-1,15
 431 477 431 477 401 477 c 0,16,17
 370 477 370 477 348 498.5 c 128,-1,18
 326 520 326 520 326 551 c 0,19,20
 326 580 326 580 343 616 c 2,21,-1
 425 789 l 1,22,-1
 491 789 l 1,23,-1
 450 605 l 1,24,25
 462 597 462 597 469.5 582 c 128,-1,26
 477 567 477 567 477 551 c 0,27,14
 477 521 477 521 454 499 c 128,-1,15
EndSplineSet
EndChar
StartChar: quotedblright
Encoding: 8221 8221 1037
Width: 600
Flags: W
LayerCount: 2
Fore
SplineSet
145 766.5 m 128,-1,1
 168 788 168 788 198 788 c 0,2,3
 230 788 230 788 252 767 c 128,-1,4
 274 746 274 746 274 715 c 0,5,6
 274 701 274 701 270 687 c 128,-1,7
 266 673 266 673 255 649 c 2,8,-1
 174 476 l 1,9,-1
 108 476 l 1,10,-1
 148 660 l 1,11,12
 136 668 136 668 129 683 c 128,-1,13
 122 698 122 698 122 715 c 0,14,0
 122 745 122 745 145 766.5 c 128,-1,1
361.5 766.5 m 128,-1,16
 384 788 384 788 415 788 c 256,17,18
 446 788 446 788 468.5 766.5 c 128,-1,19
 491 745 491 745 491 715 c 0,20,21
 491 701 491 701 487 687 c 128,-1,22
 483 673 483 673 472 649 c 2,23,-1
 390 476 l 1,24,-1
 324 476 l 1,25,-1
 365 660 l 1,26,27
 353 668 353 668 346 683 c 128,-1,28
 339 698 339 698 339 715 c 0,29,15
 339 745 339 745 361.5 766.5 c 128,-1,16
EndSplineSet
EndChar
StartChar: dagger
Encoding: 8224 8224 1389
Width: 600
Flags: W
LayerCount: 2
Fore
SplineSet
340 520 m 1,0,-1
 510 520 l 1,1,-1
 510 449 l 1,2,-1
 340 449 l 1,3,-1
 340 0 l 1,4,-1
 260 0 l 1,5,-1
 260 449 l 1,6,-1
 90 449 l 1,7,-1
 90 520 l 1,8,-1
 260 520 l 1,9,-1
 260 677 l 1,10,-1
 340 677 l 1,11,-1
 340 520 l 1,0,-1
EndSplineSet
Colour: ff0000
EndChar
StartChar: bullet
Encoding: 8226 8226 980
Width: 600
Flags: W
LayerCount: 2
Fore
SplineSet
213 255 m 128,-1,1
 178 290 178 290 178 342 c 256,2,3
 178 394 178 394 212.5 428.5 c 128,-1,4
 247 463 247 463 300 463 c 256,5,6
 353 463 353 463 387.5 428.5 c 128,-1,7
 422 394 422 394 422 341 c 0,8,9
 422 289 422 289 387.5 254.5 c 128,-1,10
 353 220 353 220 300 220 c 0,11,0
 248 220 248 220 213 255 c 128,-1,1
EndSplineSet
Colour: ff0000
EndChar
StartChar: ellipsis
Encoding: 8230 8230 983
Width: 600
Flags: W
LayerCount: 2
Fore
SplineSet
51.5 104.5 m 128,-1,1
 71 124 71 124 99 124 c 0,2,3
 128 124 128 124 147.5 104.5 c 128,-1,4
 167 85 167 85 167 57 c 0,5,6
 167 28 167 28 147.5 8.5 c 128,-1,7
 128 -11 128 -11 99 -11 c 0,8,9
 71 -11 71 -11 51.5 8.5 c 128,-1,10
 32 28 32 28 32 57 c 0,11,0
 32 85 32 85 51.5 104.5 c 128,-1,1
252 104.5 m 128,-1,13
 272 124 272 124 300 124 c 256,14,15
 328 124 328 124 347.5 104.5 c 128,-1,16
 367 85 367 85 367 57 c 0,17,18
 367 28 367 28 347.5 8.5 c 128,-1,19
 328 -11 328 -11 300 -11 c 256,20,21
 272 -11 272 -11 252 9 c 128,-1,22
 232 29 232 29 232 57 c 256,23,12
 232 85 232 85 252 104.5 c 128,-1,13
452.5 104.5 m 128,-1,25
 472 124 472 124 500 124 c 0,26,27
 529 124 529 124 548.5 104.5 c 128,-1,28
 568 85 568 85 568 57 c 0,29,30
 568 28 568 28 548.5 8.5 c 128,-1,31
 529 -11 529 -11 500 -11 c 0,32,33
 472 -11 472 -11 452.5 8.5 c 128,-1,34
 433 28 433 28 433 57 c 0,35,24
 433 85 433 85 452.5 104.5 c 128,-1,25
EndSplineSet
Colour: ff0000
EndChar
StartChar: uni207F
Encoding: 8319 8319 277
Width: 600
Flags: W
LayerCount: 2
Fore
SplineSet
433 620 m 2,1,-1
 433 378 l 1,2,-1
 362 378 l 1,3,-1
 362 582 l 2,4,5
 362 630 362 630 353 648 c 128,-1,6
 344 666 344 666 315 666 c 0,7,8
 295 666 295 666 274 652 c 128,-1,9
 253 638 253 638 239 619 c 1,10,-1
 239 378 l 1,11,-1
 168 378 l 1,12,-1
 168 716 l 1,13,-1
 232 716 l 1,14,-1
 234 676 l 1,15,16
 253 699 253 699 279.5 711 c 128,-1,17
 306 723 306 723 332 723 c 0,18,0
 433 723 433 723 433 620 c 2,1,-1
EndSplineSet
Colour: ff0000
EndChar
StartChar: Euro
Encoding: 8364 8364 1059
Width: 600
Flags: W
LayerCount: 2
Fore
SplineSet
468.5 689 m 128,-1,1
 506 678 506 678 541 655 c 1,2,-1
 499 594 l 1,3,4
 444 628 444 628 385 628 c 0,5,6
 317 628 317 628 275 586 c 128,-1,7
 233 544 233 544 219 453 c 1,8,-1
 464 453 l 1,9,-1
 450 394 l 1,10,-1
 212 394 l 1,11,-1
 212 302 l 1,12,-1
 430 302 l 1,13,-1
 416 242 l 1,14,-1
 216 242 l 1,15,16
 228 148 228 148 267.5 104.5 c 128,-1,17
 307 61 307 61 380 61 c 0,18,19
 423 61 423 61 459.5 75 c 128,-1,20
 496 89 496 89 521 111 c 1,21,-1
 521 24 l 1,22,23
 458 -11 458 -11 377 -11 c 0,24,25
 273 -11 273 -11 209.5 54 c 128,-1,26
 146 119 146 119 128 242 c 1,27,-1
 35 242 l 1,28,-1
 50 302 l 1,29,-1
 122 302 l 1,30,-1
 123 394 l 1,31,-1
 35 394 l 1,32,-1
 50 453 l 1,33,-1
 130 453 l 1,34,35
 152 570 152 570 219.5 635 c 128,-1,36
 287 700 287 700 381 700 c 0,37,0
 431 700 431 700 468.5 689 c 128,-1,1
EndSplineSet
EndChar
StartChar: uni20B9
Encoding: 8377 8377 1063
Width: 600
Flags: W
LayerCount: 2
Fore
SplineSet
532 630 m 1,0,-1
 372 630 l 1,1,2
 433 604 433 604 448 538 c 1,3,-1
 532 538 l 1,4,-1
 532 479 l 1,5,-1
 453 479 l 1,6,7
 450 404 450 404 410.5 359 c 128,-1,8
 371 314 371 314 293 293 c 1,9,-1
 490 0 l 1,10,-1
 385 0 l 1,11,-1
 206 280 l 1,12,-1
 95 280 l 1,13,-1
 95 350 l 1,14,-1
 206 350 l 2,15,16
 281 350 281 350 319 380 c 128,-1,17
 357 410 357 410 359 479 c 1,18,-1
 95 479 l 1,19,-1
 95 538 l 1,20,-1
 353 538 l 1,21,22
 341 582 341 582 302.5 603 c 128,-1,23
 264 624 264 624 194 624 c 2,24,-1
 84 624 l 1,25,-1
 95 689 l 1,26,-1
 532 689 l 1,27,-1
 532 630 l 1,0,-1
EndSplineSet
Colour: ff0000
EndChar
StartChar: uni20BD
Encoding: 8381 8381 1062
Width: 600
Flags: W
LayerCount: 2
Fore
SplineSet
226 177 m 1,0,-1
 402 177 l 1,1,-1
 402 119 l 1,2,-1
 226 119 l 1,3,-1
 226 0 l 1,4,-1
 139 0 l 1,5,-1
 139 119 l 1,6,-1
 64 119 l 1,7,-1
 64 177 l 1,8,-1
 139 177 l 1,9,-1
 139 253 l 1,10,-1
 64 253 l 1,11,-1
 64 319 l 1,12,-1
 139 319 l 1,13,-1
 139 689 l 1,14,-1
 297 689 l 2,15,16
 423 689 423 689 493 636 c 128,-1,17
 563 583 563 583 563 477 c 0,18,19
 563 360 563 360 492 306.5 c 128,-1,20
 421 253 421 253 296 253 c 2,21,-1
 226 253 l 1,22,-1
 226 177 l 1,0,-1
226 319 m 1,23,-1
 304 319 l 2,24,25
 383 319 383 319 426.5 354 c 128,-1,26
 470 389 470 389 470 476 c 0,27,28
 470 551 470 551 426.5 585 c 128,-1,29
 383 619 383 619 308 619 c 2,30,-1
 226 619 l 1,31,-1
 226 319 l 1,23,-1
EndSplineSet
Colour: ff0000
EndChar
StartChar: uni2116
Encoding: 8470 8470 1387
Width: 600
Flags: W
LayerCount: 2
Fore
SplineSet
552.5 644 m 128,-1,1
 583 587 583 587 583 480 c 0,2,3
 583 258 583 258 453 258 c 0,4,5
 321 258 321 258 321 480 c 0,6,7
 321 584 321 584 352.5 642.5 c 128,-1,8
 384 701 384 701 453 701 c 256,9,0
 522 701 522 701 552.5 644 c 128,-1,1
302 0 m 1,10,-1
 194 0 l 1,11,-1
 84 588 l 1,12,-1
 80 588 l 1,13,14
 82 561 82 561 86.5 488 c 128,-1,15
 91 415 91 415 91 347 c 2,16,-1
 91 0 l 1,17,-1
 28 0 l 1,18,-1
 28 689 l 1,19,-1
 138 689 l 1,20,-1
 246 97 l 1,21,-1
 250 97 l 1,22,23
 239 218 239 218 239 342 c 2,24,-1
 239 689 l 1,25,-1
 302 689 l 1,26,-1
 302 0 l 1,10,-1
412.5 604 m 128,-1,28
 401 565 401 565 401 480 c 0,29,30
 401 394 401 394 412.5 355 c 128,-1,31
 424 316 424 316 453 316 c 256,32,33
 482 316 482 316 493 354.5 c 128,-1,34
 504 393 504 393 504 480 c 0,35,36
 504 565 504 565 493 604 c 128,-1,37
 482 643 482 643 453 643 c 256,38,27
 424 643 424 643 412.5 604 c 128,-1,28
576 0 m 1,39,-1
 331 0 l 1,40,-1
 331 70 l 1,41,-1
 576 70 l 1,42,-1
 576 0 l 1,39,-1
EndSplineSet
Colour: ff0000
EndChar
StartChar: trademark
Encoding: 8482 8482 1383
Width: 600
Flags: W
LayerCount: 2
Fore
SplineSet
579 298 m 1,0,-1
 518 298 l 1,1,-1
 509 530 l 1,2,-1
 508 552 l 2,3,4
 506 603 506 603 507 628 c 1,5,-1
 505 628 l 1,6,-1
 458 336 l 1,7,-1
 393 336 l 1,8,-1
 336 628 l 1,9,-1
 333 628 l 1,10,11
 334 613 334 613 334 580 c 256,12,13
 334 547 334 547 333 531 c 2,14,-1
 324 298 l 1,15,-1
 266 298 l 1,16,-1
 280 632 l 1,17,-1
 174 632 l 1,18,-1
 174 298 l 1,19,-1
 112 298 l 1,20,-1
 112 632 l 1,21,-1
 13 632 l 1,22,-1
 13 688 l 1,23,-1
 374 688 l 1,24,-1
 426 407 l 1,25,-1
 469 688 l 1,26,-1
 564 688 l 1,27,-1
 579 298 l 1,0,-1
EndSplineSet
Colour: ff0000
EndChar
StartChar: arrowdown
Encoding: 8595 8595 1145
Width: 600
Flags: W
LayerCount: 2
Fore
SplineSet
342 82 m 1,0,1
 353 103 353 103 366.5 118.5 c 128,-1,2
 380 134 380 134 401 152 c 2,3,-1
 562 300 l 1,4,-1
 613 243 l 1,5,-1
 300 -36 l 1,6,-1
 -13 243 l 1,7,-1
 38 300 l 1,8,-1
 199 152 l 1,9,10
 239 119 239 119 258 82 c 1,11,-1
 258 631 l 1,12,-1
 342 631 l 1,13,-1
 342 82 l 1,0,1
EndSplineSet
Colour: ff0000
EndChar
StartChar: uni2197
Encoding: 8599 8599 1142
Width: 600
Flags: W
LayerCount: 2
Fore
SplineSet
39 134 m 1,0,-1
 420 519 l 1,1,2
 379 511 379 511 347 511 c 0,3,4
 328 511 328 511 316 512 c 2,5,-1
 126 523 l 1,6,-1
 131 600 l 1,7,-1
 539 578 l 1,8,-1
 561 161 l 1,9,-1
 481 157 l 1,10,-1
 468 361 l 2,11,12
 467 369 467 369 467 386 c 0,13,14
 467 426 467 426 476 463 c 1,15,-1
 95 78 l 1,16,-1
 39 134 l 1,0,-1
EndSplineSet
Colour: ff0000
EndChar
StartChar: uni2199
Encoding: 8601 8601 1146
Width: 600
Flags: W
LayerCount: 2
Fore
SplineSet
561 509 m 1,0,-1
 180 124 l 1,1,2
 221 132 221 132 253 132 c 0,3,4
 272 132 272 132 284 131 c 2,5,-1
 474 120 l 1,6,-1
 469 43 l 1,7,-1
 61 65 l 1,8,-1
 39 482 l 1,9,-1
 119 487 l 1,10,-1
 132 282 l 2,11,12
 133 274 133 274 133 257 c 0,13,14
 133 217 133 217 124 180 c 1,15,-1
 505 565 l 1,16,-1
 561 509 l 1,0,-1
EndSplineSet
Colour: ff0000
EndChar
StartChar: uni21E6
Encoding: 8678 8678 1154
Width: 600
Flags: W
LayerCount: 2
Fore
SplineSet
258 437 m 1,0,-1
 590 437 l 2,1,2
 613 437 613 437 626.5 423.5 c 128,-1,3
 640 410 640 410 640 387 c 2,4,-1
 640 239 l 2,5,6
 640 217 640 217 626.5 203 c 128,-1,7
 613 189 613 189 590 189 c 2,8,-1
 258 189 l 1,9,-1
 258 13 l 1,10,-1
 -40 313 l 1,11,-1
 258 613 l 1,12,-1
 258 437 l 1,0,-1
24 313 m 1,13,-1
 213 122 l 1,14,-1
 213 233 l 1,15,-1
 596 233 l 1,16,-1
 596 393 l 1,17,-1
 213 393 l 1,18,-1
 213 504 l 1,19,-1
 24 313 l 1,13,-1
EndSplineSet
Colour: ff0000
EndChar
StartChar: uni21E7
Encoding: 8679 8679 1151
Width: 600
Flags: W
LayerCount: 2
Fore
SplineSet
600 534 m 1,0,-1
 431 534 l 1,1,-1
 431 38 l 2,2,3
 431 16 431 16 417.5 2 c 128,-1,4
 404 -12 404 -12 381 -12 c 2,5,-1
 219 -12 l 2,6,7
 197 -12 197 -12 183 2 c 128,-1,8
 169 16 169 16 169 38 c 2,9,-1
 169 534 l 1,10,-1
 0 534 l 1,11,-1
 300 832 l 1,12,-1
 600 534 l 1,0,-1
109 579 m 1,13,-1
 216 579 l 1,14,-1
 216 32 l 1,15,-1
 384 32 l 1,16,-1
 384 579 l 1,17,-1
 491 579 l 1,18,-1
 300 768 l 1,19,-1
 109 579 l 1,13,-1
EndSplineSet
Colour: ff0000
EndChar
StartChar: uni21E8
Encoding: 8680 8680 1152
Width: 600
Flags: W
LayerCount: 2
Fore
SplineSet
640 313 m 1,0,-1
 342 13 l 1,1,-1
 342 189 l 1,2,-1
 10 189 l 2,3,4
 -13 189 -13 189 -26.5 203 c 128,-1,5
 -40 217 -40 217 -40 239 c 2,6,-1
 -40 387 l 2,7,8
 -40 410 -40 410 -26.5 423.5 c 128,-1,9
 -13 437 -13 437 10 437 c 2,10,-1
 342 437 l 1,11,-1
 342 613 l 1,12,-1
 640 313 l 1,0,-1
387 393 m 1,13,-1
 4 393 l 1,14,-1
 4 233 l 1,15,-1
 387 233 l 1,16,-1
 387 122 l 1,17,-1
 576 313 l 1,18,-1
 387 504 l 1,19,-1
 387 393 l 1,13,-1
EndSplineSet
Colour: ff0000
EndChar
StartChar: partialdiff
Encoding: 8706 8706 1101
Width: 600
Flags: W
LayerCount: 2
Fore
SplineSet
364.5 609 m 128,-1,1
 440 556 440 556 476 472 c 128,-1,2
 512 388 512 388 512 259 c 0,3,4
 512 181 512 181 486 119.5 c 128,-1,5
 460 58 460 58 411.5 23.5 c 128,-1,6
 363 -11 363 -11 299 -11 c 0,7,8
 242 -11 242 -11 194 15.5 c 128,-1,9
 146 42 146 42 117.5 92 c 128,-1,10
 89 142 89 142 89 209 c 0,11,12
 89 273 89 273 114.5 323.5 c 128,-1,13
 140 374 140 374 183.5 401.5 c 128,-1,14
 227 429 227 429 279 429 c 0,15,16
 325 429 325 429 362 407.5 c 128,-1,17
 399 386 399 386 423 351 c 1,18,19
 418 455 418 455 346 526.5 c 128,-1,20
 274 598 274 598 145 633 c 1,21,-1
 164 696 l 1,22,0
 289 662 289 662 364.5 609 c 128,-1,1
206.5 323 m 128,-1,24
 174 284 174 284 174 215 c 0,25,26
 174 142 174 142 207.5 99.5 c 128,-1,27
 241 57 241 57 296 57 c 0,28,29
 358 57 358 57 392 106 c 128,-1,30
 426 155 426 155 427 253 c 1,31,-1
 427 277 l 1,32,33
 394 322 394 322 362 342 c 128,-1,34
 330 362 330 362 289 362 c 0,35,23
 239 362 239 362 206.5 323 c 128,-1,24
EndSplineSet
Colour: ff0000
EndChar
StartChar: summation
Encoding: 8721 8721 1111
Width: 600
Flags: W
LayerCount: 2
Fore
SplineSet
498 615 m 1,0,-1
 200 615 l 1,1,-1
 397 377 l 1,2,-1
 397 315 l 1,3,-1
 200 73 l 1,4,-1
 498 73 l 1,5,-1
 498 0 l 1,6,-1
 101 0 l 1,7,-1
 101 74 l 1,8,-1
 326 344 l 1,9,-1
 101 615 l 1,10,-1
 101 689 l 1,11,-1
 498 689 l 1,12,-1
 498 615 l 1,0,-1
EndSplineSet
Colour: ff0000
EndChar
StartChar: minus
Encoding: 8722 8722 1096
Width: 600
Flags: W
LayerCount: 2
Fore
SplineSet
484 275 m 1,0,-1
 116 275 l 1,1,-1
 116 350 l 1,2,-1
 484 350 l 1,3,-1
 484 275 l 1,0,-1
EndSplineSet
EndChar
StartChar: radical
Encoding: 8730 8730 1109
Width: 600
Flags: W
LayerCount: 2
Fore
SplineSet
695 794 m 1,0,-1
 512 794 l 1,1,-1
 291 0 l 1,2,-1
 196 0 l 1,3,-1
 29 457 l 1,4,-1
 102 481 l 1,5,-1
 240 90 l 1,6,-1
 453 866 l 1,7,-1
 695 866 l 1,8,-1
 695 794 l 1,0,-1
EndSplineSet
Colour: ff0000
EndChar
StartChar: integral
Encoding: 8747 8747 1088
Width: 600
Flags: W
LayerCount: 2
Fore
SplineSet
464 845 m 128,-1,1
 491 839 491 839 523 825 c 1,2,-1
 495 762 l 1,3,4
 450 782 450 782 405 782 c 0,5,6
 365 782 365 782 349 762.5 c 128,-1,7
 333 743 333 743 333 704 c 2,8,-1
 333 -74 l 2,9,10
 333 -142 333 -142 296.5 -177 c 128,-1,11
 260 -212 260 -212 193 -212 c 0,12,13
 157 -212 157 -212 133 -206 c 128,-1,14
 109 -200 109 -200 77 -186 c 1,15,-1
 105 -123 l 1,16,17
 129 -134 129 -134 147.5 -138 c 128,-1,18
 166 -142 166 -142 187 -142 c 0,19,20
 218 -142 218 -142 235 -124 c 128,-1,21
 252 -106 252 -106 252 -73 c 2,22,-1
 252 705 l 2,23,24
 252 778 252 778 291 814.5 c 128,-1,25
 330 851 330 851 400 851 c 0,26,0
 437 851 437 851 464 845 c 128,-1,1
EndSplineSet
Colour: ff0000
EndChar
StartChar: approxequal
Encoding: 8776 8776 1076
Width: 600
Flags: W
LayerCount: 2
Fore
SplineSet
279.5 460.5 m 128,-1,1
 302 451 302 451 328 435 c 1,2,3
 348 424 348 424 358.5 419 c 128,-1,4
 369 414 369 414 380 414 c 0,5,6
 403 414 403 414 418 427 c 128,-1,7
 433 440 433 440 447 464 c 1,8,-1
 505 434 l 1,9,10
 459 347 459 347 374 347 c 0,11,12
 343 347 343 347 320.5 356.5 c 128,-1,13
 298 366 298 366 272 382 c 1,14,15
 252 393 252 393 241.5 398 c 128,-1,16
 231 403 231 403 220 403 c 0,17,18
 197 403 197 403 182 390 c 128,-1,19
 167 377 167 377 153 352 c 1,20,-1
 95 382 l 1,21,22
 114 418 114 418 146 444 c 128,-1,23
 178 470 178 470 226 470 c 0,24,0
 257 470 257 470 279.5 460.5 c 128,-1,1
279.5 272.5 m 128,-1,26
 302 263 302 263 328 247 c 0,27,28
 346 236 346 236 357.5 230.5 c 128,-1,29
 369 225 369 225 380 225 c 0,30,31
 403 225 403 225 418 238 c 128,-1,32
 433 251 433 251 447 276 c 1,33,-1
 505 246 l 1,34,35
 486 210 486 210 454.5 184.5 c 128,-1,36
 423 159 423 159 374 159 c 0,37,38
 344 159 344 159 321.5 168 c 128,-1,39
 299 177 299 177 272 193 c 0,40,41
 252 204 252 204 241.5 209 c 128,-1,42
 231 214 231 214 220 214 c 0,43,44
 197 214 197 214 182 201 c 128,-1,45
 167 188 167 188 153 164 c 1,46,-1
 95 194 l 1,47,48
 114 230 114 230 146 256 c 128,-1,49
 178 282 178 282 226 282 c 0,50,25
 257 282 257 282 279.5 272.5 c 128,-1,26
EndSplineSet
Colour: ff0000
EndChar
StartChar: equivalence
Encoding: 8801 8801 1084
Width: 600
Flags: W
LayerCount: 2
Fore
SplineSet
494 465 m 1,0,-1
 106 465 l 1,1,-1
 106 538 l 1,2,-1
 494 538 l 1,3,-1
 494 465 l 1,0,-1
494 276 m 1,4,-1
 106 276 l 1,5,-1
 106 348 l 1,6,-1
 494 348 l 1,7,-1
 494 276 l 1,4,-1
494 86 m 1,8,-1
 106 86 l 1,9,-1
 106 158 l 1,10,-1
 494 158 l 1,11,-1
 494 86 l 1,8,-1
EndSplineSet
Colour: ff0000
EndChar
StartChar: greaterequal
Encoding: 8805 8805 1086
Width: 600
Flags: W
LayerCount: 2
Fore
SplineSet
493 386 m 1,0,-1
 493 296 l 1,1,-1
 140 142 l 1,2,-1
 106 210 l 1,3,-1
 427 340 l 1,4,-1
 106 477 l 1,5,-1
 140 547 l 1,6,-1
 493 386 l 1,0,-1
493 0 m 1,7,-1
 124 0 l 1,8,-1
 124 74 l 1,9,-1
 493 74 l 1,10,-1
 493 0 l 1,7,-1
EndSplineSet
Colour: ff0000
EndChar
StartChar: integraltp
Encoding: 8992 8992 1090
Width: 600
Flags: W
LayerCount: 2
Fore
SplineSet
464 845 m 128,-1,1
 491 839 491 839 523 825 c 1,2,-1
 495 762 l 1,3,4
 450 782 450 782 405 782 c 0,5,6
 365 782 365 782 349 762.5 c 128,-1,7
 333 743 333 743 333 704 c 2,8,-1
 333 -500 l 1,9,-1
 252 -500 l 1,10,-1
 252 705 l 2,11,12
 252 778 252 778 291 814.5 c 128,-1,13
 330 851 330 851 400 851 c 0,14,0
 437 851 437 851 464 845 c 128,-1,1
EndSplineSet
Colour: ff0000
EndChar
StartChar: uni232B
Encoding: 9003 9003 1395
Width: 600
Flags: W
LayerCount: 2
Fore
SplineSet
666.5 659.5 m 128,-1,1
 680 646 680 646 680 623 c 2,2,-1
 680 78 l 2,3,4
 680 56 680 56 666.5 42 c 128,-1,5
 653 28 653 28 630 28 c 2,6,-1
 200 28 l 1,7,-1
 -140 352 l 1,8,-1
 200 673 l 1,9,-1
 630 673 l 2,10,0
 653 673 653 673 666.5 659.5 c 128,-1,1
380 422 m 1,11,-1
 246 557 l 1,12,-1
 179 488 l 1,13,-1
 313 355 l 1,14,-1
 179 221 l 1,15,-1
 246 154 l 1,16,-1
 380 288 l 1,17,-1
 514 154 l 1,18,-1
 581 221 l 1,19,-1
 447 355 l 1,20,-1
 581 488 l 1,21,-1
 514 557 l 1,22,-1
 380 422 l 1,11,-1
EndSplineSet
Colour: ff0000
EndChar
StartChar: uni23CE
Encoding: 9166 9166 1398
Width: 600
Flags: W
LayerCount: 2
Fore
SplineSet
616.5 736.5 m 128,-1,1
 630 723 630 723 630 700 c 2,2,-1
 630 239 l 2,3,4
 630 217 630 217 616.5 203 c 128,-1,5
 603 189 603 189 580 189 c 2,6,-1
 268 189 l 1,7,-1
 268 15 l 1,8,-1
 -30 313 l 1,9,-1
 268 612 l 1,10,-1
 268 438 l 1,11,-1
 371 438 l 1,12,-1
 371 700 l 2,13,14
 371 723 371 723 385 736.5 c 128,-1,15
 399 750 399 750 421 750 c 2,16,-1
 580 750 l 2,17,0
 603 750 603 750 616.5 736.5 c 128,-1,1
416 706 m 1,18,-1
 416 393 l 1,19,-1
 223 393 l 1,20,-1
 223 504 l 1,21,-1
 34 313 l 1,22,-1
 223 122 l 1,23,-1
 223 233 l 1,24,-1
 584 233 l 1,25,-1
 584 706 l 1,26,-1
 416 706 l 1,18,-1
EndSplineSet
Colour: ff0000
EndChar
StartChar: uni250C
Encoding: 9484 9484 1223
Width: 600
Flags: W
LayerCount: 2
Fore
SplineSet
605 310 m 1,0,-1
 340 310 l 1,1,-1
 340 -500 l 1,2,-1
 260 -500 l 1,3,-1
 260 390 l 1,4,-1
 605 390 l 1,5,-1
 605 310 l 1,0,-1
EndSplineSet
Colour: ff0000
EndChar
StartChar: uni250F
Encoding: 9487 9487 1303
Width: 600
Flags: W
LayerCount: 2
Fore
SplineSet
605 230 m 1,0,-1
 420 230 l 1,1,-1
 420 -500 l 1,2,-1
 180 -500 l 1,3,-1
 180 470 l 1,4,-1
 605 470 l 1,5,-1
 605 230 l 1,0,-1
EndSplineSet
Colour: ff0000
EndChar
StartChar: uni2510
Encoding: 9488 9488 1225
Width: 600
Flags: W
LayerCount: 2
Fore
SplineSet
340 -500 m 1,0,-1
 260 -500 l 1,1,-1
 260 310 l 1,2,-1
 -5 310 l 1,3,-1
 -5 390 l 1,4,-1
 340 390 l 1,5,-1
 340 -500 l 1,0,-1
EndSplineSet
Colour: ff0000
EndChar
StartChar: uni2512
Encoding: 9490 9490 1287
Width: 600
Flags: W
LayerCount: 2
Fore
SplineSet
420 -500 m 1,0,-1
 180 -500 l 1,1,-1
 180 310 l 1,2,-1
 -5 310 l 1,3,-1
 -5 390 l 1,4,-1
 420 390 l 1,5,-1
 420 -500 l 1,0,-1
EndSplineSet
Colour: ff0000
EndChar
StartChar: uni2519
Encoding: 9497 9497 1353
Width: 600
Flags: W
LayerCount: 2
Fore
SplineSet
340 230 m 1,0,-1
 -5 230 l 1,1,-1
 -5 470 l 1,2,-1
 260 470 l 1,3,-1
 260 1000 l 1,4,-1
 340 1000 l 1,5,-1
 340 230 l 1,0,-1
EndSplineSet
Colour: ff0000
EndChar
StartChar: uni2527
Encoding: 9511 9511 1288
Width: 600
Flags: W
LayerCount: 2
Fore
SplineSet
340 390 m 1,0,-1
 420 390 l 1,1,-1
 420 -500 l 1,2,-1
 180 -500 l 1,3,-1
 180 310 l 1,4,-1
 -5 310 l 1,5,-1
 -5 390 l 1,6,-1
 260 390 l 1,7,-1
 260 1000 l 1,8,-1
 340 1000 l 1,9,-1
 340 390 l 1,0,-1
EndSplineSet
Colour: ff0000
EndChar
StartChar: uni252A
Encoding: 9514 9514 1352
Width: 600
Flags: W
LayerCount: 2
Fore
SplineSet
340 470 m 1,0,-1
 420 470 l 1,1,-1
 420 -500 l 1,2,-1
 180 -500 l 1,3,-1
 180 230 l 1,4,-1
 -5 230 l 1,5,-1
 -5 470 l 1,6,-1
 260 470 l 1,7,-1
 260 1000 l 1,8,-1
 340 1000 l 1,9,-1
 340 470 l 1,0,-1
EndSplineSet
Colour: ff0000
EndChar
StartChar: uni2532
Encoding: 9522 9522 1321
Width: 600
Flags: W
LayerCount: 2
Fore
SplineSet
605 230 m 1,0,-1
 420 230 l 1,1,-1
 420 -500 l 1,2,-1
 180 -500 l 1,3,-1
 180 310 l 1,4,-1
 -5 310 l 1,5,-1
 -5 390 l 1,6,-1
 180 390 l 1,7,-1
 180 470 l 1,8,-1
 605 470 l 1,9,-1
 605 230 l 1,0,-1
EndSplineSet
Colour: ff0000
EndChar
StartChar: uni254C
Encoding: 9548 9548 1328
Width: 600
Flags: W
LayerCount: 2
Fore
SplineSet
260 310 m 1,0,-1
 -5 310 l 1,1,-1
 -5 390 l 1,2,-1
 260 390 l 1,3,-1
 260 310 l 1,0,-1
605 310 m 1,4,-1
 340 310 l 1,5,-1
 340 390 l 1,6,-1
 605 390 l 1,7,-1
 605 310 l 1,4,-1
EndSplineSet
Colour: ff0000
EndChar
StartChar: uni2555
Encoding: 9557 9557 1237
Width: 600
Flags: W
LayerCount: 2
Fore
SplineSet
340 -500 m 1,0,-1
 260 -500 l 1,1,-1
 260 230 l 1,2,-1
 -5 230 l 1,3,-1
 -5 310 l 1,4,-1
 260 310 l 1,5,-1
 260 390 l 1,6,-1
 -5 390 l 1,7,-1
 -5 470 l 1,8,-1
 340 470 l 1,9,-1
 340 -500 l 1,0,-1
EndSplineSet
Colour: ff0000
EndChar
StartChar: uni255F
Encoding: 9567 9567 1245
Width: 600
Flags: W
LayerCount: 2
Fore
SplineSet
260 -500 m 1,0,-1
 180 -500 l 1,1,-1
 180 1000 l 1,2,-1
 260 1000 l 1,3,-1
 260 -500 l 1,0,-1
420 390 m 1,4,-1
 605 390 l 1,5,-1
 605 310 l 1,6,-1
 420 310 l 1,7,-1
 420 -500 l 1,8,-1
 340 -500 l 1,9,-1
 340 1000 l 1,10,-1
 420 1000 l 1,11,-1
 420 390 l 1,4,-1
EndSplineSet
Colour: ff0000
EndChar
StartChar: uni2574
Encoding: 9588 9588 1331
Width: 600
Flags: W
LayerCount: 2
Fore
SplineSet
340 310 m 1,0,-1
 -5 310 l 1,1,-1
 -5 390 l 1,2,-1
 340 390 l 1,3,-1
 340 310 l 1,0,-1
EndSplineSet
Colour: ff0000
EndChar
StartChar: uni2577
Encoding: 9591 9591 1330
Width: 600
Flags: W
LayerCount: 2
Fore
SplineSet
340 310 m 1,0,-1
 260 310 l 1,1,-1
 260 1000 l 1,2,-1
 340 1000 l 1,3,-1
 340 310 l 1,0,-1
EndSplineSet
Colour: ff0000
EndChar
StartChar: uni258D
Encoding: 9613 9613 1171
Width: 600
Flags: W
LayerCount: 2
Fore
SplineSet
225 -500 m 1,0,-1
 0 -500 l 1,1,-1
 0 1000 l 1,2,-1
 225 1000 l 1,3,-1
 225 -500 l 1,0,-1
EndSplineSet
Colour: ff0000
EndChar
StartChar: shade
Encoding: 9618 9618 1189
Width: 600
Flags: W
LayerCount: 2
Fore
SplineSet
550 926 m 1,0,-1
 600 926 l 1,1,-1
 600 850 l 1,2,-1
 550 850 l 1,3,-1
 550 776 l 1,4,-1
 600 776 l 1,5,-1
 600 700 l 1,6,-1
 550 700 l 1,7,-1
 550 626 l 1,8,-1
 600 626 l 1,9,-1
 600 550 l 1,10,-1
 550 550 l 1,11,-1
 550 476 l 1,12,-1
 600 476 l 1,13,-1
 600 400 l 1,14,-1
 550 400 l 1,15,-1
 550 326 l 1,16,-1
 600 326 l 1,17,-1
 600 250 l 1,18,-1
 550 250 l 1,19,-1
 550 176 l 1,20,-1
 600 176 l 1,21,-1
 600 100 l 1,22,-1
 550 100 l 1,23,-1
 550 26 l 1,24,-1
 600 26 l 1,25,-1
 600 -50 l 1,26,-1
 550 -50 l 1,27,-1
 550 -124 l 1,28,-1
 600 -124 l 1,29,-1
 600 -200 l 1,30,-1
 550 -200 l 1,31,-1
 550 -274 l 1,32,-1
 600 -274 l 1,33,-1
 600 -350 l 1,34,-1
 550 -350 l 1,35,-1
 550 -424 l 1,36,-1
 600 -424 l 1,37,-1
 600 -500 l 1,38,-1
 549 -500 l 1,39,-1
 549 -425 l 1,40,-1
 500 -425 l 1,41,-1
 500 -500 l 1,42,-1
 449 -500 l 1,43,-1
 449 -425 l 1,44,-1
 400 -425 l 1,45,-1
 400 -500 l 1,46,-1
 349 -500 l 1,47,-1
 349 -425 l 1,48,-1
 300 -425 l 1,49,-1
 300 -500 l 1,50,-1
 249 -500 l 1,51,-1
 249 -425 l 1,52,-1
 200 -425 l 1,53,-1
 200 -500 l 1,54,-1
 149 -500 l 1,55,-1
 149 -425 l 1,56,-1
 100 -425 l 1,57,-1
 100 -500 l 1,58,-1
 49 -500 l 1,59,-1
 49 -425 l 1,60,-1
 0 -425 l 1,61,-1
 0 -349 l 1,62,-1
 49 -349 l 1,63,-1
 49 -275 l 1,64,-1
 0 -275 l 1,65,-1
 0 -199 l 1,66,-1
 49 -199 l 1,67,-1
 49 -125 l 1,68,-1
 0 -125 l 1,69,-1
 0 -49 l 1,70,-1
 49 -49 l 1,71,-1
 49 25 l 1,72,-1
 0 25 l 1,73,-1
 0 101 l 1,74,-1
 49 101 l 1,75,-1
 49 175 l 1,76,-1
 0 175 l 1,77,-1
 0 251 l 1,78,-1
 49 251 l 1,79,-1
 49 325 l 1,80,-1
 0 325 l 1,81,-1
 0 401 l 1,82,-1
 49 401 l 1,83,-1
 49 475 l 1,84,-1
 0 475 l 1,85,-1
 0 551 l 1,86,-1
 49 551 l 1,87,-1
 49 625 l 1,88,-1
 0 625 l 1,89,-1
 0 701 l 1,90,-1
 49 701 l 1,91,-1
 49 775 l 1,92,-1
 0 775 l 1,93,-1
 0 851 l 1,94,-1
 49 851 l 1,95,-1
 49 925 l 1,96,-1
 0 925 l 1,97,-1
 0 1000 l 1,98,-1
 50 1000 l 1,99,-1
 50 926 l 1,100,-1
 99 926 l 1,101,-1
 99 1000 l 1,102,-1
 150 1000 l 1,103,-1
 150 926 l 1,104,-1
 199 926 l 1,105,-1
 199 1000 l 1,106,-1
 250 1000 l 1,107,-1
 250 926 l 1,108,-1
 299 926 l 1,109,-1
 299 1000 l 1,110,-1
 350 1000 l 1,111,-1
 350 926 l 1,112,-1
 399 926 l 1,113,-1
 399 1000 l 1,114,-1
 450 1000 l 1,115,-1
 450 926 l 1,116,-1
 499 926 l 1,117,-1
 499 1000 l 1,118,-1
 550 1000 l 1,119,-1
 550 926 l 1,0,-1
100 925 m 1,120,-1
 100 851 l 1,121,-1
 149 851 l 1,122,-1
 149 925 l 1,123,-1
 100 925 l 1,120,-1
200 925 m 1,124,-1
 200 851 l 1,125,-1
 249 851 l 1,126,-1
 249 925 l 1,127,-1
 200 925 l 1,124,-1
300 925 m 1,128,-1
 300 851 l 1,129,-1
 350 851 l 1,130,-1
 350 925 l 1,131,-1
 300 925 l 1,128,-1
400 925 m 1,132,-1
 400 851 l 1,133,-1
 449 851 l 1,134,-1
 449 925 l 1,135,-1
 400 925 l 1,132,-1
500 925 m 1,136,-1
 500 851 l 1,137,-1
 549 851 l 1,138,-1
 549 925 l 1,139,-1
 500 925 l 1,136,-1
250 850 m 1,140,-1
 250 776 l 1,141,-1
 299 776 l 1,142,-1
 299 851 l 1,143,-1
 250 850 l 1,140,-1
50 850 m 1,144,-1
 50 776 l 1,145,-1
 99 776 l 1,146,-1
 99 850 l 1,147,-1
 50 850 l 1,144,-1
150 850 m 1,148,-1
 150 776 l 1,149,-1
 199 776 l 1,150,-1
 199 850 l 1,151,-1
 150 850 l 1,148,-1
350 850 m 1,152,-1
 350 776 l 1,153,-1
 399 776 l 1,154,-1
 399 850 l 1,155,-1
 350 850 l 1,152,-1
450 850 m 1,156,-1
 450 776 l 1,157,-1
 499 776 l 1,158,-1
 499 850 l 1,159,-1
 450 850 l 1,156,-1
300 775 m 1,160,-1
 300 701 l 1,161,-1
 349 701 l 1,162,-1
 349 776 l 1,163,-1
 300 775 l 1,160,-1
100 775 m 1,164,-1
 100 701 l 1,165,-1
 150 701 l 1,166,-1
 150 775 l 1,167,-1
 100 775 l 1,164,-1
200 775 m 1,168,-1
 200 701 l 1,169,-1
 249 701 l 1,170,-1
 249 775 l 1,171,-1
 200 775 l 1,168,-1
400 775 m 1,172,-1
 400 701 l 1,173,-1
 449 701 l 1,174,-1
 449 775 l 1,175,-1
 400 775 l 1,172,-1
500 775 m 1,176,-1
 500 701 l 1,177,-1
 549 701 l 1,178,-1
 549 775 l 1,179,-1
 500 775 l 1,176,-1
50 700 m 1,180,-1
 50 626 l 1,181,-1
 99 626 l 1,182,-1
 99 701 l 1,183,-1
 50 700 l 1,180,-1
150 700 m 1,184,-1
 150 626 l 1,185,-1
 199 626 l 1,186,-1
 199 701 l 1,187,-1
 150 700 l 1,184,-1
250 700 m 1,188,-1
 250 626 l 1,189,-1
 300 626 l 1,190,-1
 300 700 l 1,191,-1
 250 700 l 1,188,-1
350 700 m 1,192,-1
 350 626 l 1,193,-1
 399 626 l 1,194,-1
 399 700 l 1,195,-1
 350 700 l 1,192,-1
450 700 m 1,196,-1
 450 626 l 1,197,-1
 499 626 l 1,198,-1
 499 700 l 1,199,-1
 450 700 l 1,196,-1
100 625 m 1,200,-1
 100 551 l 1,201,-1
 149 551 l 1,202,-1
 149 625 l 1,203,-1
 100 625 l 1,200,-1
200 625 m 1,204,-1
 200 551 l 1,205,-1
 249 551 l 1,206,-1
 249 625 l 1,207,-1
 200 625 l 1,204,-1
300 625 m 1,208,-1
 300 551 l 1,209,-1
 349 551 l 1,210,-1
 349 625 l 1,211,-1
 300 625 l 1,208,-1
400 625 m 1,212,-1
 400 551 l 1,213,-1
 449 551 l 1,214,-1
 449 625 l 1,215,-1
 400 625 l 1,212,-1
500 625 m 1,216,-1
 500 551 l 1,217,-1
 549 551 l 1,218,-1
 549 625 l 1,219,-1
 500 625 l 1,216,-1
150 550 m 1,220,-1
 150 476 l 1,221,-1
 199 476 l 1,222,-1
 199 551 l 1,223,-1
 150 550 l 1,220,-1
50 550 m 1,224,-1
 50 476 l 1,225,-1
 99 476 l 1,226,-1
 99 550 l 1,227,-1
 50 550 l 1,224,-1
250 550 m 1,228,-1
 250 476 l 1,229,-1
 299 476 l 1,230,-1
 299 550 l 1,231,-1
 250 550 l 1,228,-1
350 550 m 1,232,-1
 350 476 l 1,233,-1
 399 476 l 1,234,-1
 399 550 l 1,235,-1
 350 550 l 1,232,-1
450 550 m 1,236,-1
 450 476 l 1,237,-1
 499 476 l 1,238,-1
 499 550 l 1,239,-1
 450 550 l 1,236,-1
100 475 m 1,240,-1
 100 401 l 1,241,-1
 149 401 l 1,242,-1
 149 475 l 1,243,-1
 100 475 l 1,240,-1
200 475 m 1,244,-1
 200 401 l 1,245,-1
 249 401 l 1,246,-1
 249 475 l 1,247,-1
 200 475 l 1,244,-1
300 475 m 1,248,-1
 300 401 l 1,249,-1
 349 401 l 1,250,-1
 349 475 l 1,251,-1
 300 475 l 1,248,-1
400 475 m 1,252,-1
 400 401 l 1,253,-1
 449 401 l 1,254,-1
 449 475 l 1,255,-1
 400 475 l 1,252,-1
500 475 m 1,256,-1
 500 401 l 1,257,-1
 549 401 l 1,258,-1
 549 475 l 1,259,-1
 500 475 l 1,256,-1
50 400 m 1,260,-1
 50 326 l 1,261,-1
 99 326 l 1,262,-1
 99 400 l 1,263,-1
 50 400 l 1,260,-1
150 400 m 1,264,-1
 150 326 l 1,265,-1
 199 326 l 1,266,-1
 199 400 l 1,267,-1
 150 400 l 1,264,-1
250 400 m 1,268,-1
 250 326 l 1,269,-1
 299 326 l 1,270,-1
 299 400 l 1,271,-1
 250 400 l 1,268,-1
350 400 m 1,272,-1
 350 326 l 1,273,-1
 399 326 l 1,274,-1
 399 400 l 1,275,-1
 350 400 l 1,272,-1
450 400 m 1,276,-1
 450 326 l 1,277,-1
 499 326 l 1,278,-1
 499 400 l 1,279,-1
 450 400 l 1,276,-1
100 325 m 1,280,-1
 100 251 l 1,281,-1
 149 251 l 1,282,-1
 149 325 l 1,283,-1
 100 325 l 1,280,-1
200 325 m 1,284,-1
 200 251 l 1,285,-1
 249 251 l 1,286,-1
 249 325 l 1,287,-1
 200 325 l 1,284,-1
300 325 m 1,288,-1
 300 251 l 1,289,-1
 349 251 l 1,290,-1
 349 325 l 1,291,-1
 300 325 l 1,288,-1
400 325 m 1,292,-1
 400 251 l 1,293,-1
 449 251 l 1,294,-1
 449 325 l 1,295,-1
 400 325 l 1,292,-1
500 325 m 1,296,-1
 500 251 l 1,297,-1
 549 251 l 1,298,-1
 549 325 l 1,299,-1
 500 325 l 1,296,-1
50 250 m 1,300,-1
 50 176 l 1,301,-1
 99 176 l 1,302,-1
 99 250 l 1,303,-1
 50 250 l 1,300,-1
150 250 m 1,304,-1
 150 176 l 1,305,-1
 199 176 l 1,306,-1
 199 250 l 1,307,-1
 150 250 l 1,304,-1
250 250 m 1,308,-1
 250 176 l 1,309,-1
 299 176 l 1,310,-1
 299 250 l 1,311,-1
 250 250 l 1,308,-1
350 250 m 1,312,-1
 350 176 l 1,313,-1
 399 176 l 1,314,-1
 399 250 l 1,315,-1
 350 250 l 1,312,-1
450 250 m 1,316,-1
 450 176 l 1,317,-1
 499 176 l 1,318,-1
 499 250 l 1,319,-1
 450 250 l 1,316,-1
100 175 m 1,320,-1
 100 101 l 1,321,-1
 149 101 l 1,322,-1
 149 175 l 1,323,-1
 100 175 l 1,320,-1
200 175 m 1,324,-1
 200 101 l 1,325,-1
 249 101 l 1,326,-1
 249 175 l 1,327,-1
 200 175 l 1,324,-1
300 175 m 1,328,-1
 300 101 l 1,329,-1
 349 101 l 1,330,-1
 349 175 l 1,331,-1
 300 175 l 1,328,-1
400 175 m 1,332,-1
 400 101 l 1,333,-1
 449 101 l 1,334,-1
 449 175 l 1,335,-1
 400 175 l 1,332,-1
500 175 m 1,336,-1
 500 101 l 1,337,-1
 549 101 l 1,338,-1
 549 175 l 1,339,-1
 500 175 l 1,336,-1
50 100 m 1,340,-1
 50 26 l 1,341,-1
 99 26 l 1,342,-1
 99 100 l 1,343,-1
 50 100 l 1,340,-1
150 100 m 1,344,-1
 150 26 l 1,345,-1
 199 26 l 1,346,-1
 199 100 l 1,347,-1
 150 100 l 1,344,-1
250 100 m 1,348,-1
 250 26 l 1,349,-1
 299 26 l 1,350,-1
 299 100 l 1,351,-1
 250 100 l 1,348,-1
350 100 m 1,352,-1
 350 26 l 1,353,-1
 399 26 l 1,354,-1
 399 100 l 1,355,-1
 350 100 l 1,352,-1
450 100 m 1,356,-1
 450 26 l 1,357,-1
 499 26 l 1,358,-1
 499 100 l 1,359,-1
 450 100 l 1,356,-1
100 25 m 1,360,-1
 100 -49 l 1,361,-1
 149 -49 l 1,362,-1
 149 25 l 1,363,-1
 100 25 l 1,360,-1
200 25 m 1,364,-1
 200 -49 l 1,365,-1
 249 -49 l 1,366,-1
 249 25 l 1,367,-1
 200 25 l 1,364,-1
300 25 m 1,368,-1
 300 -49 l 1,369,-1
 349 -49 l 1,370,-1
 349 25 l 1,371,-1
 300 25 l 1,368,-1
400 25 m 1,372,-1
 400 -49 l 1,373,-1
 449 -49 l 1,374,-1
 449 25 l 1,375,-1
 400 25 l 1,372,-1
500 25 m 1,376,-1
 500 -49 l 1,377,-1
 549 -49 l 1,378,-1
 549 25 l 1,379,-1
 500 25 l 1,376,-1
50 -50 m 1,380,-1
 50 -124 l 1,381,-1
 99 -124 l 1,382,-1
 99 -50 l 1,383,-1
 50 -50 l 1,380,-1
150 -50 m 1,384,-1
 150 -124 l 1,385,-1
 200 -124 l 1,386,-1
 200 -50 l 1,387,-1
 150 -50 l 1,384,-1
250 -50 m 1,388,-1
 250 -124 l 1,389,-1
 299 -124 l 1,390,-1
 299 -50 l 1,391,-1
 250 -50 l 1,388,-1
350 -50 m 1,392,-1
 350 -124 l 1,393,-1
 399 -124 l 1,394,-1
 399 -50 l 1,395,-1
 350 -50 l 1,392,-1
450 -50 m 1,396,-1
 450 -124 l 1,397,-1
 499 -124 l 1,398,-1
 499 -50 l 1,399,-1
 450 -50 l 1,396,-1
400 -125 m 1,400,-1
 400 -199 l 1,401,-1
 449 -199 l 1,402,-1
 449 -124 l 1,403,-1
 400 -125 l 1,400,-1
100 -125 m 1,404,-1
 100 -199 l 1,405,-1
 149 -199 l 1,406,-1
 149 -125 l 1,407,-1
 100 -125 l 1,404,-1
200 -125 m 1,408,-1
 200 -199 l 1,409,-1
 249 -199 l 1,410,-1
 249 -125 l 1,411,-1
 200 -125 l 1,408,-1
300 -125 m 1,412,-1
 300 -199 l 1,413,-1
 349 -199 l 1,414,-1
 349 -125 l 1,415,-1
 300 -125 l 1,412,-1
500 -125 m 1,416,-1
 500 -199 l 1,417,-1
 549 -199 l 1,418,-1
 549 -125 l 1,419,-1
 500 -125 l 1,416,-1
150 -200 m 1,420,-1
 150 -274 l 1,421,-1
 199 -274 l 1,422,-1
 199 -199 l 1,423,-1
 150 -200 l 1,420,-1
350 -200 m 1,424,-1
 350 -274 l 1,425,-1
 399 -274 l 1,426,-1
 399 -199 l 1,427,-1
 350 -200 l 1,424,-1
50 -200 m 1,428,-1
 50 -274 l 1,429,-1
 99 -274 l 1,430,-1
 99 -200 l 1,431,-1
 50 -200 l 1,428,-1
250 -200 m 1,432,-1
 250 -274 l 1,433,-1
 299 -274 l 1,434,-1
 299 -200 l 1,435,-1
 250 -200 l 1,432,-1
450 -200 m 1,436,-1
 450 -274 l 1,437,-1
 499 -274 l 1,438,-1
 499 -200 l 1,439,-1
 450 -200 l 1,436,-1
100 -275 m 1,440,-1
 100 -349 l 1,441,-1
 149 -349 l 1,442,-1
 149 -275 l 1,443,-1
 100 -275 l 1,440,-1
200 -275 m 1,444,-1
 200 -349 l 1,445,-1
 249 -349 l 1,446,-1
 249 -275 l 1,447,-1
 200 -275 l 1,444,-1
300 -275 m 1,448,-1
 300 -349 l 1,449,-1
 350 -349 l 1,450,-1
 350 -275 l 1,451,-1
 300 -275 l 1,448,-1
400 -275 m 1,452,-1
 400 -349 l 1,453,-1
 449 -349 l 1,454,-1
 449 -275 l 1,455,-1
 400 -275 l 1,452,-1
500 -275 m 1,456,-1
 500 -349 l 1,457,-1
 549 -349 l 1,458,-1
 549 -275 l 1,459,-1
 500 -275 l 1,456,-1
150 -350 m 1,460,-1
 150 -424 l 1,461,-1
 199 -424 l 1,462,-1
 199 -349 l 1,463,-1
 150 -350 l 1,460,-1
350 -350 m 1,464,-1
 350 -424 l 1,465,-1
 399 -424 l 1,466,-1
 399 -349 l 1,467,-1
 350 -350 l 1,464,-1
50 -350 m 1,468,-1
 50 -424 l 1,469,-1
 99 -424 l 1,470,-1
 99 -350 l 1,471,-1
 50 -350 l 1,468,-1
250 -350 m 1,472,-1
 250 -424 l 1,473,-1
 299 -424 l 1,474,-1
 299 -350 l 1,475,-1
 250 -350 l 1,472,-1
450 -350 m 1,476,-1
 450 -424 l 1,477,-1
 499 -424 l 1,478,-1
 499 -350 l 1,479,-1
 450 -350 l 1,476,-1
EndSplineSet
Colour: ff0000
EndChar
StartChar: uni2599
Encoding: 9625 9625 1181
Width: 600
Flags: W
LayerCount: 2
Fore
SplineSet
300 250 m 1,0,-1
 600 250 l 1,1,-1
 600 -500 l 1,2,-1
 0 -500 l 1,3,-1
 0 1000 l 1,4,-1
 300 1000 l 1,5,-1
 300 250 l 1,0,-1
EndSplineSet
Colour: ff0000
EndChar
StartChar: uni259F
Encoding: 9631 9631 1187
Width: 600
Flags: W
LayerCount: 2
Fore
SplineSet
600 -500 m 1,0,-1
 0 -500 l 1,1,-1
 0 250 l 1,2,-1
 300 250 l 1,3,-1
 300 1000 l 1,4,-1
 600 1000 l 1,5,-1
 600 -500 l 1,0,-1
EndSplineSet
Colour: ff0000
EndChar
StartChar: filledbox
Encoding: 9632 9632 1263
Width: 600
Flags: W
LayerCount: 2
Fore
SplineSet
570 0 m 1,0,-1
 30 0 l 1,1,-1
 30 540 l 1,2,-1
 570 540 l 1,3,-1
 570 0 l 1,0,-1
EndSplineSet
Colour: ff0000
EndChar
StartChar: triagup
Encoding: 9650 9650 1278
Width: 600
Flags: W
LayerCount: 2
Fore
SplineSet
570 0 m 1,0,-1
 30 0 l 1,1,-1
 300 540 l 1,2,-1
 570 0 l 1,0,-1
EndSplineSet
Colour: ff0000
EndChar
StartChar: uni25C6
Encoding: 9670 9670 1216
Width: 600
Flags: W
LayerCount: 2
Fore
SplineSet
570 270 m 1,0,-1
 300 0 l 1,1,-1
 30 270 l 1,2,-1
 300 540 l 1,3,-1
 570 270 l 1,0,-1
EndSplineSet
Colour: ff0000
EndChar
StartChar: uni25C7
Encoding: 9671 9671 1217
Width: 600
Flags: W
LayerCount: 2
Fore
SplineSet
570 270 m 1,0,-1
 300 0 l 1,1,-1
 30 270 l 1,2,-1
 300 540 l 1,3,-1
 570 270 l 1,0,-1
143 270 m 1,4,-1
 300 113 l 1,5,-1
 456 270 l 1,6,-1
 300 426 l 1,7,-1
 143 270 l 1,4,-1
EndSplineSet
Colour: ff0000
EndChar
StartChar: uni25CF
Encoding: 9679 9679 1191
Width: 600
Flags: W
LayerCount: 2
Fore
SplineSet
435 503.5 m 128,-1,1
 497 467 497 467 533.5 405 c 128,-1,2
 570 343 570 343 570 270 c 0,3,4
 570 196 570 196 533.5 134 c 128,-1,5
 497 72 497 72 435 36 c 128,-1,6
 373 0 373 0 300 0 c 0,7,8
 226 0 226 0 164 36 c 128,-1,9
 102 72 102 72 66 134 c 128,-1,10
 30 196 30 196 30 270 c 0,11,12
 30 343 30 343 66 405 c 128,-1,13
 102 467 102 467 164 503.5 c 128,-1,14
 226 540 226 540 300 540 c 0,15,0
 373 540 373 540 435 503.5 c 128,-1,1
EndSplineSet
Colour: ff0000
EndChar
StartChar: uni25D7
Encoding: 9687 9687 1199
Width: 600
Flags: W
LayerCount: 2
Fore
SplineSet
435 503.5 m 128,-1,1
 497 467 497 467 533.5 405 c 128,-1,2
 570 343 570 343 570 270 c 0,3,4
 570 196 570 196 533.5 134 c 128,-1,5
 497 72 497 72 435 36 c 128,-1,6
 373 0 373 0 300 0 c 1,7,-1
 300 540 l 1,8,0
 373 540 373 540 435 503.5 c 128,-1,1
EndSplineSet
Colour: ff0000
EndChar
StartChar: uni25DB
Encoding: 9691 9691 1209
Width: 600
Flags: W
LayerCount: 2
Fore
SplineSet
570 0 m 1,0,-1
 30 0 l 1,1,-1
 30 270 l 1,2,-1
 70 270 l 1,3,4
 70 208 70 208 101 155 c 128,-1,5
 132 102 132 102 185 71 c 128,-1,6
 238 40 238 40 300 40 c 256,7,8
 362 40 362 40 415 71 c 128,-1,9
 468 102 468 102 499 155 c 128,-1,10
 530 208 530 208 530 270 c 1,11,-1
 570 270 l 1,12,-1
 570 0 l 1,0,-1
429.5 194.5 m 128,-1,14
 409 160 409 160 374.5 140 c 128,-1,15
 340 120 340 120 300 120 c 0,16,17
 259 120 259 120 224.5 140 c 128,-1,18
 190 160 190 160 170 194.5 c 128,-1,19
 150 229 150 229 150 270 c 1,20,-1
 450 270 l 1,21,13
 450 229 450 229 429.5 194.5 c 128,-1,14
EndSplineSet
Colour: ff0000
EndChar
StartChar: uni25F7
Encoding: 9719 9719 1204
Width: 600
Flags: W
LayerCount: 2
Fore
SplineSet
435 503.5 m 128,-1,1
 497 467 497 467 533.5 405 c 128,-1,2
 570 343 570 343 570 270 c 0,3,4
 570 196 570 196 533.5 134 c 128,-1,5
 497 72 497 72 435 36 c 128,-1,6
 373 0 373 0 300 0 c 0,7,8
 226 0 226 0 164 36 c 128,-1,9
 102 72 102 72 66 134 c 128,-1,10
 30 196 30 196 30 270 c 0,11,12
 30 343 30 343 66 405 c 128,-1,13
 102 467 102 467 164 503.5 c 128,-1,14
 226 540 226 540 300 540 c 0,15,0
 373 540 373 540 435 503.5 c 128,-1,1
152.5 389 m 128,-1,17
 110 337 110 337 110 270 c 0,18,19
 110 218 110 218 135.5 174.5 c 128,-1,20
 161 131 161 131 204.5 105.5 c 128,-1,21
 248 80 248 80 300 80 c 0,22,23
 367 80 367 80 419 122.5 c 128,-1,24
 471 165 471 165 485 230 c 1,25,-1
 260 230 l 1,26,-1
 260 455 l 1,27,16
 195 441 195 441 152.5 389 c 128,-1,17
340 310 m 1,28,-1
 486 310 l 1,29,30
 474 364 474 364 434 403.5 c 128,-1,31
 394 443 394 443 340 455 c 1,32,-1
 340 310 l 1,28,-1
EndSplineSet
Colour: ff0000
EndChar
